SplineFontDB: 2.0
FontName: Loma-Bold
FullName: Loma Bold
FamilyName: Loma
Weight: Bold
Copyright: Copyright (c) NECTEC, 2003. All rights reserved.\nModified under GNU General Public License by TLWG.
Version: 0.9.11: 2007-12-07
ItalicAngle: 0
UnderlinePosition: -170
UnderlineWidth: 10
Ascent: 1638
Descent: 410
NeedsXUIDChange: 1
FSType: 0
OS2Version: 0
OS2_WeightWidthSlopeOnly: 0
OS2_UseTypoMetrics: 0
CreationTime: 1153662462
ModificationTime: 1198737088
PfmFamily: 33
TTFWeight: 700
TTFWidth: 5
LineGap: 0
VLineGap: 0
Panose: 2 11 6 4 2 2 2 2 2 4
OS2TypoAscent: 0
OS2TypoAOffset: 1
OS2TypoDescent: 0
OS2TypoDOffset: 1
OS2TypoLinegap: 0
OS2WinAscent: 0
OS2WinAOffset: 1
OS2WinDescent: 0
OS2WinDOffset: 1
HheadAscent: 0
HheadAOffset: 1
HheadDescent: 0
HheadDOffset: 1
OS2Vendor: 'PfEd'
Lookup: 6 0 0 "'ccmp' Thai General Composition"  {"'ccmp' Thai Below Vowel Tone Reordering"  "'ccmp' Thai General Composition"  } ['ccmp' ('thai' <'KUY ' 'PAL ' 'THA ' 'dflt' > ) ]
Lookup: 6 0 0 "'ccmp' Thai Conditional Descender Removal"  {"'ccmp' Thai Conditional Descender Removal"  } ['ccmp' ('thai' <'KUY ' 'PAL ' 'THA ' 'dflt' > ) ]
Lookup: 5 0 0 "Required Thai Descender Removal"  {"Required Thai Descender Removal"  } [' RQD' ('thai' <'PAL ' > ) ]
Lookup: 1 0 0 "Thai Descender Removal Single Substitution"  {"Thai Descender Removal Single Substitution" ("descless" ) } []
Lookup: 2 0 0 "Thai Sara Am Decomposition"  {"Thai Sara Am Decomposition"  } []
Lookup: 2 0 0 "Thai Tone Nikhahit Attachment"  {"Thai Tone Nikhahit Attachment"  } []
Lookup: 1 0 0 "Thai Sara Am Lakkhang"  {"Thai Sara Am Lakkhang"  } []
Lookup: 1 0 0 "Thai Tone Low Variant"  {"Thai Tone Low Variant" ("low" ) } []
Lookup: 1 0 0 "Thai Mark High Variant"  {"Thai Mark High Variant" ("high" ) } []
Lookup: 1 0 0 "Thai Sara U Mai Ek Reordering"  {"Thai Sara U Mai Ek Reordering"  } []
Lookup: 1 0 0 "Thai Sara U Mai Tho Reordering"  {"Thai Sara U Mai Tho Reordering"  } []

StartChar: .notdef
Encoding: 0 -1 0
Width: 1536
Flags: W
HStem: 0 32<288 1248> 1248 32<288 1248>
VStem: 256 32<32 1248> 1248 32<32 1248>
Fore
256 0 m 1
 256 1280 l 1
 1280 1280 l 1
 1280 0 l 1
 256 0 l 1
288 32 m 1
 1248 32 l 1
 1248 1248 l 1
 288 1248 l 1
 288 32 l 1
EndSplineSet
EndChar
StartChar: uni0E47.high
Encoding: 270 63263 1
Width: 0
Flags: W
HStem: 1876.8 150.3<-775.423 -669.924> 2047.8 66.6<-509.087 -440.061>
VStem: -999.4 157.5<1984.14 2075.54> -585.4 75.6<1987.35 2040.1> -437.8 107.1<1936.14 2027.18>
AnchorPoint: "AboveMark" -665 1740 mark 0
Back
-412 1524 m 0x3e
 -412 1543 -428 1562 -452 1562 c 0
 -476 1562 -492 1543 -492 1524 c 0
 -492 1505 -476 1486 -452 1486 c 0
 -428 1486 -412 1505 -412 1524 c 0x3e
-773 1539 m 0x7e
 -691 1539 -609 1427 -551 1427 c 0
 -533 1427 -528 1434 -527 1434 c 1
 -559 1454 -576 1483 -576 1522 c 0
 -576 1574 -529 1636 -449 1636 c 0
 -302 1636 -293 1521 -293 1476 c 0
 -293 1373 -359 1284 -469 1284 c 0xbe
 -544 1284 -608 1300 -661 1333 c 0
 -689 1348 -714 1372 -755 1372 c 0x7e
 -800 1372 -783 1288 -796 1284 c 1xbe
 -988 1284 -1036 1425 -1036 1510 c 0
 -1036 1614 -965 1722 -850 1751 c 0
 -671 1796 -458 1741 -408 1894 c 1
 -226 1894 l 1
 -237 1792 -354 1682 -444 1660 c 0
 -614 1619 -861 1654 -861 1522 c 0
 -861 1505 -856 1497 -850 1486 c 1
 -832 1521 -806 1539 -773 1539 c 0x7e
EndSplineSet
Refer: 190 3655 N 0.9 0 0 0.9 -67 642 2
EndChar
StartChar: uni0E4D.high
Encoding: 271 63262 2
Width: 0
VWidth: 2561
Flags: W
HStem: 1719 104<-313.559 -208.548> 1928 107<-313.559 -208.441>
VStem: -419 104<1825.48 1927.07> -207 102<1825.48 1927.18>
AnchorPoint: "AboveMark" -261 1740 mark 0
Fore
-419 1875 m 0
 -419 1965 -351 2035 -261 2035 c 0
 -171 2035 -105 1965 -105 1875 c 0
 -105 1785 -171 1719 -261 1719 c 0
 -351 1719 -419 1785 -419 1875 c 0
-315 1875 m 0
 -315 1845 -291 1823 -261 1823 c 0
 -231 1823 -207 1845 -207 1875 c 0
 -207 1905 -222 1928 -261 1928 c 0
 -291 1928 -315 1905 -315 1875 c 0
EndSplineSet
EndChar
StartChar: exclam
Encoding: 3 33 5
Width: 569
Flags: W
HStem: 0 194<177 400> 1430 20G<169 408>
VStem: 169 239<910.471 1450> 177 223<0 194>
Fore
169 999 m 1xe0
 169 1450 l 1
 408 1450 l 1
 408 999 l 1
 365 365 l 1
 213 365 l 1
 169 999 l 1xe0
177 194 m 1xd0
 400 194 l 1
 400 0 l 1
 177 0 l 1
 177 194 l 1xd0
EndSplineSet
EndChar
StartChar: quotedbl
Encoding: 4 34 6
Width: 727
Flags: W
HStem: 1430 20G<106 336 389 619>
VStem: 106 230<1183.82 1450> 389 230<1182.44 1450>
Fore
156 947 m 1
 106 1217 l 1
 106 1450 l 1
 336 1450 l 1
 336 1217 l 1
 291 947 l 1
 156 947 l 1
437 947 m 1
 389 1217 l 1
 389 1450 l 1
 619 1450 l 1
 619 1217 l 1
 572 947 l 1
 437 947 l 1
EndSplineSet
EndChar
StartChar: numbersign
Encoding: 5 35 7
Width: 1139
Flags: W
HStem: -10 21G<57 301.767 516 767.329> 355 240<21 144 414 602 872 1113> 865 240<21 248 518 698 977 1113> 1450 20G<360.233 605 819.233 1064>
Fore
57 -10 m 1
 144 355 l 1
 21 355 l 1
 21 595 l 1
 183 595 l 1
 248 865 l 1
 21 865 l 1
 21 1105 l 1
 278 1105 l 1
 365 1470 l 1
 605 1470 l 1
 518 1105 l 1
 737 1105 l 1
 824 1470 l 1
 1064 1470 l 1
 977 1105 l 1
 1113 1105 l 1
 1113 865 l 1
 938 864 l 1
 872 595 l 1
 1113 595 l 1
 1113 355 l 1
 842 355 l 1
 763 -10 l 1
 516 -10 l 1
 602 355 l 1
 384 355 l 1
 297 -10 l 1
 57 -10 l 1
414 595 m 1
 632 595 l 1
 698 865 l 1
 479 865 l 1
 414 595 l 1
EndSplineSet
EndChar
StartChar: dollar
Encoding: 6 36 8
Width: 1139
Flags: W
VStem: 79 206<246.043 344 344 417> 106 214<901.61 1188.27> 462 202<-118 -37 153 599 840 1239 1429 1488> 830 212<232.703 528.258>
Fore
1042 397 m 0x70
 1042 169 905 -21 664 -35 c 1
 664 -118 l 1
 462 -118 l 1
 462 -37 l 1
 230 -8 99 120 79 344 c 2
 76 417 l 1
 285 417 l 1
 285 400 l 2xb0
 285 256 350 192 462 153 c 1
 462 621 l 1
 288 655 106 785 106 1031 c 0
 106 1244 227 1406 462 1429 c 1
 462 1488 l 1
 664 1488 l 1
 664 1429 l 1
 878 1405 993 1279 1008 1050 c 1
 805 1050 l 1
 802 1088 774 1202 664 1239 c 1
 664 820 l 1
 754 803 1042 735 1042 397 c 0x70
462 1241 m 1
 346 1210 320 1152 320 999 c 0x70
 320 924 379 872 462 840 c 1
 462 1241 l 1
830 386 m 0
 830 515 777 568 664 599 c 1
 664 153 l 1
 769 181 830 253 830 386 c 0
EndSplineSet
EndChar
StartChar: percent
Encoding: 7 37 9
Width: 1821
Flags: W
HStem: -53 177<1295.13 1469.37> 546 175<1298.03 1467.88> 717 169<347.488 517.299> 1317 174<349.139 517.275>
VStem: 119 191<922.825 1281.91> 554 191<923.193 1280.66> 1067 190<159.738 512.869> 1507 189<208.373 508.19>
Fore
428 717 m 0xbf
 304 717 119 790 119 1114 c 0
 119 1260 180 1491 426 1491 c 0
 634 1491 745 1332 745 1104 c 0
 743 884 633 717 428 717 c 0xbf
554 1107 m 0
 554 1259 505 1317 431 1317 c 0
 331 1317 310 1205 310 1096 c 0
 310 915 383 886 431 886 c 0
 529 886 554 987 554 1107 c 0
1170 1491 m 1
 1447 1491 l 1
 688 -10 l 1
 411 -10 l 1
 1170 1491 l 1
1376 -53 m 0
 1168 -53 1067 115 1067 344 c 0
 1067 492 1129 721 1376 721 c 0xdf
 1583 721 1696 558 1696 334 c 0
 1696 95 1568 -53 1376 -53 c 0
1507 340 m 0
 1507 519 1431 546 1381 546 c 0
 1279 546 1257 442 1257 329 c 0
 1257 153 1331 124 1381 124 c 0
 1418 124 1448 140 1472 171 c 0
 1495 202 1507 258 1507 340 c 0
EndSplineSet
EndChar
StartChar: ampersand
Encoding: 8 38 10
Width: 1366
Flags: W
HStem: -22 207<407.998 699.777> 1286 205<535.197 713.299>
VStem: 88 239<270.565 535.755> 272 240<1048.64 1262.78> 737 240<1046.44 1262.1>
Fore
977 1178 m 0xd8
 977 1016 873 903 720 821 c 1
 926 522 l 1
 956 579 979 648 995 727 c 1
 1221 649 l 1
 1192 540 1150 442 1095 357 c 1
 1162 270 1238 195 1324 132 c 1
 1173 -67 l 1
 1101 -19 1026 50 948 140 c 1
 925 115 794 -22 576 -22 c 0
 214 -22 88 224 88 403 c 0xe8
 88 602 194 752 407 852 c 1
 325 949 272 1035 272 1163 c 0
 272 1351 429 1491 637 1491 c 0
 820 1491 977 1364 977 1178 c 0xd8
627 1286 m 0
 566 1286 512 1244 512 1167 c 0xd8
 512 1114 544 1052 609 983 c 1
 687 1023 737 1080 737 1171 c 0
 737 1224 700 1286 627 1286 c 0
327 411 m 0xe8
 327 339 370 185 540 185 c 0
 639 185 751 239 800 326 c 1
 530 671 l 1
 400 594 327 509 327 411 c 0xe8
EndSplineSet
EndChar
StartChar: quotesingle
Encoding: 9 39 11
Width: 391
Flags: W
HStem: 1446 20G<61 324>
VStem: 61 263<1185.93 1466>
Fore
107 947 m 1
 61 1221 l 1
 61 1466 l 1
 324 1466 l 1
 324 1221 l 1
 276 947 l 1
 107 947 l 1
EndSplineSet
EndChar
StartChar: parenleft
Encoding: 10 40 12
Width: 682
Flags: W
VStem: 81 276<200.379 880.853>
Fore
656 1491 m 1
 492 1212 357 980 357 530 c 0
 357 209 457 -111 656 -431 c 1
 436 -431 l 1
 253 -199 81 148 81 531 c 0
 81 918 217 1198 436 1491 c 1
 656 1491 l 1
EndSplineSet
EndChar
StartChar: parenright
Encoding: 11 41 13
Width: 682
Flags: W
VStem: 378 278<200.125 888.07>
Fore
656 531 m 0
 656 146 484 -197 301 -431 c 1
 79 -431 l 1
 278 -111 378 209 378 530 c 0
 378 969 259 1170 79 1491 c 1
 301 1491 l 1
 527 1188 656 915 656 531 c 0
EndSplineSet
EndChar
StartChar: asterisk
Encoding: 12 42 14
Width: 797
Flags: W
HStem: 858 633<306 510>
VStem: 303 185<1292 1491>
Fore
65 1176 m 1
 107 1357 l 1
 274 1301 l 1
 287 1296 299 1290 310 1284 c 1
 305 1327 303 1365 303 1399 c 1
 306 1491 l 1
 483 1491 l 1
 488 1349 l 1
 487 1328 485 1305 482 1282 c 1
 521 1302 583 1326 667 1353 c 0
 679 1357 679 1357 688 1360 c 1
 721 1179 l 1
 643 1153 582 1137 537 1131 c 2
 513 1128 l 1
 544 1101 592 1048 658 967 c 2
 662 962 l 1
 510 858 l 1
 473 909 433 970 392 1041 c 1
 361 982 324 924 283 869 c 2
 277 862 l 1
 126 968 l 1
 200 1059 248 1115 271 1136 c 1
 102 1167 l 2
 90 1170 78 1173 65 1176 c 1
EndSplineSet
EndChar
StartChar: plus
Encoding: 13 43 15
Width: 1196
Flags: W
HStem: 611 226<114 483 713 1082>
VStem: 483 230<237 611 837 1206>
Fore
483 237 m 1
 483 611 l 1
 114 611 l 1
 114 837 l 1
 483 837 l 1
 483 1206 l 1
 713 1206 l 1
 713 837 l 1
 1082 837 l 1
 1082 611 l 1
 713 611 l 1
 713 237 l 1
 483 237 l 1
EndSplineSet
EndChar
StartChar: comma
Encoding: 14 44 16
Width: 569
Flags: W
VStem: 122 297<-22 231> 244 175<-135.047 -22>
Fore
122 -22 m 1x80
 122 231 l 1
 419 231 l 1
 419 -22 l 2x80
 419 -201 354 -258 268 -300 c 1
 111 -207 l 1
 219 -159 242 -65 244 -22 c 1x40
 122 -22 l 1x80
EndSplineSet
EndChar
StartChar: hyphen
Encoding: 15 45 17
Width: 682
Flags: W
HStem: 388 266<65 618>
Fore
65 388 m 1
 65 654 l 1
 618 654 l 1
 618 388 l 1
 65 388 l 1
EndSplineSet
EndChar
StartChar: period
Encoding: 16 46 18
Width: 569
Flags: W
HStem: 0 220<154 430>
VStem: 154 276<0 220>
Fore
154 0 m 1
 154 220 l 1
 430 220 l 1
 430 0 l 1
 154 0 l 1
EndSplineSet
EndChar
StartChar: slash
Encoding: 17 47 19
Width: 595
Flags: W
HStem: -10 21G<-110 137.919> 1450 20G<469.068 716>
VStem: -110 826<-10 1470>
Fore
-110 -10 m 1
 477 1470 l 1
 716 1470 l 1
 130 -10 l 1
 -110 -10 l 1
EndSplineSet
EndChar
StartChar: zero
Encoding: 18 48 20
Width: 1139
Flags: W
HStem: -10 267<453.757 669.861> 1213 269<446.615 668.238>
VStem: 86 254<407.591 1073.12> 781 259<411.608 1064.11>
Fore
563 -10 m 0
 224 -10 86 273 86 736 c 0
 86 1142 181 1482 563 1482 c 0
 945 1482 1040 1121 1040 736 c 0
 1040 284 916 4 563 -10 c 0
559 1213 m 0
 428 1213 340 1101 340 735 c 0
 340 416 413 257 560 257 c 0
 724 257 781 460 781 735 c 0
 781 1040 712 1213 559 1213 c 0
EndSplineSet
EndChar
StartChar: one
Encoding: 19 49 21
Width: 1139
Flags: W
HStem: 0 21G<525 763> 1452 20G<499 763>
VStem: 525 238<0 1045>
Fore
223 1104 m 1
 389 1183 473 1274 525 1472 c 1
 763 1472 l 1
 763 0 l 1
 525 0 l 1
 525 1045 l 1
 405 908 283 858 223 844 c 1
 223 1104 l 1
EndSplineSet
EndChar
StartChar: two
Encoding: 20 50 22
Width: 1139
Flags: W
HStem: 0 223<382 1031> 1273 209<419.5 707.41>
VStem: 96 235<1039 1179.4> 794 235<917.778 1192.9>
Fore
572 1482 m 0
 850 1482 1029 1315 1029 1075 c 0
 1029 964 960 813 873 705 c 0
 751 550 491 388 382 223 c 1
 1031 223 l 1
 1031 0 l 1
 62 0 l 1
 77 186 185 355 280 450 c 0
 494 666 794 830 794 1079 c 0
 794 1201 675 1273 568 1273 c 0
 423 1273 338 1186 331 1039 c 1
 96 1039 l 1
 96 1307 284 1482 572 1482 c 0
EndSplineSet
EndChar
StartChar: three
Encoding: 21 51 23
Width: 1139
Flags: W
HStem: -10 216<422.521 706.18> 668 215<474.809 666.069> 1070 21G<104 338.5> 1268 214<411.044 669.114>
VStem: 104 229<1090.73 1226.22> 740 234<956.357 1202.35> 805 241<305.763 574.459>
Fore
1046 449 m 0xfa
 1046 184 835 -10 552 -10 c 0
 299 -10 86 166 86 427 c 1
 316 427 l 1
 333 294 439 206 553 206 c 0
 717 206 805 316 805 445 c 0xfa
 805 579 688 668 537 668 c 0
 504 668 472 663 441 654 c 1
 441 882 l 1
 516 883 l 0
 708 892 740 1004 740 1105 c 0
 740 1196 636 1268 549 1268 c 0
 427 1268 344 1191 333 1070 c 1
 104 1070 l 1
 104 1305 296 1482 545 1482 c 0
 788 1482 974 1328 974 1101 c 0xfc
 974 930 928 838 812 794 c 1
 977 768 1046 645 1046 449 c 0xfa
EndSplineSet
EndChar
StartChar: four
Encoding: 22 52 24
Width: 1139
Flags: W
HStem: 0 21G<662 892> 327 225<321 662 892 1070> 1452 20G<648.826 892>
VStem: 662 230<0 327 552 1077>
Fore
662 0 m 1
 662 327 l 1
 56 327 l 1
 56 552 l 1
 662 1472 l 1
 892 1472 l 1
 892 552 l 1
 1070 552 l 1
 1070 327 l 1
 892 327 l 1
 892 0 l 1
 662 0 l 1
662 552 m 1
 662 1077 l 1
 321 552 l 1
 662 552 l 1
EndSplineSet
EndChar
StartChar: five
Encoding: 23 53 25
Width: 1139
Flags: W
HStem: -10 214<409.254 705.565> 777 230<440.516 710.729> 1244 228<473 988>
VStem: 85 245<257.987 399.972> 817 240<323.991 672.453>
Fore
1057 512 m 0
 1055 211 871 -10 556 -10 c 0
 272 -10 112 158 85 415 c 1
 330 415 l 1
 341 236 477 204 556 204 c 0
 718 204 817 320 817 496 c 0
 817 680 720 777 553 777 c 0
 458 777 409 748 355 686 c 1
 117 708 l 1
 259 1472 l 1
 988 1472 l 1
 988 1244 l 1
 473 1244 l 1
 404 940 l 1
 477 988 523 1007 591 1007 c 0
 881 1003 1057 794 1057 512 c 0
EndSplineSet
EndChar
StartChar: six
Encoding: 24 54 26
Width: 1139
Flags: W
HStem: -10 210<449.525 724.843> 764 213<442.168 719.933> 1257 225<450.05 728.284>
VStem: 77 238<701 1079.42> 819 227<300.492 659.66>
Fore
77 701 m 0
 77 1265 287 1482 603 1482 c 0
 837 1482 1019 1330 1019 1103 c 1
 807 1104 l 1
 772 1222 679 1257 600 1257 c 0
 420 1262 324 1112 315 858 c 1
 380 937 471 977 589 977 c 0
 860 977 1046 752 1046 479 c 0
 1046 208 875 -10 586 -10 c 0
 179 -10 77 352 77 701 c 0
579 764 m 0
 435 764 351 660 351 489 c 0
 351 328 429 200 585 200 c 0
 736 200 819 312 819 481 c 0
 819 644 736 764 579 764 c 0
EndSplineSet
EndChar
StartChar: seven
Encoding: 25 55 27
Width: 1139
Flags: W
HStem: 0 21G<253 511> 1233 239<97 755>
VStem: 253 258<0 315.057>
Fore
97 1233 m 1
 97 1472 l 1
 1046 1472 l 1
 1046 1233 l 1
 954 1136 737 856 675 692 c 0
 539 328 511 138 511 0 c 1
 253 0 l 1
 254 243 319 502 446 776 c 0
 494 886 622 1069 755 1233 c 1
 97 1233 l 1
EndSplineSet
EndChar
StartChar: eight
Encoding: 26 56 28
Width: 1139
Flags: W
HStem: -11 210<420.575 718.947> 651 267<431.976 700.768> 1284 198<431.245 697.47>
VStem: 83 239<295.071 576.636> 142 227<979.539 1218.18> 761 228<977.341 1224.17> 812 237<291.82 571.635>
Fore
556 -11 m 0xe2
 313 -11 83 138 83 439 c 0xf2
 83 659 211 767 362 805 c 1
 215 859 142 959 142 1104 c 0
 142 1333 312 1482 563 1482 c 0
 810 1482 989 1340 989 1099 c 0xec
 989 981 935 876 773 805 c 1
 945 749 1049 642 1049 434 c 0
 1049 138 777 -11 556 -11 c 0xe2
565 1284 m 0
 444 1284 369 1202 369 1107 c 0
 371 981 454 918 567 918 c 0
 692 918 761 998 761 1099 c 0xec
 761 1220 675 1284 565 1284 c 0
812 433 m 0xf2
 812 572 720 651 563 651 c 0
 405 651 322 575 322 437 c 0
 322 291 428 199 568 199 c 0
 722 199 812 295 812 433 c 0xf2
EndSplineSet
EndChar
StartChar: nine
Encoding: 27 57 29
Width: 1139
Flags: W
HStem: -10 229<409.3 721.027> 495 227<447.305 715.44> 1257 225<447.962 709.497>
VStem: 113 244<821.537 1161.06> 825 256<392.576 771>
Fore
1081 771 m 0
 1081 207 871 -10 555 -10 c 0
 320 -10 141 139 139 369 c 1
 354 369 l 1
 365 267 444 219 566 219 c 0
 773 219 815 358 825 579 c 1
 759 513 686 495 564 495 c 0
 301 495 113 704 113 981 c 0
 113 1273 298 1482 572 1482 c 0
 979 1482 1081 1119 1081 771 c 0
584 722 m 0
 757 722 800 877 800 982 c 0
 800 1140 724 1257 579 1257 c 0
 435 1257 357 1144 357 991 c 0
 357 822 448 722 584 722 c 0
EndSplineSet
EndChar
StartChar: colon
Encoding: 28 58 30
Width: 569
Flags: W
HStem: 0 230<160 415> 832 230<160 415>
VStem: 160 255<0 230 832 1062>
Fore
160 832 m 1
 160 1062 l 1
 415 1062 l 1
 415 832 l 1
 160 832 l 1
160 0 m 1
 160 230 l 1
 415 230 l 1
 415 0 l 1
 160 0 l 1
EndSplineSet
EndChar
StartChar: semicolon
Encoding: 29 59 31
Width: 569
Flags: W
HStem: 832 230<157 412>
VStem: 157 255<0 205 832 1062> 259 153<-156.375 0>
Fore
157 832 m 1xc0
 157 1062 l 1
 412 1062 l 1
 412 832 l 1
 157 832 l 1xc0
157 0 m 1
 157 205 l 1
 412 205 l 1
 412 0 l 2xc0
 412 -163 365 -262 270 -297 c 1
 145 -213 l 1
 215 -182 255 -120 259 0 c 1xa0
 157 0 l 1
EndSplineSet
EndChar
StartChar: less
Encoding: 30 60 32
Width: 1196
Flags: W
HStem: 226 993<1083 1083>
VStem: 112 971<641 1219>
Fore
112 641 m 1
 112 809 l 1
 1083 1219 l 1
 1083 990 l 1
 423 724 l 1
 1083 455 l 1
 1083 226 l 1
 112 641 l 1
EndSplineSet
EndChar
StartChar: equal
Encoding: 31 61 33
Width: 1196
Flags: W
HStem: 417 218<114 1082> 812 218<114 1082>
Fore
1082 812 m 1
 114 812 l 1
 114 1030 l 1
 1082 1030 l 1
 1082 812 l 1
1082 417 m 1
 114 417 l 1
 114 635 l 1
 1082 635 l 1
 1082 417 l 1
EndSplineSet
EndChar
StartChar: greater
Encoding: 32 62 34
Width: 1196
Flags: W
HStem: 226 993<112 112>
VStem: 112 971<226 641>
Fore
1083 641 m 1
 112 226 l 1
 112 455 l 1
 750 724 l 1
 112 990 l 1
 112 1219 l 1
 1083 809 l 1
 1083 641 l 1
EndSplineSet
EndChar
StartChar: question
Encoding: 33 63 35
Width: 1139
Flags: W
HStem: 0 235<421 695> 1291 213<445.197 730.084>
VStem: 421 274<0 235> 432 242<361 564.344> 813 223<985.255 1209.35>
Fore
565 1504 m 0xd8
 835 1504 1036 1340 1036 1084 c 0
 1036 1024 1023 924 895 782 c 0
 792 683 674 580 674 361 c 1
 432 361 l 1
 432 615 542 715 639 803 c 0
 793 946 813 1031 813 1088 c 0
 813 1250 659 1291 568 1291 c 0
 435 1291 324 1140 324 1046 c 1
 90 1046 l 1
 90 1300 293 1504 565 1504 c 0xd8
421 0 m 1xe8
 421 235 l 1
 695 235 l 1
 695 0 l 1
 421 0 l 1xe8
EndSplineSet
EndChar
StartChar: at
Encoding: 34 64 36
Width: 2079
Flags: W
HStem: -431 200<807.286 1436.19> -33 252<1277 1545.48> -3 241<804.45 1035.87> 849 235<886.571 1134.53> 1279 214<837.114 1343.78>
VStem: 111 221<212.762 746.432> 502 239<304.383 672.776> 1740 216<476.576 923.19>
Fore
1354 -33 m 0xdf
 1200 -33 1168 47 1161 121 c 1
 1090 38 987 -3 854 -3 c 0xbf
 633 -3 502 209 502 461 c 0
 502 791 737 1084 1011 1084 c 0
 1198 1084 1265 977 1278 938 c 1
 1312 1079 l 1
 1526 1079 l 1
 1380 379 l 1
 1352 285 l 1
 1355 229 1400 219 1422 219 c 0
 1609 227 1740 475 1740 716 c 0
 1740 1068 1413 1279 1100 1279 c 0
 545 1279 332 800 332 485 c 0
 332 174 490 -231 1120 -231 c 0
 1445 -231 1573 -142 1748 19 c 1
 2005 19 l 1
 1873 -253 1545 -431 1123 -431 c 0
 508 -419 111 -120 111 469 c 0
 111 1039 484 1493 1102 1493 c 0
 1590 1493 1956 1181 1956 713 c 0
 1956 355 1688 -33 1354 -33 c 0xdf
741 474 m 0
 741 290 840 238 906 238 c 0
 1080 238 1188 442 1188 643 c 0
 1188 820 1083 849 1013 849 c 0
 830 849 741 629 741 474 c 0
EndSplineSet
EndChar
StartChar: A
Encoding: 35 65 37
Width: 1366
Flags: W
HStem: 0 21G<-2 281.73 1069.72 1368> 433 240<505 833> 1430 20G<551.262 776.276>
Fore
559 1450 m 1
 768 1450 l 1
 1368 0 l 1
 1079 0 l 1
 878 433 l 1
 462 433 l 1
 273 0 l 1
 -2 0 l 1
 559 1450 l 1
833 673 m 1
 659 1109 l 1
 505 673 l 1
 833 673 l 1
EndSplineSet
EndChar
StartChar: B
Encoding: 36 66 38
Width: 1366
Flags: W
HStem: 0 220<384 848.849> 629 213<384 879.251> 1231 219<384 906.429>
VStem: 164 220<220 629 842 1231> 955 231<913.687 1181.25> 1016 241<284.603 563.027>
Fore
1186 1079 m 0xf8
 1186 843 1050 791 1021 772 c 1
 1178 726 1257 609 1257 421 c 0xf4
 1257 230 1165 0 709 0 c 2
 164 0 l 1
 164 1450 l 1
 700 1450 l 2
 990 1450 1186 1330 1186 1079 c 0xf8
384 842 m 1
 661 842 l 2
 880 842 955 905 955 1056 c 0xf8
 955 1210 875 1231 637 1231 c 2
 384 1231 l 1
 384 842 l 1
384 220 m 1
 709 220 l 2
 835 220 1016 210 1016 421 c 0xf4
 1016 595 920 629 683 629 c 2
 384 629 l 1
 384 220 l 1
EndSplineSet
EndChar
StartChar: C
Encoding: 37 67 39
Width: 1479
Flags: W
HStem: -10 220<604.471 982.21> 1257 220<591.473 1003.27>
VStem: 102 238<504.785 990.551> 1168 230<343.774 480>
Fore
788 210 m 0
 977 210 1149 328 1168 480 c 1
 1398 480 l 1
 1327 201 1144 -10 791 -10 c 0
 356 -10 102 276 102 745 c 0
 102 1182 379 1477 794 1477 c 0
 1100 1477 1303 1304 1373 1050 c 1
 1143 1050 l 1
 1101 1182 975 1257 790 1257 c 0
 507 1257 340 1051 340 746 c 0
 340 438 528 210 788 210 c 0
EndSplineSet
EndChar
StartChar: D
Encoding: 38 68 40
Width: 1479
Flags: W
HStem: 0 213<390 882.869> 1237 213<390 887.357>
VStem: 168 222<213 1237> 1143 237<486.989 981.421>
Fore
1380 733 m 0
 1380 147 1038 0 697 0 c 2
 168 0 l 1
 168 1450 l 1
 673 1450 l 2
 1239 1450 1380 1125 1380 733 c 0
675 213 m 2
 969 213 1143 417 1143 736 c 0
 1143 1060 970 1237 670 1237 c 2
 390 1237 l 1
 390 213 l 1
 675 213 l 2
EndSplineSet
EndChar
StartChar: E
Encoding: 39 69 41
Width: 1366
Flags: W
HStem: 0 229<401 1222> 621 230<401 1021> 1218 232<401 1222>
VStem: 162 239<229 621 851 1218>
Fore
162 0 m 1
 162 1450 l 1
 1222 1450 l 1
 1222 1218 l 1
 401 1218 l 1
 401 851 l 1
 1021 851 l 1
 1021 621 l 1
 401 621 l 1
 401 229 l 1
 1222 229 l 1
 1222 0 l 1
 162 0 l 1
EndSplineSet
EndChar
StartChar: F
Encoding: 40 70 42
Width: 1251
Flags: W
HStem: 0 21G<167 406> 621 230<406 1008> 1218 232<406 1158>
VStem: 167 239<0 621 851 1218>
Fore
167 0 m 1
 167 1450 l 1
 1158 1450 l 1
 1158 1218 l 1
 406 1218 l 1
 406 851 l 1
 1008 851 l 1
 1008 621 l 1
 406 621 l 1
 406 0 l 1
 167 0 l 1
EndSplineSet
EndChar
StartChar: G
Encoding: 41 71 43
Width: 1479
Flags: W
HStem: -10 220<601.828 1008.91> 464 220<905 1164> 1236 241<602.934 984.114>
VStem: 102 237<504.483 958.245>
Fore
339 746 m 0
 339 448 513 210 788 210 c 0
 991 216 1157 287 1164 464 c 1
 905 464 l 1
 905 684 l 1
 1404 684 l 1
 1428 229 1226 -13 791 -10 c 0
 352 -10 102 294 102 745 c 0
 102 1175 371 1477 794 1477 c 0
 1113 1477 1301 1300 1373 1050 c 1
 1115 1050 l 1
 1068 1167 948 1236 790 1236 c 0
 550 1236 339 1050 339 746 c 0
EndSplineSet
EndChar
StartChar: H
Encoding: 42 72 44
Width: 1479
Flags: W
HStem: 0 21G<164 404 1074 1314> 619 244<404 1074> 1430 20G<164 404 1074 1314>
VStem: 164 240<0 619 863 1450> 1074 240<0 619 863 1450>
Fore
164 0 m 1
 164 1450 l 1
 404 1450 l 1
 404 863 l 1
 1074 863 l 1
 1074 1450 l 1
 1314 1450 l 1
 1314 0 l 1
 1074 0 l 1
 1074 619 l 1
 404 619 l 1
 404 0 l 1
 164 0 l 1
EndSplineSet
EndChar
StartChar: I
Encoding: 43 73 45
Width: 650
Flags: W
HStem: 0 210<25 205 445 625> 1250 200<25 205 445 625>
VStem: 205 240<210 1250>
Fore
625 210 m 1
 625 0 l 1
 25 0 l 1
 25 210 l 1
 205 210 l 1
 205 1250 l 1
 25 1250 l 1
 25 1450 l 1
 625 1450 l 1
 625 1250 l 1
 445 1250 l 1
 445 210 l 1
 625 210 l 1
EndSplineSet
EndChar
StartChar: J
Encoding: 44 74 46
Width: 1024
Flags: W
HStem: -10 225<366.258 572.504> 1235 215<408 645>
VStem: 64 237<284.719 455> 645 220<299.206 1235>
Fore
468 215 m 0
 583 215 645 328 645 471 c 2
 645 1235 l 1
 408 1235 l 1
 408 1450 l 1
 865 1450 l 1
 865 456 l 2
 865 116 706 -10 463 -10 c 4
 224 -10 64 112 64 455 c 1
 301 455 l 1
 309 260 401 215 468 215 c 0
EndSplineSet
EndChar
StartChar: K
Encoding: 45 75 47
Width: 1366
Flags: W
HStem: 0 21G<150 376 1034.21 6913> 1430 20G<150 376 1001.33 1316>
VStem: 150 226<0 499 825 1450>
Fore
150 0 m 1
 150 1450 l 1
 376 1450 l 1
 376 825 l 1
 1022 1450 l 1
 1316 1450 l 1
 659 806 l 1
 1346 0 l 1
 1053 -1 l 1
 479 610 l 1
 376 499 l 1
 376 0 l 1
 150 0 l 1
EndSplineSet
EndChar
StartChar: L
Encoding: 46 76 48
Width: 1139
Flags: W
HStem: 0 219<380 1060> 1430 20G<150 380>
VStem: 150 230<219 1450>
Fore
150 0 m 1
 150 1450 l 1
 380 1450 l 1
 380 219 l 1
 1060 219 l 1
 1060 0 l 1
 150 0 l 1
EndSplineSet
EndChar
StartChar: M
Encoding: 47 77 49
Width: 1706
Flags: W
HStem: 0 21G<152 372 668.021 1033.98 1330 1550> 1430 20G<152 367.869 1332.16 1550>
VStem: 152 220<0 762> 1330 220<0 762>
Fore
152 0 m 1
 152 1450 l 1
 360 1450 l 1
 851 202 l 1
 1340 1450 l 1
 1550 1450 l 1
 1550 0 l 1
 1330 0 l 1
 1330 762 l 1
 1026 0 l 1
 676 0 l 1
 372 762 l 1
 372 0 l 1
 152 0 l 1
EndSplineSet
EndChar
StartChar: N
Encoding: 48 78 50
Width: 1479
Flags: W
HStem: 0 21G<156 395 1057.13 1311> 1430 20G<156 408.81 1071 1311>
VStem: 156 239<0 975> 1071 240<471 1450>
Fore
156 0 m 1
 156 1450 l 1
 395 1450 l 1
 1071 471 l 1
 1071 1450 l 1
 1311 1450 l 1
 1311 0 l 1
 1071 0 l 1
 395 975 l 1
 395 0 l 1
 156 0 l 1
EndSplineSet
EndChar
StartChar: O
Encoding: 49 79 51
Width: 1593
Flags: W
HStem: -10 230<590.924 1011.13> 1246 232<589.704 1008.36>
VStem: 104 246<473.013 983.044> 1252 244<479.174 987.466>
Fore
800 -10 m 0
 376 -10 104 286 104 714 c 0
 104 1183 355 1474 801 1478 c 0
 1233 1478 1496 1184 1496 731 c 0
 1496 291 1240 -10 800 -10 c 0
803 1246 m 0
 441 1246 350 983 350 712 c 0
 350 411 509 220 800 220 c 0
 1162 220 1252 497 1252 731 c 0
 1252 1043 1099 1246 803 1246 c 0
EndSplineSet
EndChar
StartChar: P
Encoding: 50 80 52
Width: 1366
Flags: W
HStem: 0 21G<158 402> 580 212<402 917.062> 1236 214<402 925.137>
VStem: 158 244<0 580 792 1236> 1023 254<886.992 1150.23>
Fore
1277 1026 m 0
 1277 669 1006 580 728 580 c 2
 402 580 l 1
 402 0 l 1
 158 0 l 1
 158 1450 l 1
 711 1450 l 2
 1147 1450 1277 1280 1277 1026 c 0
1023 1020 m 0
 1023 1193 885 1236 673 1236 c 2
 402 1236 l 1
 402 792 l 1
 677 792 l 2
 945 792 1023 883 1023 1020 c 0
EndSplineSet
EndChar
StartChar: Q
Encoding: 51 81 53
Width: 1659
Flags: W
HStem: -14 189<1335.81 1479.79> -10 174<747.852 1022.42> 298 205<790.691 1021.8> 1251 227<586.309 1015.31>
VStem: 104 233<481.337 984.438> 1262 234<477.864 984.822>
Fore
894 503 m 0x3c
 1058 503 1148 412 1167 392 c 1
 1229 467 1262 585 1262 736 c 0
 1262 1056 1104 1251 802 1251 c 0
 430 1251 337 983 337 717 c 0
 337 463 450 337 560 280 c 1
 598 424 747 503 894 503 c 0x3c
801 1478 m 0
 1233 1478 1496 1177 1496 731 c 0
 1496 474 1436 299 1317 204 c 1
 1334 185 1359 176 1392 175 c 0
 1431 175 1489 192 1533 228 c 1
 1659 90 l 1
 1585 21 1498 -14 1399 -14 c 0xbc
 1291 -14 1208 27 1156 88 c 1
 1039 11 934 -10 800 -10 c 0x7c
 376 -10 104 286 104 714 c 0
 104 1183 355 1474 801 1478 c 0
1050 226 m 1
 1010 273 965 297 914 298 c 0
 856 298 770 272 738 174 c 1
 762 167 790 164 821 164 c 0x7c
 932 164 1015 199 1050 226 c 1
EndSplineSet
EndChar
StartChar: R
Encoding: 52 82 54
Width: 1400
Flags: W
HStem: 0 21G<158 384 1057.9 1387> 580 206<384 663> 1239 211<384 907.112>
VStem: 158 226<0 580 786 1239> 1011 266<881.886 1150.61>
Fore
1277 1026 m 0
 1277 682 1006 611 924 596 c 1
 1387 0 l 1
 1072 0 l 1
 663 580 l 1
 384 580 l 1
 384 0 l 1
 158 0 l 1
 158 1450 l 1
 711 1450 l 2
 1140 1450 1277 1280 1277 1026 c 0
1011 1020 m 0
 1011 1193 870 1239 661 1239 c 2
 384 1239 l 1
 384 786 l 1
 665 786 l 2
 928 786 1011 880 1011 1020 c 0
EndSplineSet
EndChar
StartChar: S
Encoding: 53 83 55
Width: 1366
Flags: W
HStem: -10 224<496.637 914.145> 1250 221<460.452 859.752>
VStem: 92 233<376.398 502> 148 237<980.372 1182.34> 1022 237<307.342 520.524>
Fore
1259 429 m 0xd8
 1259 157 1015 -10 717 -10 c 0
 200 -10 97 291 92 502 c 1
 325 502 l 1xe8
 359 237 602 214 708 214 c 0
 908 214 1022 302 1022 413 c 0
 1022 540 942 570 598 667 c 0
 405 722 148 776 148 1067 c 0
 148 1325 374 1471 664 1471 c 0
 992 1471 1171 1308 1215 1019 c 1
 981 1019 l 1
 951 1173 849 1250 672 1250 c 0
 528 1250 385 1212 385 1080 c 0
 385 962 460 941 873 816 c 0
 1087 754 1259 688 1259 429 c 0xd8
EndSplineSet
EndChar
StartChar: T
Encoding: 54 84 56
Width: 1251
Flags: W
HStem: 0 21G<508 748> 1231 219<48 508 748 1210>
VStem: 508 240<0 1231>
Fore
508 0 m 1
 508 1231 l 1
 48 1231 l 1
 48 1450 l 1
 1210 1450 l 1
 1210 1231 l 1
 748 1231 l 1
 748 0 l 1
 508 0 l 1
EndSplineSet
EndChar
StartChar: U
Encoding: 55 85 57
Width: 1479
Flags: W
HStem: -10 250<559.076 921.8> 1430 20G<161 411 1065 1314>
VStem: 161 250<387.228 567 567 1450> 1065 249<385.584 1450>
Fore
737 240 m 0
 953 240 1065 365 1065 568 c 2
 1065 1450 l 1
 1314 1450 l 1
 1314 567 l 2
 1314 182 1123 -10 741 -10 c 0
 277 -10 161 262 161 567 c 2
 161 1450 l 1
 411 1450 l 1
 411 568 l 2
 411 354 538 240 737 240 c 0
EndSplineSet
EndChar
StartChar: V
Encoding: 56 86 58
Width: 1366
Flags: W
HStem: 0 21G<569.166 783.917> 1430 20G<9 350.803 1015.93 1350>
Fore
577 0 m 1
 9 1450 l 1
 344 1450 l 1
 677 471 l 1
 1023 1450 l 1
 1350 1450 l 1
 776 0 l 1
 577 0 l 1
EndSplineSet
EndChar
StartChar: W
Encoding: 57 87 59
Width: 1933
Flags: W
HStem: 0 21G<361.297 624.867 1292.23 1570.57> 1430 20G<25 284.027 815.362 1098.81 1621.34 1897>
Fore
366 0 m 1
 25 1450 l 1
 279 1450 l 1
 513 519 l 1
 822 1450 l 1
 1092 1450 l 1
 1409 519 l 1
 1626 1450 l 1
 1897 1450 l 1
 1566 0 l 1
 1299 0 l 1
 961 999 l 1
 618 0 l 1
 366 0 l 1
EndSplineSet
EndChar
StartChar: X
Encoding: 58 88 60
Width: 1366
Flags: W
HStem: 0 21G<9 332.309 1029.69 1353> 1430 20G<76 398.343 989.527 1313>
Fore
9 0 m 1
 494 756 l 1
 76 1450 l 1
 386 1450 l 1
 681 972 l 1
 1003 1450 l 1
 1313 1450 l 1
 868 756 l 1
 1353 0 l 1
 1043 0 l 1
 681 544 l 1
 319 0 l 1
 9 0 l 1
EndSplineSet
EndChar
StartChar: Y
Encoding: 59 89 61
Width: 1366
Flags: W
HStem: 0 21G<526 810> 1431 20G<6 338.128 1017.16 1350>
VStem: 526 284<0 621>
Fore
526 0 m 1
 526 621 l 1
 6 1451 l 1
 326 1451 l 1
 668 887 l 1
 1030 1451 l 1
 1350 1451 l 1
 810 621 l 1
 810 0 l 1
 526 0 l 1
EndSplineSet
EndChar
StartChar: Z
Encoding: 60 90 62
Width: 1251
Flags: W
HStem: 0 230<375 1200> 1220 230<45 885>
Fore
41 0 m 1
 41 237 l 1
 885 1220 l 1
 45 1220 l 1
 45 1450 l 1
 1213 1450 l 1
 1213 1220 l 1
 375 230 l 1
 1200 230 l 1
 1200 0 l 1
 41 0 l 1
EndSplineSet
EndChar
StartChar: bracketleft
Encoding: 61 91 63
Width: 569
Flags: W
HStem: -407 188<359 536> 1278 188<359 536>
VStem: 139 220<-219 1278>
Fore
139 -407 m 1
 139 1466 l 1
 536 1466 l 1
 536 1278 l 1
 359 1278 l 1
 359 -219 l 1
 536 -219 l 1
 536 -407 l 1
 139 -407 l 1
EndSplineSet
EndChar
StartChar: backslash
Encoding: 62 92 64
Width: 569
Flags: W
VStem: -39 648<-25 1491>
Fore
386 -25 m 1
 -39 1491 l 1
 185 1491 l 1
 609 -25 l 1
 386 -25 l 1
EndSplineSet
EndChar
StartChar: bracketright
Encoding: 63 93 65
Width: 569
Flags: W
HStem: -407 188<39 218> 1277 189<39 218>
VStem: 218 218<-219 1277>
Fore
436 -407 m 1
 39 -407 l 1
 39 -219 l 1
 218 -219 l 1
 218 1277 l 1
 39 1277 l 1
 39 1466 l 1
 436 1466 l 1
 436 -407 l 1
EndSplineSet
EndChar
StartChar: asciicircum
Encoding: 64 94 66
Width: 961
Flags: W
HStem: 690 801<288 387>
VStem: 54 853<690 690>
Fore
288 690 m 1
 54 690 l 1
 387 1491 l 1
 572 1491 l 1
 907 690 l 1
 676 690 l 1
 479 1209 l 1
 288 690 l 1
EndSplineSet
EndChar
StartChar: underscore
Encoding: 65 95 67
Width: 1139
Flags: W
HStem: -427 190<-31 1162>
Fore
-31 -427 m 1
 -31 -237 l 1
 1162 -237 l 1
 1162 -427 l 1
 -31 -427 l 1
EndSplineSet
EndChar
StartChar: grave
Encoding: 66 96 68
Width: 682
Flags: W
HStem: 1454 20G<60 369.643>
VStem: 60 435<1194 1474>
Fore
495 1194 m 1
 291 1194 l 1
 60 1474 l 1
 360 1474 l 1
 495 1194 l 1
EndSplineSet
EndChar
StartChar: a
Encoding: 67 97 69
Width: 1139
Flags: W
HStem: -24 179<345.362 660.429> 876 210<396.82 716.445>
VStem: 74 228<196.873 379.145> 775 220<350.875 487 674 817.064>
Fore
995 445 m 2
 995 153 1000 93 1052 0 c 1
 814 0 l 1
 803 31 795 63 792 96 c 1
 685 6 579 -24 437 -24 c 0
 149 -24 74 155 74 280 c 0
 74 488 230 579 492 612 c 0
 600 625 695 645 776 674 c 1
 774 721 l 2
 761 828 682 876 558 876 c 0
 422 876 342 809 318 729 c 1
 105 759 l 1
 152 982 304 1086 584 1086 c 0
 864 1086 995 1008 995 685 c 2
 995 445 l 2
302 289 m 0
 302 182 412 155 487 155 c 0
 636 155 715 225 750 291 c 0
 767 323 775 371 775 434 c 2
 775 487 l 1
 554 406 302 461 302 289 c 0
EndSplineSet
EndChar
StartChar: b
Encoding: 68 98 70
Width: 1139
Flags: W
HStem: -10 208<453.188 725.724> 870 216<464.907 732.003> 1446 20G<134 358>
VStem: 134 224<990 1466> 134 211<0 84 321.628 727.424> 848 207<334.312 746.683>
Fore
596 -10 m 0xf4
 445 -10 362 67 345 84 c 1
 345 0 l 1
 134 0 l 1xec
 134 1466 l 1
 358 1466 l 1
 358 990 l 1
 436 1054 518 1086 605 1086 c 0
 892 1086 1055 852 1055 547 c 0
 1055 225 895 -10 596 -10 c 0xf4
589 870 m 0
 441 870 346 715 346 538 c 0
 346 260 488 198 582 198 c 0
 754 200 848 331 848 531 c 0
 848 716 780 870 589 870 c 0
EndSplineSet
EndChar
StartChar: c
Encoding: 69 99 71
Width: 1024
Flags: W
HStem: -10 210<420.241 716.367> 879 207<426.33 712.336>
VStem: 80 225<329.112 740.434> 788 217<274.552 403 696 799.343>
Fore
561 200 m 0
 701 200 785 266 788 403 c 1
 1005 403 l 1
 994 62 740 -10 563 -10 c 0
 271 -9 80 204 80 527 c 0
 80 858 245 1086 564 1086 c 0
 825 1086 1003 929 1003 696 c 1
 788 696 l 1
 786 807 682 879 571 879 c 0
 358 879 305 676 305 532 c 0
 305 347 386 200 561 200 c 0
EndSplineSet
EndChar
StartChar: d
Encoding: 70 100 72
Width: 1139
Flags: W
HStem: -10 208<397.276 669.812> 870 216<392.156 658.314> 1446 20G<765 989>
VStem: 68 207<334.106 740.781> 765 224<990 1466> 778 211<0 84 321.628 733.909>
Fore
68 547 m 0xf4
 68 862 234 1086 518 1086 c 0
 605 1086 687 1054 765 990 c 1
 765 1466 l 1
 989 1466 l 1xf8
 989 0 l 1
 778 0 l 1
 778 84 l 1
 761 67 678 -10 527 -10 c 0
 228 -10 68 224 68 547 c 0xf4
541 198 m 0
 635 198 777 260 777 538 c 0
 777 715 683 870 534 870 c 0
 430 870 275 814 275 531 c 0
 275 331 369 200 541 198 c 0
EndSplineSet
EndChar
StartChar: e
Encoding: 71 101 73
Width: 1139
Flags: W
HStem: -10 214<435.256 746.328> 485 190<318 816> 875 211<416.902 732.583>
Fore
582 204 m 0
 762 204 799 307 807 333 c 1
 1048 333 l 1
 1006 121 839 -10 581 -10 c 0
 249 -10 75 191 75 522 c 0
 75 861 250 1086 571 1086 c 0
 876 1086 1053 869 1055 539 c 0
 1055 521 1054 503 1053 485 c 5
 312 485 l 1
 323 327 420 204 582 204 c 0
816 675 m 1
 802 807 720 875 572 875 c 0
 426 875 326 784 318 675 c 1
 816 675 l 1
EndSplineSet
EndChar
StartChar: f
Encoding: 72 102 74
Width: 569
Flags: W
HStem: 0 21G<153 380> 757 198<19 153 380 536> 1304 211<416.253 561.214>
VStem: 153 227<0 757 955 1267.7>
Fore
524 1304 m 0
 438 1304 380 1260 380 1121 c 2
 380 955 l 1
 536 955 l 1
 536 757 l 1
 380 757 l 1
 380 0 l 1
 153 0 l 1
 153 757 l 1
 19 757 l 1
 19 955 l 1
 153 955 l 1
 153 1175 l 2
 153 1447 330 1515 462 1515 c 0
 529 1515 589 1506 640 1488 c 1
 640 1277 l 1
 580 1296 559 1304 524 1304 c 0
EndSplineSet
EndChar
StartChar: g
Encoding: 73 103 75
Width: 1139
Flags: W
HStem: -435 219<371.178 684.401> 0 247<406.741 676.302> 839 247<405.559 670.41>
VStem: 66 249<343.363 740.864> 774 228<-116.854 75> 836 166<974 1062>
Fore
522 -435 m 0xf4
 153 -427 102 -236 102 -74 c 1
 315 -74 l 1
 315 -127 370 -216 521 -216 c 0
 698 -216 774 -121 774 75 c 1xf8
 711 25 628 0 525 0 c 0
 237 0 66 222 66 537 c 0
 66 876 250 1086 526 1086 c 0
 667 1086 770 1049 836 974 c 1
 836 1062 l 1
 1002 1062 l 1
 1002 144 l 2
 1002 -330 842 -435 522 -435 c 0xf4
538 839 m 0
 360 839 315 677 315 546 c 0
 315 347 390 247 540 247 c 0
 685 247 757 345 757 541 c 0
 757 800 626 839 538 839 c 0
EndSplineSet
EndChar
StartChar: h
Encoding: 74 104 76
Width: 1139
Flags: W
HStem: 0 21G<135 365 770 1000> 832 263<474.49 721.603> 1446 20G<135 365>
VStem: 135 230<0 706.351 1008 1466> 770 230<0 780.642>
Fore
596 832 m 0
 445 832 365 672 365 532 c 2
 365 0 l 1
 135 0 l 1
 135 1466 l 1
 365 1466 l 1
 365 1008 l 1
 416 1066 495 1095 600 1095 c 0
 920 1095 1000 858 1000 673 c 2
 1000 0 l 1
 770 0 l 1
 770 624 l 2
 770 786 700 832 596 832 c 0
EndSplineSet
EndChar
StartChar: i
Encoding: 75 105 77
Width: 455
Flags: W
HStem: 0 21G<106 346> 1042 20G<106 346> 1218 248<111 342>
VStem: 111 231<0 1062 1218 1466>
Fore
111 1218 m 1
 111 1466 l 1
 342 1466 l 1
 342 1218 l 1
 111 1218 l 1
106 0 m 1
 106 1062 l 1
 346 1062 l 1
 346 0 l 1
 106 0 l 1
EndSplineSet
EndChar
StartChar: j
Encoding: 76 106 78
Width: 455
Flags: W
HStem: -428 215<-58.6234 75.2804> 1042 20G<112 340> 1220 246<112 340>
VStem: 112 228<-175.048 1062 1220 1466>
Fore
112 1220 m 1
 112 1466 l 1
 340 1466 l 1
 340 1220 l 1
 112 1220 l 1
340 -58 m 2
 340 -336 230 -428 65 -428 c 0
 8 -428 -45 -423 -94 -412 c 1
 -94 -205 l 1
 -59 -210 -38 -213 -29 -213 c 0
 56 -213 112 -176 112 -20 c 2
 112 1062 l 1
 340 1062 l 1
 340 -58 l 2
EndSplineSet
EndChar
StartChar: k
Encoding: 77 107 79
Width: 1024
Flags: W
HStem: 0 21G<136 356 727.727 1016> 1042 20G<678.011 975> 1446 20G<136 356>
VStem: 136 220<0 390 684 1466>
Fore
136 0 m 1
 136 1466 l 1
 356 1466 l 1
 356 684 l 1
 696 1062 l 1
 975 1062 l 1
 592 636 l 1
 1016 0 l 1
 740 0 l 1
 443 484 l 1
 356 390 l 1
 356 0 l 1
 136 0 l 1
EndSplineSet
EndChar
StartChar: l
Encoding: 78 108 80
Width: 455
Flags: W
HStem: 0 21G<104 340> 1446 20G<104 340>
VStem: 104 236<0 1466>
Fore
104 0 m 1
 104 1466 l 1
 340 1466 l 1
 340 0 l 1
 104 0 l 1
EndSplineSet
EndChar
StartChar: m
Encoding: 79 109 81
Width: 1706
Flags: W
HStem: 0 21G<135 362 742 986 1356 1574> 842 244<446.283 702.11 1054.17 1308.13>
VStem: 135 227<0 751.625> 742 244<0 771.504> 1356 218<0 796.881>
Fore
578 842 m 0
 405 842 362 698 362 551 c 2
 362 0 l 1
 135 0 l 1
 135 1062 l 1
 343 1062 l 1
 343 978 l 1
 411 1050 503 1086 618 1086 c 0
 814 1086 896 994 918 948 c 1
 979 1047 1126 1086 1246 1086 c 0
 1508 1086 1574 912 1574 729 c 2
 1574 0 l 1
 1356 0 l 1
 1356 669 l 2
 1351 782 1301 839 1206 842 c 0
 1094 842 986 797 986 617 c 2
 986 0 l 1
 742 0 l 1
 742 690 l 2
 742 812 645 842 578 842 c 0
EndSplineSet
EndChar
StartChar: n
Encoding: 80 110 82
Width: 1139
Flags: W
HStem: 0 21G<135 368 776 1000> 828 267<457.901 723.853>
VStem: 135 233<0 726.38 1012 1064> 776 224<0 771.532>
Fore
596 828 m 0
 414 828 368 670 368 532 c 2
 368 0 l 1
 135 0 l 1
 135 1064 l 1
 368 1064 l 1
 368 1012 l 1
 435 1074 501 1095 600 1095 c 0
 920 1095 1000 858 1000 673 c 2
 1000 0 l 1
 776 0 l 1
 776 624 l 2
 776 779 704 828 596 828 c 0
EndSplineSet
EndChar
StartChar: o
Encoding: 81 111 83
Width: 1139
Flags: W
HStem: -11 217<413.351 710.862> 864 222<423.832 704.533>
VStem: 68 241<325.313 739.391> 821 242<327.831 735.451>
Fore
566 -11 m 0
 244 -11 68 189 68 531 c 0
 68 876 247 1086 566 1086 c 0
 876 1086 1063 877 1063 546 c 0
 1063 113 820 -11 566 -11 c 0
566 864 m 0
 360 864 309 682 309 529 c 0
 309 249 463 206 566 206 c 0
 770 206 821 374 821 534 c 0
 821 808 668 864 566 864 c 0
EndSplineSet
EndChar
StartChar: p
Encoding: 82 112 84
Width: 1139
Flags: W
HStem: -10 216<450.848 717.107> 878 208<438.806 712.098>
VStem: 120 211<342.091 753.928 992 1076> 120 224<-390 86> 834 207<335.842 741.471>
Fore
1041 529 m 0xe8
 1041 216 876 -10 591 -10 c 0
 504 -10 422 22 344 86 c 1
 344 -390 l 1
 120 -390 l 1xd8
 120 1076 l 1
 331 1076 l 1
 331 992 l 1
 353 1010 l 2
 416 1061 492 1086 582 1086 c 0
 881 1086 1041 851 1041 529 c 0xe8
569 878 m 0
 474 878 332 815 332 538 c 0
 332 361 426 206 576 206 c 0
 679 206 834 263 834 545 c 0
 834 744 741 876 569 878 c 0
EndSplineSet
EndChar
StartChar: q
Encoding: 83 113 85
Width: 1139
Flags: W
HStem: -10 216<411.323 677.093> 878 208<416.276 688.812>
VStem: 87 207<335.219 741.688> 784 224<-390 86> 797 211<348.576 754.372 992 1076>
Fore
546 1086 m 0xf0
 697 1086 780 1009 797 992 c 1
 797 1076 l 1
 1008 1076 l 1xe8
 1008 -390 l 1
 784 -390 l 1
 784 86 l 1
 706 22 624 -10 537 -10 c 0
 254 -10 87 214 87 529 c 0
 87 851 247 1086 546 1086 c 0xf0
553 206 m 0
 701 206 796 361 796 538 c 0
 796 816 654 878 560 878 c 0
 388 876 294 745 294 545 c 0
 294 262 449 206 553 206 c 0
EndSplineSet
EndChar
StartChar: r
Encoding: 84 114 86
Width: 682
Flags: W
HStem: 0 21G<133 380> 828 249<448.034 657.521>
VStem: 133 229<947 1062> 133 247<0 638.004>
Fore
133 0 m 1xd0
 133 1062 l 1
 362 1062 l 1
 362 947 l 1xe0
 435 1068 486 1077 580 1077 c 0
 636 1077 675 1051 710 1028 c 1
 648 789 l 1
 622 803 607 828 565 828 c 0
 369 828 380 603 380 484 c 2
 380 0 l 1
 133 0 l 1xd0
EndSplineSet
EndChar
StartChar: s
Encoding: 85 115 87
Width: 1024
Flags: W
HStem: -11 212<361.926 668.034> 875 211<353.243 645.878>
VStem: 93 236<696.917 844.424> 710 235<241.669 402.26>
Fore
945 325 m 0
 945 114 758 -11 517 -11 c 0
 154 -11 73 210 63 358 c 1
 291 358 l 1
 304 257 389 201 516 201 c 0
 645 201 710 265 710 306 c 0
 710 409 649 420 523 443 c 0
 272 489 93 540 93 780 c 0
 93 975 260 1086 484 1086 c 0
 839 1086 903 895 905 764 c 1
 679 764 l 1
 672 840 606 875 497 875 c 0
 372 875 329 820 329 783 c 0
 329 690 398 676 517 654 c 0
 826 597 945 524 945 325 c 0
EndSplineSet
EndChar
StartChar: t
Encoding: 86 116 88
Width: 569
Flags: W
HStem: -13 204<389.211 506.752> 892 196<18 140 372 497>
VStem: 140 232<205.9 892 1088 1433>
Fore
528 199 m 1
 554 2 l 1
 506 -8 456 -13 406 -13 c 0
 146 -13 140 129 140 311 c 2
 140 892 l 1
 18 892 l 1
 18 1088 l 1
 140 1088 l 1
 140 1433 l 1
 372 1433 l 1
 372 1088 l 1
 497 1088 l 1
 497 892 l 1
 372 892 l 1
 372 301 l 2
 372 238 391 191 474 191 c 0
 475 191 493 194 528 199 c 1
EndSplineSet
EndChar
StartChar: u
Encoding: 87 117 89
Width: 1139
Flags: W
HStem: -10 253<402.459 643.636> 1065 20G<104 330 726 969>
VStem: 104 226<316.902 412 412 1085> 726 243<299.607 1085>
Fore
534 243 m 0
 688 243 726 342 726 456 c 2
 726 1085 l 1
 969 1085 l 1
 969 0 l 1
 789 0 l 1
 789 64 l 1
 728 -2 576 -10 537 -10 c 0
 191 -10 104 210 104 412 c 2
 104 1085 l 1
 330 1085 l 1
 330 461 l 2
 330 287 446 243 534 243 c 0
EndSplineSet
EndChar
StartChar: v
Encoding: 88 118 90
Width: 1024
Flags: W
HStem: 0 21G<421.411 606.552> 1042 20G<26 275.179 753.162 1000>
VStem: 26 974<1062 1062>
Fore
429 0 m 1
 26 1062 l 1
 268 1062 l 1
 520 360 l 1
 760 1062 l 1
 1000 1062 l 1
 599 0 l 1
 429 0 l 1
EndSplineSet
EndChar
StartChar: w
Encoding: 89 119 91
Width: 1479
Flags: W
HStem: 0 21G<290.539 549.799 935.5 1204.95> 1042 20G<6 260.814 641.582 838.791 1231.21 1463>
Fore
296 0 m 1
 6 1062 l 1
 256 1062 l 1
 424 364 l 1
 648 1062 l 1
 832 1062 l 1
 1069 364 l 1
 1236 1062 l 1
 1463 1062 l 1
 1200 0 l 1
 956 0 l 1
 915 149 843 374 740 676 c 1
 544 0 l 1
 296 0 l 1
EndSplineSet
EndChar
StartChar: x
Encoding: 90 120 92
Width: 1024
Flags: W
HStem: 0 21G<15 295.978 719.696 1009> 1042 20G<44 335.006 687.359 981>
VStem: 15 994<0 0>
Fore
15 0 m 1
 346 552 l 1
 44 1062 l 1
 324 1062 l 1
 499 744 l 1
 700 1062 l 1
 981 1062 l 1
 657 562 l 1
 1009 0 l 1
 732 0 l 1
 505 369 l 1
 284 0 l 1
 15 0 l 1
EndSplineSet
EndChar
StartChar: y
Encoding: 91 121 93
Width: 1024
Flags: W
HStem: -422 216<147.817 358.955> 1042 20G<33 298.754 737.652 1006>
VStem: 33 973<1062 1062>
Fore
214 -206 m 0
 330 -206 417 -143 417 -54 c 0
 417 -37 414 -19 408 0 c 2
 33 1062 l 1
 292 1062 l 1
 525 372 l 1
 744 1062 l 1
 1006 1062 l 1
 624 0 l 1
 599 -240 472 -422 239 -422 c 0
 197 -422 157 -421 127 -409 c 1
 107 -192 l 1
 141 -201 177 -206 214 -206 c 0
EndSplineSet
EndChar
StartChar: z
Encoding: 92 122 94
Width: 1024
Flags: W
HStem: 0 212<344 980> 864 198<60 664>
Fore
40 0 m 1
 40 212 l 1
 664 864 l 1
 60 864 l 1
 60 1062 l 1
 948 1062 l 1
 948 864 l 1
 344 212 l 1
 980 212 l 1
 980 0 l 1
 40 0 l 1
EndSplineSet
EndChar
StartChar: braceleft
Encoding: 93 123 95
Width: 684
Flags: W
HStem: 449 163<57 186.32>
VStem: 265 219<-82.7727 359.986 700.646 1162.94>
Fore
454 -418 m 4
 290 -390 265 -230 265 77 c 4
 265 275 251 445 57 449 c 5
 57 612 l 5
 251 616 264 785 264 971 c 4
 264 1215 250 1405 438 1475 c 4
 467 1486 515 1491 580 1491 c 6
 636 1491 l 5
 636 1280 l 5
 595 1280 l 6
 555 1280 547 1272 528 1254 c 4
 486 1218 484 1149 484 981 c 4
 481 729 446 618 308 530 c 5
 452 445 484 290 484 57 c 4
 483 -52 490 -170 536 -196 c 4
 549 -203 569 -212 605 -212 c 6
 636 -212 l 5
 636 -431 l 5
 580 -431 l 6
 532 -431 491 -425 454 -418 c 4
EndSplineSet
EndChar
StartChar: bar
Encoding: 94 124 96
Width: 532
Flags: W
VStem: 140 250<-431 1491>
Fore
140 -431 m 1
 140 1491 l 1
 390 1491 l 1
 390 -431 l 1
 140 -431 l 1
EndSplineSet
EndChar
StartChar: braceright
Encoding: 95 125 97
Width: 684
Flags: W
HStem: 449 163<496.68 626>
VStem: 199 219<-82.7727 57 57 359.986 700.646 1162.94>
Fore
229 -418 m 0
 393 -390 418 -230 418 77 c 0
 418 275 432 445 626 449 c 1
 626 612 l 1
 432 616 419 785 419 971 c 0
 419 1215 433 1405 245 1475 c 0
 216 1486 168 1491 103 1491 c 2
 47 1491 l 1
 47 1280 l 1
 88 1280 l 2
 128 1280 136 1272 155 1254 c 0
 197 1218 199 1149 199 981 c 0
 202 729 237 618 375 530 c 1
 231 445 199 290 199 57 c 0
 200 -52 193 -170 147 -196 c 0
 134 -203 114 -212 78 -212 c 2
 47 -212 l 1
 47 -431 l 1
 103 -431 l 2
 151 -431 192 -425 229 -418 c 0
EndSplineSet
EndChar
StartChar: asciitilde
Encoding: 96 126 98
Width: 1196
Flags: W
HStem: 531 237<688.953 994.271> 665 237<197.32 520.352>
VStem: 87 1023<665 768 529 905>
Fore
348 665 m 0x60
 246 665 178 617 87 529 c 1
 87 782 l 1
 158 862 250 902 365 902 c 0x60
 559 902 716 768 852 768 c 0
 955 768 1055 846 1110 905 c 1
 1110 645 l 1
 1025 566 944 531 833 531 c 0xa0
 635 531 510 665 348 665 c 0x60
EndSplineSet
EndChar
StartChar: exclamdown
Encoding: 98 161 100
Width: 680
Flags: W
HStem: 0 21G<228 452> 1059 20G<255.481 422.556> 1278 211<238 442>
VStem: 228 224<0 220.979> 238 204<1278 1489> 256 166<858.021 1079>
Fore
442 1278 m 1xe8
 238 1278 l 1
 238 1489 l 1
 442 1489 l 1
 442 1278 l 1xe8
452 0 m 1xf0
 228 0 l 1xf0
 256 1079 l 1
 422 1079 l 1xe4
 452 0 l 1xf0
EndSplineSet
EndChar
StartChar: cent
Encoding: 99 162 101
Width: 1118
Flags: W
HStem: 1455 20G<557 671>
VStem: 114 193<320.266 797.956> 557 114<-361 1 146 971 1116 1475>
Fore
975 83 m 1
 807 5 714 3 671 1 c 1
 671 -361 l 1
 557 -361 l 1
 557 2 l 1
 256 38 114 249 114 557 c 0
 114 878 281 1083 557 1115 c 1
 557 1475 l 1
 671 1475 l 1
 671 1116 l 1
 794 1112 903 1074 975 1037 c 1
 975 837 l 1
 965 837 l 1
 820 958 713 971 671 977 c 1
 671 141 l 1
 704 144 821 159 965 281 c 1
 975 281 l 1
 975 83 l 1
557 971 m 1
 494 960 307 907 307 557 c 0
 307 209 495 157 557 146 c 1
 557 971 l 1
EndSplineSet
EndChar
StartChar: sterling
Encoding: 100 163 102
Width: 1118
Flags: W
HStem: 0 171<261 1031> 613 138<130 291 483 847> 1351 167<577.589 865.532>
VStem: 291 192<367.797 613 751 1244.02>
Fore
483 552 m 2
 483 330 322 218 261 182 c 1
 261 171 l 1
 1031 171 l 1
 1031 0 l 1
 89 0 l 1
 89 207 l 1
 253 256 291 398 291 613 c 1
 130 613 l 1
 130 751 l 1
 291 751 l 1
 291 1071 l 2
 291 1340 459 1518 708 1518 c 0
 789 1518 838 1516 1001 1470 c 1
 1001 1264 l 1
 991 1264 l 1
 903 1325 806 1351 727 1351 c 0
 553 1351 483 1232 483 1052 c 2
 483 751 l 1
 847 751 l 1
 847 613 l 1
 483 613 l 1
 483 552 l 2
EndSplineSet
EndChar
StartChar: currency
Encoding: 101 164 103
Width: 1118
Flags: W
HStem: 326 138<439.532 679.685> 858 138<470.375 680.151>
VStem: 225 143<568.936 785.003> 752 144<570.271 787.234>
Fore
896 661 m 0
 896 608 881 545 843 486 c 1
 1057 272 l 1
 951 166 l 1
 737 378 l 1
 674 340 631 326 560 326 c 0
 490 326 426 353 385 379 c 1
 170 164 l 1
 65 273 l 1
 277 486 l 1
 240 546 225 613 225 661 c 0
 225 730 249 788 278 835 c 1
 65 1051 l 1
 172 1157 l 1
 386 944 l 1
 445 982 508 996 560 996 c 0
 630 996 692 971 736 945 c 1
 948 1157 l 1
 1057 1052 l 1
 843 836 l 1
 878 780 896 731 896 661 c 0
560 464 m 0
 660 464 752 547 752 661 c 0
 752 772 663 858 560 858 c 0
 460 858 368 775 368 661 c 0
 368 550 457 464 560 464 c 0
EndSplineSet
EndChar
StartChar: yen
Encoding: 102 165 104
Width: 1118
Flags: W
HStem: 0 21G<465 653> 440 138<125 465 653 993>
VStem: 467 184<0 440 578 657>
Fore
1059 1489 m 1
 651 678 l 1
 651 578 l 1
 993 578 l 1
 993 440 l 1
 653 440 l 1
 653 0 l 1
 465 0 l 1
 465 440 l 1
 125 440 l 1
 125 578 l 1
 467 578 l 1
 467 657 l 1
 56 1489 l 1
 266 1489 l 1
 560 850 l 1
 858 1489 l 1
 1059 1489 l 1
EndSplineSet
EndChar
StartChar: brokenbar
Encoding: 103 166 105
Width: 783
Flags: W
VStem: 308 167<-392 406 758 1556>
Fore
475 758 m 1
 308 758 l 1
 308 1556 l 1
 475 1556 l 1
 475 758 l 1
475 -392 m 1
 308 -392 l 1
 308 406 l 1
 475 406 l 1
 475 -392 l 1
EndSplineSet
EndChar
StartChar: section
Encoding: 104 167 106
Width: 1118
Flags: W
HStem: -385 165<278.47 689.964> 1355 164<421.235 769.375>
VStem: 119 189<446.034 666.525> 148 192<1053.55 1281.3> 776 193<-147.719 83.4846> 810 188<430.026 688.913>
Fore
667 315 m 1xe4
 700 335 810 411 810 555 c 0
 810 711 707 745 549 788 c 2
 450 819 l 1
 324 741 308 624 308 579 c 0
 308 444 385 402 492 369 c 2
 667 315 l 1xe4
490 -385 m 0
 368 -385 263 -360 172 -327 c 1
 172 -133 l 1
 182 -133 l 1
 245 -166 370 -220 509 -220 c 0
 618 -220 776 -183 776 -36 c 0
 776 76 711 121 594 154 c 2
 460 192 l 2
 287 242 119 308 119 533 c 0xe8
 119 611 144 752 318 858 c 1
 318 865 l 1
 249 902 148 978 148 1147 c 0
 148 1320 268 1519 628 1519 c 0
 755 1519 848 1497 946 1462 c 1
 946 1268 l 1
 936 1268 l 1
 765 1354 660 1355 607 1355 c 0
 470 1355 340 1302 340 1176 c 0
 340 1036 430 1000 657 942 c 0
 863 887 998 805 998 601 c 0xd4
 998 516 973 381 799 277 c 1
 799 270 l 1
 872 231 969 158 969 -10 c 0xc8
 969 -160 866 -385 490 -385 c 0
EndSplineSet
EndChar
StartChar: dieresis
Encoding: 105 168 107
Width: 1118
Flags: W
HStem: 1304 195<253 454 666 867>
VStem: 253 201<1304 1499> 666 201<1304 1499>
Fore
867 1304 m 1
 666 1304 l 1
 666 1499 l 1
 867 1499 l 1
 867 1304 l 1
454 1304 m 1
 253 1304 l 1
 253 1499 l 1
 454 1499 l 1
 454 1304 l 1
EndSplineSet
EndChar
StartChar: copyright
Encoding: 106 169 108
Width: 1902
Flags: W
HStem: -210 110<697.445 1205.56> 180 147<833.888 1160.54> 996 147<831.454 1159.17> 1409 110<697.946 1205.06>
VStem: 86 117<390.494 919.32> 531 185<454.683 870.14> 1701 115<390.494 919.32>
Fore
1816 655 m 0
 1816 416 1732 212 1562 44 c 0
 1394 -126 1190 -210 951 -210 c 0
 712 -210 508 -126 340 44 c 0
 170 212 86 416 86 655 c 0
 86 894 170 1097 340 1266 c 0
 508 1435 712 1519 951 1519 c 0
 1190 1519 1394 1435 1562 1266 c 0
 1732 1097 1816 894 1816 655 c 0
1701 655 m 0
 1701 864 1628 1042 1482 1188 c 0
 1335 1336 1159 1409 952 1409 c 0
 745 1409 569 1336 422 1188 c 0
 276 1042 203 864 203 655 c 0
 203 446 276 268 422 121 c 0
 569 -26 745 -100 952 -100 c 0
 1159 -100 1335 -26 1482 121 c 0
 1628 268 1701 446 1701 655 c 0
986 327 m 0
 1124 327 1238 416 1258 434 c 1
 1274 434 l 1
 1274 255 l 1
 1136 194 1076 180 982 180 c 0
 781 180 531 276 531 660 c 0
 531 973 718 1143 982 1143 c 0
 1099 1143 1202 1106 1274 1070 c 1
 1274 889 l 1
 1258 889 l 1
 1203 937 1095 996 986 996 c 0
 878 996 716 948 716 660 c 0
 716 375 878 327 986 327 c 0
EndSplineSet
EndChar
StartChar: ordfeminine
Encoding: 107 170 109
Width: 1010
Flags: W
HStem: 541 155<326.931 504.762> 1365 154<326.813 663.108>
VStem: 114 172<736.89 960.686> 708 166<566 657 802 1045 1184 1319.56>
Fore
483 1519 m 0
 778 1519 874 1389 874 1194 c 2
 874 566 l 1
 708 566 l 1
 708 657 l 1
 657 618 l 2
 559 548 472 541 404 541 c 0
 238 541 114 662 114 839 c 0
 114 1115 340 1166 708 1184 c 1
 708 1203 l 2
 708 1333 631 1365 482 1365 c 0
 425 1365 368 1361 204 1304 c 1
 189 1304 l 1
 189 1474 l 1
 221 1484 365 1519 483 1519 c 0
461 696 m 0
 509 696 586 702 708 802 c 1
 708 1045 l 1
 500 1030 286 1031 286 849 c 0
 286 770 323 696 461 696 c 0
EndSplineSet
EndChar
StartChar: guillemotleft
Encoding: 108 171 110
Width: 1174
Flags: W
HStem: 162 980<613 613>
VStem: 103 940<191 608>
Fore
1043 191 m 1
 555 610 l 1
 555 695 l 1
 1043 1113 l 1
 1043 925 l 1
 726 652 l 1
 1043 379 l 1
 1043 191 l 1
613 162 m 1
 103 608 l 1
 103 697 l 1
 613 1142 l 1
 613 946 l 1
 282 652 l 1
 613 358 l 1
 613 162 l 1
EndSplineSet
EndChar
StartChar: logicalnot
Encoding: 109 172 111
Width: 1490
Flags: W
HStem: 602 160<157 1152>
VStem: 1152 171<57 602>
Fore
1323 57 m 1
 1152 57 l 1
 1152 602 l 1
 157 602 l 1
 157 762 l 1
 1323 762 l 1
 1323 57 l 1
EndSplineSet
EndChar
StartChar: registered
Encoding: 111 174 113
Width: 1902
Flags: W
HStem: -210 110<697.445 1205.56> 570 126<815 938> 1005 125<815 1042.01> 1409 110<697.946 1205.06>
VStem: 86 117<390.494 919.32> 650 165<215 570 696 1005> 1120 182<743.168 969.525> 1701 115<390.494 919.32>
Fore
1816 655 m 0
 1816 416 1732 212 1562 44 c 0
 1394 -126 1190 -210 951 -210 c 0
 712 -210 508 -126 340 44 c 0
 170 212 86 416 86 655 c 0
 86 894 170 1097 340 1266 c 0
 508 1435 712 1519 951 1519 c 0
 1190 1519 1394 1435 1562 1266 c 0
 1732 1097 1816 894 1816 655 c 0
1701 655 m 0
 1701 864 1628 1042 1482 1188 c 0
 1335 1336 1159 1409 952 1409 c 0
 745 1409 569 1336 422 1188 c 0
 276 1042 203 864 203 655 c 0
 203 446 276 268 422 121 c 0
 569 -26 745 -100 952 -100 c 0
 1159 -100 1335 -26 1482 121 c 0
 1628 268 1701 446 1701 655 c 0
1302 879 m 0
 1302 773 1253 676 1102 615 c 1
 1448 215 l 1
 1221 215 l 1
 938 570 l 1
 815 570 l 1
 815 215 l 1
 650 215 l 1
 650 1130 l 1
 929 1130 l 2
 1006 1130 1302 1146 1302 879 c 0
913 696 m 2
 1074 696 1120 765 1120 868 c 0
 1120 991 1024 1005 930 1005 c 2
 815 1005 l 1
 815 696 l 1
 913 696 l 2
EndSplineSet
EndChar
StartChar: macron
Encoding: 112 175 114
Width: 1118
Flags: W
HStem: 1659 130<-16 1134>
Fore
1134 1659 m 1
 -16 1659 l 1
 -16 1789 l 1
 1134 1789 l 1
 1134 1659 l 1
EndSplineSet
EndChar
StartChar: degree
Encoding: 113 176 115
Width: 964
Flags: W
HStem: 755 152<349.969 615.091> 1363 152<347.406 615.305>
VStem: 101 157<999.256 1270.4> 706 157<998.49 1272.1>
Fore
482 1515 m 0
 695 1515 863 1354 863 1135 c 0
 863 917 695 755 482 755 c 0
 270 755 101 914 101 1135 c 0
 101 1353 269 1515 482 1515 c 0
482 907 m 0
 616 907 706 1013 706 1135 c 0
 706 1269 607 1363 482 1363 c 0
 351 1363 258 1262 258 1135 c 0
 258 999 362 907 482 907 c 0
EndSplineSet
EndChar
StartChar: plusminus
Encoding: 114 177 116
Width: 1490
Flags: W
HStem: 159 158<162 662 828 1328> 739 158<162 662 828 1328>
VStem: 662 166<317 739 897 1402>
Fore
1328 159 m 1
 162 159 l 1
 162 317 l 1
 662 317 l 1
 662 739 l 1
 162 739 l 1
 162 897 l 1
 662 897 l 1
 662 1402 l 1
 828 1402 l 1
 828 897 l 1
 1328 897 l 1
 1328 739 l 1
 828 739 l 1
 828 317 l 1
 1328 317 l 1
 1328 159 l 1
EndSplineSet
EndChar
StartChar: uni00B2
Encoding: 115 178 117
Width: 1010
Flags: W
HStem: 566 144<373 866> 1371 148<284.031 580.059>
VStem: 619 185<1118.99 1332.3>
Fore
481 1519 m 0
 738 1519 804 1354 804 1239 c 0
 804 1064 684 945 496 802 c 2
 373 710 l 1
 866 710 l 1
 866 566 l 1
 185 566 l 1
 185 718 l 1
 332 832 l 2
 456 925 556 1036 586 1088 c 0
 608 1127 619 1173 619 1227 c 0
 619 1342 529 1371 457 1371 c 0
 352 1371 247 1311 206 1279 c 1
 191 1279 l 1
 191 1458 l 1
 268 1491 377 1519 481 1519 c 0
EndSplineSet
EndChar
StartChar: uni00B3
Encoding: 116 179 118
Width: 1010
Flags: W
HStem: 542 139<326.602 617.723> 968 139<334 600.275> 1380 139<299.434 606.231>
VStem: 641 173<1148.72 1344.89> 665 172<727.81 932.392>
Fore
640 1047 m 1xf0
 741 1026 837 959 837 828 c 0
 837 714 768 542 474 542 c 0
 394 542 290 553 184 600 c 1
 184 775 l 1
 201 775 l 1
 250 730 358 681 471 681 c 0
 552 681 665 710 665 826 c 0xe8
 665 937 591 968 474 968 c 2
 334 968 l 1
 334 1107 l 1
 459 1107 l 2
 564 1107 641 1152 641 1249 c 0
 641 1301 617 1380 472 1380 c 0
 371 1380 258 1322 216 1283 c 1
 199 1283 l 1
 199 1458 l 1
 280 1492 381 1519 492 1519 c 0
 737 1519 814 1378 814 1281 c 0
 814 1145 720 1082 640 1055 c 1
 640 1047 l 1xf0
EndSplineSet
EndChar
StartChar: acute
Encoding: 117 180 119
Width: 1118
Flags: W
HStem: 1302 374<598 871>
VStem: 449 422<1302 1676>
Fore
871 1676 m 1
 598 1302 l 1
 449 1302 l 1
 628 1676 l 1
 871 1676 l 1
EndSplineSet
EndChar
StartChar: mu
Encoding: 118 181 120
Width: 1163
Flags: W
HStem: -17 181<419.54 742.443>
VStem: 136 188<-412 115 275 1117> 839 188<275 1117> 855 172<0 116>
Fore
578 164 m 0xd0
 690 164 769 199 839 275 c 1
 839 1117 l 1
 1027 1117 l 1xe0
 1027 0 l 1
 855 0 l 1
 855 116 l 1
 849 116 l 1
 739 0 661 -17 578 -17 c 0
 476 -17 418 11 324 115 c 1
 324 -412 l 1
 136 -412 l 1
 136 1117 l 1
 324 1117 l 1
 324 275 l 1
 388 199 474 164 578 164 c 0xd0
EndSplineSet
EndChar
StartChar: paragraph
Encoding: 119 182 121
Width: 1118
Flags: W
HStem: 1359 130<655 842>
VStem: 515 140<-363 593> 842 140<-363 1359>
Fore
57 1050 m 0
 57 1340 250 1489 560 1489 c 2
 982 1489 l 1
 982 -363 l 1
 842 -363 l 1
 842 1359 l 1
 655 1359 l 1
 655 -363 l 1
 515 -363 l 1
 515 593 l 1
 240 599 57 775 57 1050 c 0
EndSplineSet
EndChar
StartChar: periodcentered
Encoding: 120 183 122
Width: 724
Flags: W
HStem: 832 285<243 482>
VStem: 243 239<832 1117>
Fore
482 832 m 1
 243 832 l 1
 243 1117 l 1
 482 1117 l 1
 482 832 l 1
EndSplineSet
EndChar
StartChar: cedilla
Encoding: 121 184 123
Width: 1118
Flags: W
HStem: -423 150<380.323 575.357>
VStem: 614 159<-236.499 20>
Fore
614 -107 m 0
 614 -56 613 -69 610 20 c 1
 767 20 l 1
 770 -12 773 -61 773 -89 c 0
 773 -355 591 -423 466 -423 c 0
 431 -423 357 -419 289 -399 c 1
 289 -239 l 1
 298 -239 l 1
 343 -259 390 -273 440 -273 c 0
 561 -273 614 -227 614 -107 c 0
EndSplineSet
EndChar
StartChar: uni0E01
Encoding: 122 3585 124
Width: 1240
Flags: W
HStem: 0 21G<188 408 862 1082> 949 200<460.04 772.932>
VStem: 188 220<0 555.544> 862 220<0 852.732>
Fore
624 1149 m 0
 909 1149 1082 976 1082 673 c 2
 1082 0 l 1
 862 0 l 1
 862 657 l 2
 862 858 783 949 624 949 c 0
 518 949 440 916 390 831 c 1
 464 795 516 739 546 663 c 1
 439 552 408 523 408 363 c 2
 408 0 l 1
 188 0 l 1
 188 363 l 2
 188 524 209 560 316 671 c 1
 269 726 203 767 118 792 c 1
 142 912 308 1149 624 1149 c 0
EndSplineSet
EndChar
StartChar: uni0E02
Encoding: 123 3586 125
Width: 1400
Flags: W
HStem: 0 200<757 997> 531 129<273.788 380.748> 953 196<408.323 608.195>
VStem: 91 176<664.663 824.451> 389 131<663.562 824.488> 537 220<200 575 575 659.875> 664 220<771 893.234> 997 220<200 1139>
Fore
326 828 m 0xf9
 286 828 267 784 267 744 c 0
 267 704 286 660 326 660 c 0
 366 660 389 704 389 744 c 0
 389 784 366 828 326 828 c 0xf9
91 789 m 0
 91 970 234 1149 476 1149 c 0
 829 1149 884 849 884 771 c 1xfb
 799 688 757 623 757 575 c 2
 757 200 l 1
 997 200 l 1
 997 1139 l 1
 1217 1139 l 1
 1217 0 l 1
 537 0 l 1
 537 575 l 2xfd
 537 622 572 682 664 771 c 1xfb
 664 866 601 953 499 953 c 0
 427 953 407 922 406 922 c 1
 406 921 406 920 405 920 c 1
 481 911 520 835 520 748 c 0
 520 628 436 531 307 531 c 0
 162 531 91 637 91 789 c 0
EndSplineSet
EndChar
StartChar: uni0E03
Encoding: 124 3587 126
Width: 1450
Flags: W
HStem: 0 200<810 1050> 457 129<253.406 358.807> 1129 20G<296 389.444 636.333 741 1050 1270>
VStem: 74 171<589.777 749.916> 367 131<591.806 749.04> 590 220<200 675.176> 731 206<771 891.065> 1050 220<200 1139>
Fore
304 754 m 0xf9
 264 754 245 710 245 670 c 0
 245 630 264 586 304 586 c 0
 344 586 367 630 367 670 c 0
 367 710 344 754 304 754 c 0xf9
590 575 m 2xfd
 590 628 633 691 731 771 c 1
 731 816 693 896 663 929 c 1
 519 821 l 1
 360 929 l 1
 337 897 324 869 324 862 c 1
 466 862 498 742 498 674 c 0
 498 553 413 457 286 457 c 0
 116 457 74 615 74 703 c 0
 74 948 232 1096 360 1149 c 1
 519 1041 l 1
 663 1149 l 1
 819 1108 937 912 937 771 c 1xfb
 852 688 810 623 810 575 c 2
 810 200 l 1
 1050 200 l 1
 1050 1139 l 1
 1270 1139 l 1
 1270 0 l 1
 590 0 l 1
 590 575 l 2xfd
EndSplineSet
EndChar
StartChar: uni0E04
Encoding: 125 3588 127
Width: 1370
Flags: W
HStem: 0 21G<251 492.5 980 1200> 305 111<665.52 789.882> 574 142<667.147 788.602> 949 200<522.855 849.311>
VStem: 169 220<385.871 817.133> 798 119<422.691 566.283> 980 220<0 821.097>
Fore
798 495 m 0
 798 535 768 574 728 574 c 0
 688 574 658 535 658 495 c 0
 658 455 688 416 728 416 c 0
 768 416 798 455 798 495 c 0
169 680 m 0
 169 996 384 1149 681 1149 c 0
 940 1149 1200 1016 1200 677 c 2
 1200 0 l 1
 980 0 l 1
 980 664 l 2
 980 878 808 949 685 949 c 0
 583 949 389 890 389 647 c 0
 389 567 418 434 421 384 c 1
 482 592 578 716 720 716 c 0
 826 716 917 612 917 514 c 0
 917 409 824 305 707 305 c 0
 662 305 623 325 618 338 c 1
 588 304 494 52 491 0 c 1
 251 0 l 1
 251 108 l 2
 251 221 169 491 169 680 c 0
EndSplineSet
EndChar
StartChar: uni0E05
Encoding: 126 3589 128
Width: 1370
Flags: W
HStem: 0 21G<238 478 967 1187> 305 111<652.974 776.671> 574 142<653.238 775.414> 1129 20G<423.5 541.276 820.172 1018>
VStem: 155 221<487.611 839.212> 785 119<422.241 567.512> 967 220<0 753.601>
Fore
785 495 m 0
 785 535 755 574 715 574 c 0
 675 574 645 535 645 495 c 0
 645 455 675 416 715 416 c 0
 755 416 785 455 785 495 c 0
513 909 m 1
 419 869 376 797 376 668 c 0
 376 604 402 441 408 384 c 1
 469 592 561 716 706 716 c 0
 825 716 904 595 904 514 c 0
 904 417 810 305 694 305 c 0
 647 305 610 326 605 338 c 1
 570 299 478 37 478 0 c 1
 238 0 l 1
 238 108 l 2
 238 209 155 518 155 706 c 0
 155 988 334 1129 513 1149 c 1
 677 1033 l 1
 850 1149 l 1
 1186 1073 1187 764 1187 677 c 2
 1187 0 l 1
 967 0 l 1
 967 664 l 2
 967 746 966 833 850 909 c 1
 677 795 l 1
 513 909 l 1
EndSplineSet
EndChar
StartChar: uni0E06
Encoding: 127 3590 129
Width: 1520
Flags: W
HStem: -13 263<1014.37 1197> -10 166<523.956 658> 457 129<243.406 348.807> 1119 20G<286 379.444 626.333 731 1139 1359>
VStem: 64 171<589.777 749.916> 357 131<591.806 749.04> 366 156<157.924 309.388> 580 220<507 575 575 676.221> 721 206<771 891.065> 1139 220<281.739 377 377 1139>
Fore
294 754 m 0x3c40
 254 754 235 710 235 670 c 0
 235 630 254 586 294 586 c 0
 334 586 357 630 357 670 c 0
 357 710 334 754 294 754 c 0x3c40
927 771 m 1x7cc0
 841 689 800 624 800 575 c 2
 800 430 l 1
 920 315 1034 250 1087 250 c 0
 1151 250 1139 329 1139 377 c 2
 1139 1139 l 1
 1359 1139 l 1
 1359 218 l 2
 1359 14 1231 -13 1163 -13 c 0xb940
 1034 -13 808 156 799 164 c 1
 799 66 716 -10 600 -10 c 0
 400 -10 366 159 366 249 c 0
 366 351 428 484 580 507 c 1
 580 575 l 2x7b40
 580 628 621 691 721 771 c 1
 721 808 683 896 653 929 c 1
 509 821 l 1
 350 929 l 1
 327 897 314 869 314 862 c 1
 456 862 488 742 488 674 c 0
 488 553 403 457 276 457 c 0
 106 457 64 615 64 703 c 0
 64 948 222 1096 350 1149 c 1
 509 1041 l 1
 653 1149 l 1
 809 1108 927 912 927 771 c 1x7cc0
555 156 m 0x7a40
 587 156 595 179 595 222 c 2
 595 317 l 1
 551 317 523 272 522 219 c 0
 522 177 533 156 555 156 c 0x7a40
EndSplineSet
EndChar
StartChar: uni0E07
Encoding: 128 3591 130
Width: 1000
Flags: W
HStem: -10 200<495.138 624.264> 752 105<561.998 634.118> 1026 123<563.503 668.66>
VStem: 438 116<862.17 1021.29> 635 220<203.796 759> 674 181<881 989.965>
Fore
651 1149 m 0xf8
 733 1149 855 1106 855 881 c 2xf4
 855 272 l 2
 855 46 686 -10 553 -10 c 0
 292 -10 240 200 227 272 c 2
 145 719 l 1
 386 640 l 1
 452 292 l 2
 467 200 521 190 550 190 c 0
 606 190 635 224 635 292 c 2
 635 759 l 1
 628 754 611 752 585 752 c 0
 537 752 438 792 438 922 c 0
 438 1061 526 1149 651 1149 c 0xf8
674 945 m 0
 674 989 663 1026 619 1026 c 0
 588 1026 554 992 554 941 c 0
 554 897 583 857 620 857 c 0
 663 857 674 897 674 945 c 0
EndSplineSet
EndChar
StartChar: uni0E08
Encoding: 129 3592 131
Width: 1200
Flags: W
HStem: -10 200<693.146 804.566> 344 113<353.461 445.469> 625 124<354.768 459.847> 949 200<377.911 704.904>
VStem: 233 114<460.745 622.903> 467 221<191.427 283 458.661 619.548> 808 220<195.298 849.301>
Fore
455 749 m 0
 558 749 688 702 688 517 c 2
 688 263 l 2
 688 214 708 190 748 190 c 0
 788 190 808 213 808 259 c 2
 808 695 l 2
 808 898 654 949 546 949 c 0
 403 949 291 861 242 775 c 1
 104 929 l 1
 172 1046 348 1149 544 1149 c 0
 819 1149 1028 1023 1028 740 c 2
 1028 279 l 2
 1028 85 934 -10 745 -10 c 0
 560 -10 468 89 468 283 c 2
 468 373 l 1
 449 351 413 344 389 344 c 0
 327 344 233 404 233 524 c 0
 233 687 345 749 455 749 c 0
347 541 m 0
 347 485 369 457 407 457 c 0
 445 457 467 485 467 541 c 0
 467 597 445 625 407 625 c 0
 369 625 347 597 347 541 c 0
EndSplineSet
EndChar
StartChar: uni0E09
Encoding: 130 3593 132
Width: 1395
Flags: W
HStem: -13 246<516 695.284> -10 166<1033.5 1167.85> 365 111<238.427 332.352> 644 122<238.96 346.397> 949 200<453.907 793.901>
VStem: 121 111<477.734 641.199> 352 222<233.058 357 477.661 639.016> 893 220<487 848.699> 1169 148<157.999 309.397>
Fore
232 560 m 0x3f80
 232 504 254 476 292 476 c 0
 330 476 352 504 352 560 c 0
 352 616 330 644 292 644 c 0
 254 644 232 616 232 560 c 0x3f80
622 233 m 0xbf80
 701 233 878 395 893 410 c 1
 893 714 l 2
 893 876 768 949 629 949 c 0
 446 949 343 826 322 788 c 1
 180 942 l 1
 248 1055 428 1149 625 1149 c 0
 926 1149 1113 1000 1113 713 c 2
 1113 487 l 1
 1304 468 1317 282 1317 244 c 0
 1317 112 1254 -10 1093 -10 c 0x7f80
 974 -10 894 62 894 164 c 1
 806 104 672 -13 550 -13 c 0
 482 -13 354 14 354 218 c 2
 354 393 l 1
 335 374 309 365 276 365 c 0
 173 365 121 457 121 550 c 0
 121 723 261 766 325 766 c 0
 476 766 574 687 574 544 c 2
 574 357 l 2
 574 252 573 233 622 233 c 0xbf80
1096 222 m 2
 1096 167 1112 156 1136 156 c 0
 1158 156 1169 177 1169 219 c 0
 1169 272 1140 317 1096 317 c 1
 1096 222 l 2
EndSplineSet
EndChar
StartChar: uni0E0A
Encoding: 131 3594 133
Width: 1390
Flags: W
HStem: 0 200<751 991> 531 129<269.048 374.807> 953 196<402.323 597.578>
VStem: 85 176<662.257 824.451> 383 131<663.562 824.488> 531 220<200 645.235> 991 220<200 670.878> 1086 235<1031.74 1188>
Fore
320 828 m 0xfc
 280 828 261 784 261 744 c 0
 261 704 280 660 320 660 c 0
 360 660 383 704 383 744 c 0
 383 784 360 828 320 828 c 0xfc
878 719 m 1
 815 678 751 606 751 545 c 2
 751 200 l 1
 991 200 l 1
 991 546 l 2xfe
 991 660 940 679 878 719 c 1
85 789 m 0
 85 970 228 1149 470 1149 c 0
 684 1149 788 1056 841 924 c 1
 971 942 1086 1020 1086 1163 c 2
 1086 1188 l 1
 1321 1188 l 1
 1321 1164 l 2xfd
 1321 1010 1208 865 1084 825 c 1
 1175 770 1211 707 1211 629 c 2
 1211 0 l 1
 531 0 l 1
 531 575 l 2
 531 622 566 682 658 771 c 1
 658 858 596 953 493 953 c 0
 421 953 401 922 400 922 c 1
 400 921 400 920 399 920 c 1
 475 911 514 835 514 748 c 0
 514 628 429 531 302 531 c 0
 128 531 85 675 85 789 c 0
EndSplineSet
EndChar
StartChar: uni0E0B
Encoding: 132 3595 134
Width: 1450
Flags: W
HStem: 0 200<823 1063> 457 129<253.406 358.807> 1129 20G<296 389.444 636.333 709>
VStem: 74 171<589.777 749.916> 367 131<591.806 749.04> 603 220<200 645.235> 1063 220<200 673.656> 1158 235<1029.28 1188>
Fore
304 754 m 0xfc
 264 754 245 710 245 670 c 0
 245 630 264 586 304 586 c 0
 344 586 367 630 367 670 c 0
 367 710 344 754 304 754 c 0xfc
663 1149 m 1
 755 1119 867 1027 913 924 c 1
 1043 942 1158 1020 1158 1163 c 2
 1158 1188 l 1
 1393 1188 l 1
 1393 1164 l 2xfd
 1393 1013 1285 868 1156 825 c 1
 1247 770 1283 707 1283 629 c 2
 1283 0 l 1xfe
 603 0 l 1
 603 575 l 2
 603 622 638 682 730 771 c 1
 730 822 687 903 663 929 c 1
 519 821 l 1
 360 929 l 1
 337 897 324 869 324 862 c 1
 466 862 498 742 498 674 c 0
 498 553 413 457 286 457 c 0
 116 457 74 615 74 703 c 0
 74 948 232 1096 360 1149 c 1
 519 1041 l 1
 663 1149 l 1
950 719 m 1
 887 678 823 606 823 545 c 2
 823 200 l 1
 1063 200 l 1
 1063 546 l 2xfe
 1063 669 1012 679 950 719 c 1
EndSplineSet
EndChar
StartChar: uni0E0C
Encoding: 133 3596 135
Width: 1750
Flags: W
HStem: -10 166<803.333 938> -10 120<405.034 507.026> 280 111<422.479 507.814> 949 200<461.409 767.478>
VStem: 186 220<363 559.35> 186 209<115.475 303> 515 125<112.584 275.708> 646 156<173.555 309.231> 860 219<487 843.898> 1373 220<246 1139>
Fore
395 195 m 0x77c0
 395 155 415 110 455 110 c 0
 495 110 515 155 515 195 c 0
 515 235 495 280 455 280 c 0
 415 280 395 235 395 195 c 0x77c0
646 249 m 0
 646 340 708 474 860 487 c 1
 860 657 l 2
 860 848 781 949 622 949 c 0
 516 949 438 906 388 831 c 1
 462 795 514 739 544 663 c 1
 435 551 406 537 406 363 c 1xbbc0
 423 382 446 391 477 391 c 0
 537 391 640 343 640 206 c 0
 640 98 570 -10 429 -10 c 0
 198 -10 186 158 186 303 c 2x77c0
 186 366 l 2
 186 523 208 560 314 671 c 1
 267 726 201 767 116 792 c 1
 140 912 306 1149 622 1149 c 0
 901 1149 1079 983 1079 673 c 2
 1079 410 l 5
 1373 246 l 1
 1373 1139 l 1
 1593 1139 l 1
 1593 0 l 1
 1374 0 l 1
 1079 164 l 1
 1079 62 996 -10 880 -10 c 0xbbc0
 676 -10 646 168 646 249 c 0
835 156 m 0
 867 156 875 179 875 222 c 2
 875 317 l 1
 831 317 802 272 802 219 c 0
 802 177 813 156 835 156 c 0
EndSplineSet
EndChar
StartChar: uni0E0D
Encoding: 134 3597 136
Width: 1745
Flags: W
HStem: -417 180<1036.98 1250.39> -130 108<1036.44 1136.45> -10 120<461.892 562.871> 0 200<1135 1360> 280 111<491.25 562.717> 949 200<516.409 823.452>
VStem: 241 220<115.657 235.992 363 557.871> 570 125<154.008 235.992> 915 220<200 849.854> 928 106<-234.864 -130.853> 1139 117<-229.033 -131.91> 1360 220<200 1139> 1444 170<-153.15 -48>
Fore
369 671 m 1xefb0
 323 726 256 767 171 792 c 1
 195 912 361 1149 677 1149 c 0
 961 1149 1135 976 1135 673 c 2
 1135 200 l 1
 1360 200 l 1
 1360 1139 l 1
 1580 1139 l 1
 1580 0 l 1
 915 0 l 1xdfb0
 915 657 l 2
 915 848 836 949 677 949 c 0
 571 949 493 906 443 831 c 1
 517 795 570 739 599 663 c 1
 494 550 461 536 461 376 c 2
 461 363 l 1
 478 382 501 391 532 391 c 0
 592 393 695 343 695 206 c 0
 698 101 628 -10 484 -10 c 0
 282 -10 241 116 241 303 c 2
 241 366 l 2
 241 523 263 560 369 671 c 1xefb0
510 280 m 0
 470 280 450 235 450 195 c 0
 450 155 475 110 510 110 c 0xef20
 551 110 570 155 570 195 c 0
 570 235 550 280 510 280 c 0
928 -199 m 0xcf68
 928 -94 996 -22 1094 -22 c 0
 1196 -22 1256 -86 1256 -178 c 0
 1256 -215 1248 -239 1221 -265 c 1
 1381 -235 1436 -118 1444 -34 c 1
 1614 -48 l 1
 1606 -250 1442 -417 1214 -417 c 0
 983 -417 928 -286 928 -199 c 0xcf68
1086 -130 m 0
 1056 -130 1034 -153 1034 -183 c 0
 1034 -213 1056 -237 1086 -237 c 0
 1116 -237 1139 -213 1139 -183 c 0
 1139 -153 1116 -130 1086 -130 c 0
EndSplineSet
Substitution2: "Thai Descender Removal Single Substitution" uni0E0D.descless
EndChar
StartChar: uni0E0E
Encoding: 135 3598 137
Width: 1375
Flags: W
HStem: -430 157<450.362 601.287> -132 142<472.127 641.016> -10 120<231.401 332.526> 280 111<230.645 298.232> 949 200<607.409 914.638>
VStem: 98 125<113.833 275.432> 264 185<-263.646 -155.891> 332 220<363 557.871> 1006 220<-155 849.854>
AnchorPoint: "BelowBase" 1226 -453 basechar 0
Fore
264 -255 m 0xbe80
 264 -170 337 10 589 10 c 0xde80
 638 10 688 3 738 -12 c 1
 820 142 l 1
 956 88 l 1
 878 -67 l 1
 917 -82 970 -117 1006 -155 c 1
 1006 657 l 2
 1006 848 927 949 768 949 c 0
 662 949 584 906 534 831 c 1
 608 795 660 739 690 663 c 1
 585 550 552 536 552 376 c 2
 552 303 l 2
 552 148 530 -10 309 -10 c 0
 156 -10 98 114 98 206 c 0
 98 329 182 391 260 391 c 0
 290 391 314 382 332 363 c 1
 332 384 l 2xbd80
 332 523 358 565 460 671 c 1
 413 726 347 767 262 792 c 1
 286 912 452 1149 768 1149 c 0
 1053 1149 1226 976 1226 673 c 2
 1226 -410 l 1
 1006 -410 l 1
 945 -322 881 -259 812 -220 c 1
 756 -329 663 -430 492 -430 c 0
 342 -430 264 -348 264 -255 c 0xbe80
223 195 m 0
 223 155 243 110 283 110 c 0xbc80
 323 110 343 155 343 195 c 0
 343 235 323 280 283 280 c 0
 243 280 223 235 223 195 c 0
449 -237 m 0xde80
 449 -246 459 -273 499 -273 c 0
 567 -273 639 -207 661 -154 c 1
 643 -138 615 -132 579 -132 c 0
 516 -132 449 -165 449 -237 c 0xde80
EndSplineSet
EndChar
StartChar: uni0E0F
Encoding: 136 3599 138
Width: 1375
Flags: W
HStem: -429 136<352.358 515.262> -152 153<365.404 542.579> -10 120<230.53 332.026> 280 111<231.699 314.777> 949 200<606.409 913.013>
VStem: 97 126<113.169 275.432> 190 159<-290.763 -174.935> 331 220<363 557.871> 343 208<117.315 303> 1005 220<-61 849.854>
AnchorPoint: "BelowBase" 1225 -453 basechar 0
Fore
223 195 m 0xbcc0
 223 155 243 110 283 110 c 0
 323 110 343 155 343 195 c 0
 343 235 323 280 283 280 c 0
 243 280 223 235 223 195 c 0xbcc0
784 -122 m 1
 825 -48 871 -10 893 -10 c 0
 923 -10 960 -27 1005 -61 c 1
 1005 657 l 2
 1005 848 924 949 767 949 c 0
 661 949 583 906 533 831 c 1
 607 795 659 739 689 663 c 1
 584 550 551 536 551 376 c 2xb940
 551 303 l 2xb8c0
 551 148 529 -10 308 -10 c 0
 153 -10 97 111 97 206 c 0
 97 329 181 391 259 391 c 0
 289 391 313 382 331 363 c 1
 331 384 l 2xbd40
 331 523 357 565 459 671 c 1
 412 726 346 767 261 792 c 1
 285 912 451 1149 767 1149 c 0
 1051 1149 1225 976 1225 673 c 2
 1225 -410 l 1
 1008 -410 l 1
 984 -288 939 -245 893 -245 c 0
 839 -245 782 -368 768 -403 c 1
 705 -294 685 -286 674 -276 c 1
 612 -368 545 -429 410 -429 c 0
 229 -429 190 -305 190 -234 c 0
 190 -93 329 1 482 1 c 0xda40
 541 1 587 -11 630 -32 c 1
 716 119 l 1
 843 73 l 1
 760 -90 l 1
 769 -97 777 -108 784 -122 c 1
349 -245 m 0xda40
 349 -266 371 -293 411 -293 c 0
 474 -293 543 -243 568 -173 c 1
 553 -159 523 -152 478 -152 c 0
 411 -152 349 -183 349 -245 c 0xda40
EndSplineSet
EndChar
StartChar: uni0E10
Encoding: 137 3600 139
Width: 1130
Flags: W
HStem: -541 106<203.311 328.396> -450 168<587.925 719.185> -346 112<197.13 345.446> -276 71<680.804 746.371> -106 72<681.365 773.427> -10 200<572.378 679.82> 260 113<231.431 325.789> 541 123<231.928 339.38> 864 200<709.036 913.214 908.472 917.957 917.957 935> 949 200<367.252 688.992>
VStem: 68 126<-434.561 -356.062> 111 115<376.273 538.833> 346 220<198.702 289 374.661 535.426> 596 84<-204.255 -106.601> 686 220<195.632 259 259 563.95> 777 158<-204.985 -106.787>
Fore
226 457 m 0x0f1c
 226 401 248 373 286 373 c 0
 324 373 346 401 346 457 c 0
 346 513 324 541 286 541 c 0
 248 541 226 513 226 457 c 0x0f1c
333 664 m 0
 436 664 566 618 566 433 c 2
 566 263 l 2
 566 214 586 190 626 190 c 0
 666 190 686 213 686 259 c 2
 686 529 l 2
 686 562 671 587 641 603 c 2
 562 636 l 2
 453 672 278 707 37 742 c 1
 85 976 213 1149 506 1149 c 0x0f5e
 705 1149 727 1064 899 1064 c 0
 926 1064 951 1067 974 1072 c 1
 935 872 l 1
 915 867 888 864 860 864 c 0x0f8d
 722 864 653 949 495 949 c 0
 422 949 376 929 357 892 c 1
 699 826 906 764 906 573 c 2
 906 279 l 2x0f4e
 906 86 813 -10 626 -10 c 0
 439 -10 346 88 346 283 c 2
 346 289 l 1
 326 267 291 260 267 260 c 0
 202 262 111 317 111 440 c 0
 111 603 223 664 333 664 c 0
68 -414 m 0x8f2d
 68 -306 153 -235 280 -234 c 0xaf2d
 334 -234 368 -243 402 -258 c 1
 418 -236 435 -217 448 -192 c 1
 568 -239 l 1
 525 -306 l 1
 532 -309 545 -319 564 -336 c 1
 588 -300 622 -282 665 -282 c 0
 697 -282 724 -294 747 -319 c 1
 747 -273 l 1
 720 -276 l 2
 653 -275 596 -231 596 -168 c 0
 596 -87 674 -34 746 -34 c 0
 925 -34 935 -137 935 -223 c 2
 935 -530 l 1
 752 -530 l 1
 732 -479 703 -450 665 -450 c 0x5f2d
 623 -450 587 -493 560 -529 c 1
 537 -495 502 -458 457 -418 c 1
 407 -483 329 -541 229 -541 c 0
 157 -541 68 -504 68 -414 c 0x8f2d
777 -156 m 0
 777 -128 758 -106 731 -106 c 0
 701 -106 680 -125 680 -156 c 0
 680 -187 701 -205 731 -205 c 0x1f0d
 758 -205 777 -184 777 -156 c 0
194 -402 m 0xaf2c
 194 -422 219 -435 238 -435 c 0
 306 -435 354 -360 354 -360 c 1
 341 -351 321 -346 294 -346 c 0
 240 -346 194 -368 194 -402 c 0xaf2c
EndSplineSet
Substitution2: "Thai Descender Removal Single Substitution" uni0E10.descless
EndChar
StartChar: uni0E11
Encoding: 138 3601 140
Width: 1700
Flags: W
HStem: 0 21G<645 927.859 1323 1543> 457 129<308.406 413.807> 1129 20G<351 444.444 691.333 792 1316.5 1428>
VStem: 129 171<589.777 749.916> 422 131<591.806 749.04> 645 220<380 575 575 675.176> 786 206<771 895.172> 1323 220<0 770.016>
Fore
359 754 m 0xf9
 319 754 300 710 300 670 c 0
 300 630 319 586 359 586 c 0
 399 586 422 630 422 670 c 0
 422 710 399 754 359 754 c 0xf9
718 1149 m 1
 866 1108 992 939 992 771 c 1xfb
 907 688 865 623 865 575 c 2
 865 380 l 1
 1141 1003 l 2
 1194 1122 1286 1149 1347 1149 c 0
 1509 1149 1543 1005 1543 923 c 2
 1543 0 l 1
 1323 0 l 1
 1323 682 l 2
 1323 751 1324 788 1292 788 c 0
 1262 788 1253 750 1214 666 c 2
 919 0 l 1
 645 0 l 1
 645 575 l 2xfd
 645 628 688 691 786 771 c 1xfb
 786 819 751 896 718 929 c 1
 574 821 l 1
 415 929 l 1
 392 897 379 869 379 862 c 1
 521 862 553 742 553 674 c 0
 553 553 468 457 341 457 c 0
 171 457 129 615 129 703 c 0
 129 948 287 1096 415 1149 c 1
 574 1041 l 1
 718 1149 l 1
EndSplineSet
EndChar
StartChar: uni0E12
Encoding: 139 3602 141
Width: 1850
Flags: W
HStem: -10 166<899.224 1041> 349 106<501.58 555> 624 120<502.112 607.462> 1129 20G<450 527.276 806.172 1004 1467 1687>
VStem: 142 216<375.01 829.345> 397 97<457.731 620.573> 614 178<458.789 615.979> 769 127<157.189 309.284> 953 220<487 754.432> 1467 220<246 1139>
Fore
836 1149 m 1xfec0
 1172 1073 1173 764 1173 677 c 2
 1173 410 l 1
 1467 246 l 5
 1467 1139 l 1
 1687 1139 l 1
 1687 0 l 1
 1468 0 l 1
 1173 164 l 1
 1173 65 1090 -10 992 -10 c 0
 848 -10 769 102 769 249 c 0xfdc0
 769 368 848 470 953 487 c 1
 953 664 l 2
 953 749 952 831 836 909 c 1
 663 793 l 1
 499 909 l 1
 400 866 358 783 358 650 c 0
 358 556 384 422 443 234 c 1
 497 256 543 318 555 349 c 1
 470 349 397 420 397 547 c 0
 397 668 480 744 599 744 c 0
 688 744 792 697 792 515 c 0
 792 206 558 45 464 0 c 1
 224 0 l 1
 224 108 l 2
 224 223 142 512 142 706 c 0
 142 1060 401 1138 499 1149 c 1
 663 1033 l 1
 836 1149 l 1xfec0
929 156 m 0
 961 156 969 179 969 222 c 2
 969 317 l 1
 925 317 896 272 896 219 c 0
 896 177 907 156 929 156 c 0
554 624 m 0
 514 624 494 580 494 540 c 0
 494 500 514 455 554 455 c 0
 594 455 614 500 614 540 c 0xfec0
 614 580 594 624 554 624 c 0
EndSplineSet
EndChar
StartChar: uni0E13
Encoding: 140 3603 142
Width: 1900
Flags: W
HStem: -10 166<1527 1662.28> -10 120<419.892 520.723> 280 111<451.474 520.717> 949 200<474.229 779.606>
VStem: 199 209<115.657 303> 199 220<363 557.871> 528 125<113.245 275.708> 872 220<246 844.285> 1386 220<487 1139> 1664 156<157.303 307.974>
Fore
635 1149 m 0x77c0
 912 1149 1092 984 1092 673 c 2
 1092 246 l 1
 1386 410 l 1
 1386 1139 l 1
 1606 1139 l 1
 1606 487 l 1
 1741 473 1820 368 1820 244 c 0
 1820 38 1678 -10 1586 -10 c 0
 1468 -10 1386 61 1386 164 c 1
 1092 0 l 1
 872 0 l 1
 872 657 l 2
 872 848 793 949 634 949 c 0
 528 949 451 906 401 831 c 1
 475 795 527 739 557 663 c 1
 452 550 419 536 419 376 c 2
 419 363 l 1xb7c0
 436 382 459 391 490 391 c 0
 550 391 653 343 653 206 c 0
 653 101 586 -10 442 -10 c 0
 240 -10 199 116 199 303 c 2x7bc0
 199 366 l 2
 199 523 221 560 327 671 c 1
 280 726 214 767 129 792 c 1
 153 912 319 1149 635 1149 c 0x77c0
1591 222 m 2
 1591 167 1607 156 1631 156 c 0
 1653 156 1664 177 1664 219 c 0
 1664 272 1635 317 1591 317 c 1
 1591 222 l 2
468 280 m 0
 428 280 408 235 408 195 c 0
 408 155 433 110 468 110 c 0x7bc0
 509 110 528 155 528 195 c 0
 528 235 508 280 468 280 c 0
EndSplineSet
EndChar
StartChar: uni0E14
Encoding: 141 3604 143
Width: 1330
Flags: W
HStem: 0 21G<222 509.5 951 1171> 624 120<512.396 618.093> 949 200<495.437 821.945>
VStem: 140 216<375.503 804.285> 395 110<457.231 620.746> 625 165<458.077 618.962> 951 220<0 824.042>
Fore
565 454 m 0
 605 454 625 499 625 539 c 0
 625 579 605 624 565 624 c 0
 525 624 505 579 505 539 c 0
 505 499 525 454 565 454 c 0
597 744 m 0
 687 744 790 697 790 516 c 0
 790 206 557 46 462 0 c 1
 222 0 l 1
 222 108 l 2
 222 221 140 491 140 680 c 0
 140 991 356 1149 652 1149 c 0
 944 1149 1171 992 1171 677 c 2
 1171 0 l 1
 951 0 l 1
 951 664 l 2
 951 876 784 949 656 949 c 0
 508 949 356 848 356 627 c 0
 356 540 396 372 441 234 c 1
 495 256 541 318 553 349 c 1
 466 349 395 420 395 547 c 0
 395 669 472 744 597 744 c 0
EndSplineSet
EndChar
StartChar: uni0E15
Encoding: 142 3605 144
Width: 1330
Flags: W
HStem: 0 21G<222 509.5 951 1171> 624 120<512.818 618.093> 1129 20G<448 525.276 804.172 1002>
VStem: 140 216<375.01 829.345> 395 110<457.518 620.145> 625 165<458.077 618.962> 951 220<0 754.432>
Fore
565 454 m 0
 605 454 625 499 625 539 c 0
 625 579 605 624 565 624 c 0
 525 624 505 579 505 539 c 0
 505 499 525 454 565 454 c 0
597 744 m 0
 687 744 790 697 790 516 c 0
 790 206 557 46 462 0 c 1
 222 0 l 1
 222 108 l 2
 222 223 140 512 140 706 c 0
 140 1060 399 1138 497 1149 c 1
 661 1033 l 1
 834 1149 l 1
 1170 1073 1171 764 1171 677 c 2
 1171 0 l 1
 951 0 l 1
 951 664 l 2
 951 749 950 831 834 909 c 1
 661 793 l 1
 497 909 l 1
 398 866 356 783 356 650 c 0
 356 556 382 422 441 234 c 1
 495 256 541 318 553 349 c 1
 466 349 395 420 395 547 c 0
 395 666 474 744 597 744 c 0
EndSplineSet
EndChar
StartChar: uni0E16
Encoding: 143 3606 145
Width: 1240
Flags: W
HStem: -10 120<408.892 509.723> 280 111<440.474 509.717> 949 200<463.409 770.638>
VStem: 188 209<115.657 303> 188 220<363 557.871> 517 125<113.245 275.708> 862 220<0 849.854>
Fore
316 671 m 1xee
 267 726 203 767 118 792 c 1
 142 912 308 1149 624 1149 c 0
 909 1149 1082 976 1082 673 c 2
 1082 0 l 1
 862 0 l 1
 862 657 l 2
 862 848 783 949 624 949 c 0
 518 949 440 906 390 831 c 1
 464 795 514 739 546 663 c 1
 441 550 408 536 408 376 c 2
 408 363 l 1xee
 425 382 448 391 479 391 c 0
 539 391 642 343 642 206 c 0
 642 101 575 -10 431 -10 c 0
 229 -10 188 116 188 303 c 2xf6
 188 366 l 2
 188 523 210 560 316 671 c 1xee
457 280 m 0
 417 280 397 235 397 195 c 0xf6
 397 155 422 110 457 110 c 0
 498 110 517 155 517 195 c 0
 517 235 497 280 457 280 c 0
EndSplineSet
EndChar
StartChar: uni0E17
Encoding: 144 3607 146
Width: 1350
Flags: W
HStem: 0 21G<318 600.915 996 1216> 752 105<243.051 316.896> 1025 124<242.693 350.294>
VStem: 121 115<860.83 1022.15> 318 220<380 759> 358 180<860.656 1017.8> 996 220<0 760.086>
Fore
295 1025 m 0xf6
 255 1025 236 981 236 941 c 0
 236 901 255 857 295 857 c 0
 335 857 358 901 358 941 c 0
 358 981 335 1025 295 1025 c 0xf6
334 1149 m 0
 416 1149 538 1106 538 881 c 2xf6
 538 380 l 1
 814 1003 l 2
 867 1122 959 1149 1020 1149 c 0
 1172 1149 1216 1007 1216 923 c 2
 1216 0 l 1
 996 0 l 1
 996 669 l 2
 996 738 994 788 965 788 c 0
 954 788 940 780 933 765 c 2
 592 0 l 1
 318 0 l 1
 318 759 l 1xfa
 311 754 294 752 268 752 c 0
 216 752 121 792 121 922 c 0
 121 1061 209 1149 334 1149 c 0
EndSplineSet
EndChar
StartChar: uni0E18
Encoding: 145 3608 147
Width: 1250
Flags: W
HStem: 0 200<470 804> 864 200<826.547 1049.69> 949 200<485.833 806.473>
VStem: 250 220<200 650> 804 220<200 597.344>
Fore
465 882 m 1xb8
 806 817 1024 754 1024 563 c 2
 1024 0 l 1
 250 0 l 1
 250 650 l 1
 470 650 l 1
 470 200 l 1
 804 200 l 1
 804 529 l 2
 804 562 789 587 759 603 c 2
 680 636 l 2
 573 671 398 707 155 742 c 1
 203 976 332 1149 624 1149 c 0xb8
 823 1149 845 1064 1017 1064 c 0
 1042 1064 1067 1067 1092 1072 c 1
 1053 872 l 1
 1036 868 1017 864 994 864 c 0xd8
 826 864 777 949 613 949 c 0
 540 949 484 916 465 882 c 1xb8
EndSplineSet
EndChar
StartChar: uni0E19
Encoding: 146 3609 148
Width: 1400
Flags: W
HStem: -10 166<1058.5 1194.5> 748 109<245.488 338.788> 1025 124<246.02 352.832>
VStem: 127 112<859.888 1020.1> 361 219<246 776 860.656 1016.81> 919 220<487 1139> 1197 146<157.303 308.862>
Fore
298 1025 m 0
 258 1025 239 981 239 941 c 0
 239 901 258 857 298 857 c 0
 338 857 361 901 361 941 c 0
 361 981 338 1025 298 1025 c 0
1139 487 m 1
 1330 468 1343 290 1343 244 c 0
 1343 38 1211 -10 1119 -10 c 0
 998 -10 920 66 920 164 c 1
 580 0 l 1
 360 0 l 1
 360 776 l 1
 341 757 315 748 282 748 c 0
 179 748 127 840 127 933 c 0
 127 1106 267 1149 331 1149 c 0
 482 1149 580 1070 580 927 c 2
 580 246 l 1
 919 410 l 1
 919 1139 l 1
 1139 1139 l 1
 1139 487 l 1
1124 222 m 2
 1124 167 1140 156 1164 156 c 0
 1186 156 1197 177 1197 219 c 0
 1197 272 1168 317 1124 317 c 1
 1124 222 l 2
EndSplineSet
EndChar
StartChar: uni0E1A
Encoding: 147 3610 149
Width: 1300
Flags: W
HStem: 0 200<547 933> 749 109<217.859 316.464> 1026 125<217.329 322.497>
VStem: 97 114<861.819 1022.25> 333 214<200 759 861.656 1019.39> 933 220<200 1139>
Fore
270 1026 m 0
 230 1026 211 982 211 942 c 0
 211 902 230 858 270 858 c 0
 310 858 333 902 333 942 c 0
 333 982 310 1026 270 1026 c 0
273 749 m 0
 170 749 97 821 97 929 c 0
 97 1104 222 1151 311 1151 c 0
 488 1151 547 1052 547 881 c 2
 547 200 l 1
 933 200 l 1
 933 1139 l 1
 1153 1139 l 1
 1153 0 l 1
 327 0 l 1
 327 759 l 1
 313 754 295 749 273 749 c 0
EndSplineSet
EndChar
StartChar: uni0E1B
Encoding: 148 3611 150
Width: 1300
Flags: W
HStem: 0 200<547 933> 749 109<217.859 316.464> 1026 125<217.329 322.497>
VStem: 97 114<861.819 1022.25> 333 214<200 759 861.656 1019.39> 933 220<200 1480>
AnchorPoint: "AboveBase" 861 1227 basechar 0
Fore
270 1026 m 0
 230 1026 211 982 211 942 c 0
 211 902 230 858 270 858 c 0
 310 858 333 902 333 942 c 0
 333 982 310 1026 270 1026 c 0
547 200 m 1
 933 200 l 1
 933 1480 l 1
 1153 1480 l 1
 1153 0 l 1
 327 0 l 1
 327 759 l 1
 313 754 295 749 273 749 c 0
 170 749 97 821 97 929 c 0
 97 1104 222 1151 311 1151 c 0
 488 1151 547 1052 547 881 c 2
 547 200 l 1
EndSplineSet
EndChar
StartChar: uni0E1C
Encoding: 149 3612 151
Width: 1200
Flags: W
HStem: 0 21G<133 366.955 810.401 1043> 749 111<361.604 461.323> 1028 123<258.604 459.381>
VStem: 133 214<330 759 861.969 1025.1> 469 114<864.547 1023.97> 823 220<330 1139>
Fore
406 1028 m 0
 366 1028 347 984 347 944 c 0
 347 904 366 860 406 860 c 0
 446 860 469 904 469 944 c 0
 469 984 446 1028 406 1028 c 0
408 749 m 0
 375 749 358 757 353 759 c 1
 353 330 l 1
 577 698 l 1
 619 698 l 1
 823 330 l 1
 823 1139 l 1
 1043 1139 l 1
 1043 0 l 1
 823 0 l 1
 600 354 l 1
 353 0 l 1
 133 0 l 1
 133 835 l 2
 133 1026 164 1151 356 1151 c 0
 476 1151 583 1096 583 930 c 0
 583 844 532 749 408 749 c 0
EndSplineSet
EndChar
StartChar: uni0E1D
Encoding: 150 3613 152
Width: 1200
Flags: W
HStem: 0 21G<133 366.955 810.401 1043> 749 111<361.604 461.323> 1028 123<258.604 459.381>
VStem: 133 214<330 759 861.969 1025.1> 469 114<864.547 1023.97> 823 220<330 1480>
AnchorPoint: "AboveBase" 751 1227 basechar 0
Fore
406 1028 m 0
 366 1028 347 984 347 944 c 0
 347 904 366 860 406 860 c 0
 446 860 469 904 469 944 c 0
 469 984 446 1028 406 1028 c 0
408 749 m 0
 375 749 358 757 353 759 c 1
 353 330 l 1
 577 698 l 1
 619 698 l 1
 823 330 l 1
 823 1480 l 1
 1043 1480 l 1
 1043 0 l 1
 823 0 l 1
 600 354 l 1
 353 0 l 1
 133 0 l 1
 133 835 l 2
 133 1026 164 1151 356 1151 c 0
 476 1151 583 1096 583 930 c 0
 583 844 532 749 408 749 c 0
EndSplineSet
EndChar
StartChar: uni0E1E
Encoding: 151 3614 153
Width: 1350
Flags: W
HStem: 0 21G<297 524.933 979.267 1207> 749 111<187.673 286.464> 1028 123<187.855 292.724>
VStem: 67 114<862.819 1025.72> 303 214<500 759 863.656 1022.29> 987 220<500 1139>
Fore
240 1028 m 0
 200 1028 181 984 181 944 c 0
 181 904 200 860 240 860 c 0
 280 860 303 904 303 944 c 0
 303 984 280 1028 240 1028 c 0
243 749 m 0
 139 749 67 821 67 929 c 0
 67 1088 174 1151 281 1151 c 0
 468 1151 517 1038 517 909 c 2
 517 500 l 1
 721 1039 l 1
 778 1039 l 1
 987 500 l 1
 987 1139 l 1
 1207 1139 l 1
 1207 0 l 1
 987 0 l 1
 755 600 l 1
 517 0 l 1
 297 0 l 1
 297 759 l 1
 283 754 265 749 243 749 c 0
EndSplineSet
EndChar
StartChar: uni0E1F
Encoding: 152 3615 154
Width: 1350
Flags: W
HStem: 0 21G<297 524.933 979.267 1207> 749 111<187.673 286.464> 1028 123<187.855 292.724>
VStem: 67 114<862.819 1025.72> 303 214<500 759 863.656 1022.29> 987 220<500 1480>
AnchorPoint: "AboveBase" 915 1227 basechar 0
Fore
240 1028 m 0
 200 1028 181 984 181 944 c 0
 181 904 200 860 240 860 c 0
 280 860 303 904 303 944 c 0
 303 984 280 1028 240 1028 c 0
517 909 m 2
 517 500 l 1
 721 1039 l 1
 778 1039 l 1
 987 500 l 1
 987 1480 l 1
 1207 1480 l 1
 1207 0 l 1
 987 0 l 1
 755 600 l 1
 517 0 l 1
 297 0 l 1
 297 759 l 1
 283 754 265 749 243 749 c 0
 139 749 67 821 67 929 c 0
 67 1088 174 1151 281 1151 c 0
 468 1151 517 1038 517 909 c 2
EndSplineSet
EndChar
StartChar: uni0E20
Encoding: 153 3616 155
Width: 1350
Flags: W
HStem: -10 120<217.401 318.526> 280 111<216.367 301.665> 949 200<593.409 900.638>
VStem: 84 125<113.833 275.432> 318 220<363 558.301> 329 209<117.315 303> 992 220<0 849.854>
Fore
209 195 m 0xf6
 209 155 229 110 269 110 c 0
 309 110 329 155 329 195 c 0
 329 235 309 280 269 280 c 0
 229 280 209 235 209 195 c 0xf6
754 1149 m 0
 1039 1149 1212 976 1212 673 c 2
 1212 0 l 1
 992 0 l 1
 992 657 l 2
 992 848 913 949 754 949 c 0
 648 949 570 906 520 831 c 1
 594 795 646 739 676 663 c 1
 572 551 538 536 538 376 c 2xfa
 538 303 l 2xf6
 538 148 516 -10 295 -10 c 0
 142 -10 84 114 84 206 c 0
 84 329 168 391 246 391 c 0
 276 391 300 382 318 363 c 1
 318 384 l 2xfa
 318 523 344 565 446 671 c 1
 399 726 333 767 248 792 c 1
 272 912 438 1149 754 1149 c 0
EndSplineSet
EndChar
StartChar: uni0E21
Encoding: 154 3617 156
Width: 1350
Flags: W
HStem: -10 166<317.285 451.5> 748 110<261.916 352.351> 1028 121<260.998 366.395>
VStem: 141 113<860.751 1023.68> 161 155<157.687 309.425> 374 220<487 776 860.531 1022.02> 933 220<246 1139>
Fore
254 943 m 0xf6
 254 903 274 858 314 858 c 0
 354 858 374 903 374 943 c 0
 374 983 354 1028 314 1028 c 0
 274 1028 254 983 254 943 c 0xf6
161 244 m 0xee
 161 376 246 474 374 487 c 1
 374 776 l 1
 355 757 329 748 296 748 c 0
 216 748 141 811 141 932 c 0xf6
 141 1090 262 1149 345 1149 c 0
 496 1149 594 1070 594 927 c 2
 594 410 l 1
 933 246 l 1
 933 1139 l 1
 1153 1139 l 1
 1153 0 l 1
 933 0 l 1
 594 164 l 1
 594 63 509 -10 394 -10 c 0
 275 -10 161 61 161 244 c 0xee
349 156 m 0
 373 156 389 167 389 222 c 2
 389 317 l 1
 345 317 316 272 316 219 c 0xee
 316 177 327 156 349 156 c 0
EndSplineSet
EndChar
StartChar: uni0E22
Encoding: 155 3618 157
Width: 1200
Flags: W
HStem: 0 200<421 807> 495 133<460.98 624> 752 106<422.226 499.911> 1028 121<396.273 499.079>
VStem: 184 205<771.552 993.099> 201 220<200 462.638> 509 135<862.375 1023.44> 807 220<200 1139>
Fore
389 943 m 0xfb
 389 903 409 858 449 858 c 0
 489 858 509 903 509 943 c 0
 509 983 489 1028 449 1028 c 0
 409 1028 389 983 389 943 c 0xfb
399 1149 m 0
 600 1149 644 1018 644 935 c 0
 644 835 574 752 463 752 c 0
 450 752 436 753 421 756 c 1
 421 708 478 628 552 628 c 2
 624 628 l 1
 624 495 l 1
 552 495 l 2
 466 495 421 432 421 347 c 2
 421 200 l 1
 807 200 l 1
 807 1139 l 1
 1027 1139 l 1
 1027 0 l 1
 201 0 l 1
 201 410 l 2xf7
 201 457 245 520 310 562 c 1
 215 613 184 669 184 831 c 0
 184 960 187 1024 261 1093 c 0
 310 1138 373 1149 399 1149 c 0
EndSplineSet
EndChar
StartChar: uni0E23
Encoding: 156 3619 158
Width: 1100
Flags: W
HStem: -10 120<611.345 827> 280 121<612.523 708.587> 864 200<775.42 998.658> 949 200<432.403 755.265>
VStem: 487 117<113.631 276.969> 724 220<114.787 277.469 393 602.573>
Fore
604 195 m 0xcc
 604 155 624 110 664 110 c 0
 704 110 724 155 724 195 c 0
 724 235 704 280 664 280 c 0
 624 280 604 235 604 195 c 0xcc
724 529 m 2
 724 662 457 680 104 742 c 1
 152 976 281 1149 573 1149 c 0xdc
 772 1149 795 1064 966 1064 c 0
 991 1064 1016 1067 1041 1072 c 1
 1002 872 l 1
 985 868 965 864 943 864 c 0xec
 775 864 724 949 562 949 c 0xdc
 489 949 423 919 404 872 c 1
 704 814 944 779 944 553 c 2
 944 303 l 2
 944 114 916 -10 738 -10 c 0
 516 -10 487 126 487 202 c 0
 487 327 573 401 657 401 c 0
 679 401 710 402 724 393 c 1
 724 529 l 2
EndSplineSet
EndChar
StartChar: uni0E24
Encoding: 157 3620 159
Width: 1240
Flags: W
HStem: -10 120<408.892 509.723> 280 111<440.474 509.717> 949 200<469.81 770.638>
VStem: 188 209<115.657 303> 188 220<363 557.871> 517 125<113.245 275.708> 862 220<-380 849.854>
Fore
118 792 m 1xee
 143 912 308 1149 624 1149 c 0
 909 1149 1082 976 1082 673 c 2
 1082 -380 l 1
 862 -380 l 1
 862 657 l 2
 862 848 783 949 624 949 c 0
 518 949 441 906 390 831 c 1
 464 795 514 739 546 663 c 1
 441 550 408 536 408 376 c 2
 408 363 l 1xee
 425 382 448 391 479 391 c 0
 539 391 642 343 642 206 c 0
 642 101 575 -10 431 -10 c 0
 229 -10 188 116 188 303 c 2xf6
 188 366 l 2
 188 523 210 560 316 671 c 1
 267 726 203 767 118 792 c 1xee
457 280 m 0
 417 280 397 235 397 195 c 0xf6
 397 155 422 110 457 110 c 0
 498 110 517 155 517 195 c 0
 517 235 497 280 457 280 c 0
EndSplineSet
EndChar
StartChar: uni0E25
Encoding: 158 3621 160
Width: 1250
Flags: W
HStem: -10 120<419.611 521.504> 280 111<429.282 521.045> 540 200<448.936 762.031> 949 200<396.796 731.582>
VStem: 190 219<115.998 277.469 363 499.062> 529 115<114.468 275.708> 833 220<0 466.709 658 850.063>
Fore
469 280 m 0
 429 280 409 235 409 195 c 0
 409 155 434 110 469 110 c 0
 510 110 529 155 529 195 c 0
 529 235 509 280 469 280 c 0
126 929 m 1
 209 1071 410 1149 567 1149 c 0
 822 1149 1053 1038 1053 713 c 2
 1053 0 l 1
 833 0 l 1
 833 283 l 2
 833 516 720 540 570 540 c 0
 505 540 410 512 410 403 c 2
 410 363 l 1
 427 382 450 391 481 391 c 0
 546 391 644 343 644 206 c 0
 644 96 575 -10 433 -10 c 0
 194 -10 190 174 190 303 c 2
 190 438 l 2
 190 634 352 740 566 740 c 0
 717 740 806 694 833 658 c 1
 833 714 l 2
 833 896 684 949 570 949 c 0
 434 949 321 875 266 775 c 1
 126 929 l 1
EndSplineSet
EndChar
StartChar: uni0E26
Encoding: 159 3622 161
Width: 1350
Flags: W
HStem: -10 120<217.401 318.526> 280 111<216.367 301.665> 949 200<600.061 900.638>
VStem: 84 125<113.833 275.432> 318 220<363 558.301> 329 209<117.315 303> 992 220<-380 849.854>
Fore
209 195 m 0xf6
 209 155 229 110 269 110 c 0
 309 110 329 155 329 195 c 0
 329 235 309 280 269 280 c 0
 229 280 209 235 209 195 c 0xf6
248 792 m 1
 274 912 438 1149 754 1149 c 0
 1039 1149 1212 976 1212 673 c 2
 1212 -380 l 1
 992 -380 l 1
 992 657 l 2
 992 848 913 949 754 949 c 0
 648 949 572 906 520 831 c 1
 594 795 646 739 676 663 c 1
 572 551 538 536 538 376 c 2xfa
 538 303 l 2xf6
 538 148 516 -10 295 -10 c 0
 142 -10 84 114 84 206 c 0
 84 329 168 391 246 391 c 0
 276 391 300 382 318 363 c 1
 318 384 l 2xfa
 318 523 344 565 446 671 c 1
 399 726 333 767 248 792 c 1
EndSplineSet
EndChar
StartChar: uni0E27
Encoding: 160 3623 162
Width: 1150
Flags: W
HStem: -11 121<699.028 913.455> 280 115<700.173 804.989> 949 200<339.867 702.124>
VStem: 577 115<113.207 276.137> 812 220<116.931 277.469 377 844.878>
Fore
692 195 m 0
 692 155 712 110 752 110 c 0
 792 110 812 155 812 195 c 0
 812 235 792 280 752 280 c 0
 712 280 692 235 692 195 c 0
512 949 m 0
 333 949 237 835 208 775 c 1
 68 929 l 1
 200 1078 315 1149 510 1149 c 0
 765 1149 1032 1059 1032 714 c 2
 1032 303 l 2
 1032 148 1022 -11 801 -11 c 0
 666 -11 577 75 577 211 c 0
 577 325 656 395 734 395 c 0
 796 395 809 379 812 377 c 1
 812 714 l 2
 812 896 656 949 512 949 c 0
EndSplineSet
EndChar
StartChar: uni0E28
Encoding: 161 3624 163
Width: 1300
Flags: W
HStem: 0 21G<186 420.5 914 1134> 305 111<593.52 717.882> 574 142<595.147 716.602> 949 200<451.683 781.267>
VStem: 103 214<389.809 818.311> 726 119<422.691 566.283> 914 220<0 823.871>
Fore
726 495 m 0
 726 535 696 574 656 574 c 0
 616 574 586 535 586 495 c 0
 586 455 616 416 656 416 c 0
 696 416 726 455 726 495 c 0
914 0 m 1
 914 664 l 2
 914 878 736 949 613 949 c 0
 511 949 317 890 317 647 c 0
 317 567 346 434 349 384 c 1
 410 592 506 716 648 716 c 0
 754 716 845 612 845 514 c 0
 845 409 752 305 635 305 c 0
 590 305 551 325 546 338 c 1
 516 304 422 52 419 0 c 1
 186 0 l 1
 186 108 l 2
 186 252 103 485 103 676 c 0
 103 1052 444 1149 617 1149 c 0
 750 1149 843 1119 938 1061 c 1
 986 1094 1027 1148 1062 1224 c 1
 1280 1224 l 1
 1243 1108 1172 1012 1069 937 c 1
 1112 870 1134 774 1134 651 c 2
 1134 0 l 1
 914 0 l 1
EndSplineSet
EndChar
StartChar: uni0E29
Encoding: 162 3625 164
Width: 1350
Flags: W
HStem: 0 200<516 902> 697 87<703.379 792.085> 749 109<186.859 285.464> 1026 125<186.329 291.497>
VStem: 66 114<861.819 1022.25> 302 214<200 759 861.656 1019.39> 606 97<609.769 696.008> 793 91<616.778 667.405> 902 220<200 421 642 1139>
Fore
239 1026 m 0xbf80
 199 1026 180 982 180 942 c 0
 180 902 199 858 239 858 c 0
 279 858 302 902 302 942 c 0
 302 982 279 1026 239 1026 c 0xbf80
516 881 m 2
 516 200 l 1
 902 200 l 1
 902 421 l 1
 889 418 865 417 840 417 c 0
 730 417 606 490 606 625 c 0
 606 762 711 784 745 784 c 0xdf80
 820 784 884 752 884 655 c 0
 884 631 883 607 847 575 c 1
 850 568 862 564 883 564 c 0
 891 563 897 564 902 566 c 1
 902 1139 l 1
 1122 1139 l 1
 1122 642 l 1
 1148 668 1161 711 1161 771 c 1
 1294 771 l 1
 1294 606 1247 528 1122 463 c 1
 1122 0 l 1
 296 0 l 1
 296 759 l 1
 282 754 264 749 242 749 c 0
 139 749 66 821 66 929 c 0
 66 1104 191 1151 280 1151 c 0
 457 1151 516 1052 516 881 c 2
703 652 m 0
 703 625 721 607 748 607 c 0
 775 607 793 625 793 652 c 0
 793 659 775 697 748 697 c 0
 721 697 703 679 703 652 c 0
EndSplineSet
EndChar
StartChar: uni0E2A
Encoding: 163 3626 165
Width: 1250
Flags: W
HStem: -10 120<419.611 521.504> 280 111<429.282 521.045> 540 200<448.936 749.423> 949 200<403.256 738.122>
VStem: 190 219<115.998 277.469 363 499.062> 529 115<114.468 275.708> 833 220<0 453.037 658 808.847>
Fore
469 280 m 0
 429 280 409 235 409 195 c 0
 409 155 434 110 469 110 c 0
 510 110 529 155 529 195 c 0
 529 235 509 280 469 280 c 0
833 658 m 1
 833 714 l 2
 833 899 684 949 570 949 c 0
 434 949 321 865 266 775 c 1
 126 929 l 1
 209 1071 410 1149 567 1149 c 0
 702 1149 807 1119 880 1059 c 1
 931 1094 972 1144 1002 1209 c 1
 1270 1209 l 1
 1270 1119 1118 980 1020 915 c 1
 1042 862 1053 795 1053 713 c 2
 1053 0 l 1
 833 0 l 1
 833 263 l 2
 833 496 720 540 570 540 c 0
 505 540 410 512 410 403 c 2
 410 363 l 1
 427 382 450 391 481 391 c 0
 546 391 644 343 644 206 c 0
 644 96 575 -10 433 -10 c 0
 194 -10 190 174 190 303 c 2
 190 438 l 2
 190 634 352 740 566 740 c 0
 717 740 806 694 833 658 c 1
EndSplineSet
EndChar
StartChar: uni0E2B
Encoding: 164 3627 166
Width: 1350
Flags: W
HStem: 0 21G<332 647 978 1198> 745 112<219.184 317.561> 1012 137<917.378 1045.82> 1025 124<218.359 395.892>
VStem: 99 113<859.148 1022.79> 334 218<385 759 860.656 1019.55> 766 145<865.887 1007.44> 978 220<0 576.125> 1051 143<867.198 1006.46>
Fore
271 1025 m 0xde
 231 1025 212 981 212 941 c 0
 212 901 231 857 271 857 c 0
 311 857 334 901 334 941 c 0
 334 981 311 1025 271 1025 c 0xde
99 932 m 0
 99 1106 236 1149 323 1149 c 0xdf
 465 1149 552 1035 552 921 c 2
 552 385 l 1
 622 510 l 2
 712 654 788 732 839 776 c 1
 790 827 766 885 766 948 c 0
 766 1057 857 1149 979 1149 c 0
 1104 1149 1194 1068 1194 946 c 0xee80
 1194 863 1165 802 1107 764 c 1
 1158 736 1198 672 1198 610 c 2
 1198 0 l 1
 978 0 l 1
 978 538 l 2xef
 978 566 970 589 955 606 c 1
 842 532 688 245 606 0 c 1
 332 0 l 1
 332 759 l 1
 317 750 291 745 255 745 c 0
 157 745 99 829 99 932 c 0
911 937 m 0
 911 892 936 862 981 862 c 0
 1026 862 1051 892 1051 937 c 0
 1051 982 1026 1012 981 1012 c 0xee80
 936 1012 911 982 911 937 c 0
EndSplineSet
EndChar
StartChar: uni0E2C
Encoding: 165 3628 167
Width: 1400
Flags: W
HStem: 0 21G<311 538.933 993.267 1221> 749 111<201.673 300.464> 1028 123<201.855 306.724> 1154 147<1222 1315.86> 1428 129<951.224 1071.56>
VStem: 81 114<862.819 1025.72> 317 214<500 759 863.656 1022.29> 828 120<1305.6 1424.66> 1001 220<500 1154> 1076 146<1305.07 1402.12> 1359 134<1347.27 1487>
AnchorPoint: "AboveBase" 792 1227 basechar 0
Fore
254 1028 m 0xff20
 214 1028 195 984 195 944 c 0
 195 904 214 860 254 860 c 0
 294 860 317 904 317 944 c 0
 317 984 294 1028 254 1028 c 0xff20
531 909 m 2
 531 500 l 1
 735 1039 l 1
 792 1039 l 1
 1001 500 l 1
 1001 1158 l 1xffa0
 896 1176 828 1252 828 1357 c 0
 828 1489 913 1557 1025 1557 c 0
 1129 1557 1180 1492 1198 1459 c 0
 1214 1428 1222 1383 1222 1325 c 2
 1222 1301 l 1xff60
 1308 1301 1359 1375 1359 1487 c 1
 1493 1487 l 1
 1493 1218 1308 1154 1221 1154 c 1
 1221 0 l 1
 1001 0 l 1xffa0
 769 600 l 1
 531 0 l 1
 311 0 l 1
 311 759 l 1
 297 754 279 749 257 749 c 0
 153 749 81 821 81 929 c 0
 81 1088 188 1151 295 1151 c 0
 482 1151 531 1038 531 909 c 2
948 1365 m 0
 948 1315 994 1302 1012 1302 c 0
 1049 1302 1076 1333 1076 1365 c 0xff60
 1076 1403 1042 1428 1012 1428 c 0
 973 1428 948 1396 948 1365 c 0
EndSplineSet
EndChar
StartChar: uni0E2D
Encoding: 166 3629 168
Width: 1230
Flags: W
HStem: 0 200<443 830> 354 101<443.753 515.939> 625 123<413.004 516.956> 949 200<391.837 728.697>
VStem: 223 220<200 358> 223 181<434 617.765> 524 114<458.162 620.756> 830 220<200 854.478>
Fore
464 625 m 0xf7
 424 625 404 580 404 540 c 0
 404 500 429 455 464 455 c 0
 505 455 524 500 524 540 c 0
 524 580 504 625 464 625 c 0xf7
565 1149 m 0
 819 1149 1050 1019 1050 751 c 2
 1050 0 l 1
 223 0 l 1
 223 434 l 2xf7
 223 612 255 748 431 748 c 0
 596 748 638 610 638 525 c 0
 638 457 582 354 478 354 c 0
 465 354 453 355 443 358 c 1
 443 200 l 1xfb
 830 200 l 1
 830 715 l 2
 830 896 680 949 568 949 c 0
 426 949 323 881 263 775 c 1
 116 936 l 1
 218 1078 368 1149 565 1149 c 0
EndSplineSet
EndChar
StartChar: uni0E2E
Encoding: 167 3630 169
Width: 1250
Flags: W
HStem: 0 200<450 837> 354 101<450.753 522.939> 625 123<420.004 523.956> 746 148<512.423 734.435> 972 177<475.177 733.181>
VStem: 230 220<200 358> 230 181<434 617.765> 531 114<458.162 620.756> 837 220<200 807.256>
Fore
471 625 m 0xeb80
 431 625 411 580 411 540 c 0
 411 500 436 455 471 455 c 0
 512 455 531 500 531 540 c 0
 531 580 511 625 471 625 c 0xeb80
450 358 m 1xed80
 450 200 l 1xed80
 837 200 l 1
 837 741 l 2
 837 770 836 793 833 808 c 1
 760 767 673 746 572 746 c 0
 400 746 200 810 200 944 c 0
 200 1071 408 1149 585 1149 c 0
 702 1149 807 1121 898 1064 c 1
 925 1099 943 1131 950 1158 c 1
 1072 1116 l 1
 1049 1061 1023 1014 994 975 c 1
 1036 914 1057 851 1057 786 c 2
 1057 0 l 1
 230 0 l 1
 230 434 l 2xdb80
 230 612 262 748 438 748 c 0
 603 748 645 610 645 525 c 0
 645 457 589 354 485 354 c 0
 472 354 460 355 450 358 c 1xed80
475 932 m 0
 475 902 553 894 582 894 c 0xd980
 684 894 731 930 736 935 c 1
 712 957 665 972 595 972 c 0
 540 972 475 952 475 932 c 0
EndSplineSet
EndChar
StartChar: uni0E2F
Encoding: 168 3631 170
Width: 1150
Flags: W
HStem: 0 21G<805 1025> 657 200<514 682.562> 1023 124<267.363 389.555>
VStem: 127 133<892.976 1019.4> 396 152<917.125 1018.8> 805 220<0 776 987.448 1149>
Fore
548 972 m 0
 548 950 543 886 514 857 c 1
 549 857 l 2
 723 857 805 1032 805 1149 c 1
 1025 1149 l 1
 1025 0 l 1
 805 0 l 1
 805 776 l 1
 734 683 583 657 487 657 c 0
 207 657 127 800 127 930 c 0
 127 1074 228 1147 347 1147 c 0
 435 1147 548 1092 548 972 c 0
328 1023 m 0
 288 1023 260 996 260 956 c 0
 260 916 288 889 328 889 c 0
 368 889 396 916 396 956 c 0
 396 996 368 1023 328 1023 c 0
EndSplineSet
EndChar
StartChar: uni0E30
Encoding: 169 3632 171
Width: 1100
Flags: W
HStem: 79 154<492 640.456> 388 110<292.496 407.844> 603 154<492 640.456> 912 110<292.496 407.844>
VStem: 171 117<269.825 384.586 793.825 908.586> 412 126<284.038 384.208 808.038 908.208> 756 166<347.664 480 871.664 1004>
Fore
492 79 m 0
 260 79 171 218 171 312 c 0
 171 456 274 498 366 498 c 0
 486 498 538 402 538 340 c 0
 538 300 529 257 511 233 c 1
 620 233 756 334 756 480 c 1
 922 480 l 1
 922 241 731 79 492 79 c 0
412 328 m 0
 412 368 390 388 350 388 c 0
 310 388 288 368 288 328 c 0
 288 288 310 268 350 268 c 0
 390 268 412 288 412 328 c 0
492 603 m 0
 260 603 171 742 171 836 c 0
 171 980 274 1022 366 1022 c 0
 486 1022 538 926 538 864 c 0
 538 824 529 781 511 757 c 1
 620 757 756 858 756 1004 c 1
 922 1004 l 1
 922 765 731 603 492 603 c 0
412 852 m 0
 412 892 390 912 350 912 c 0
 310 912 288 892 288 852 c 0
 288 812 310 792 350 792 c 0
 390 792 412 812 412 852 c 0
EndSplineSet
EndChar
StartChar: uni0E31
Encoding: 170 3633 172
Width: 0
Flags: W
HStem: 1233 154<-413 -264.544> 1542 110<-612.504 -497.156>
VStem: -734 117<1423.83 1538.59> -493 126<1438.04 1538.21> -149 166<1501.66 1634>
AnchorPoint: "AboveMark" -262 1740 basemark 0
AnchorPoint: "AboveBase" -180 1227 mark 0
Fore
-413 1233 m 0
 -645 1233 -734 1372 -734 1466 c 0
 -734 1610 -631 1652 -539 1652 c 0
 -419 1652 -367 1556 -367 1494 c 0
 -367 1454 -376 1411 -394 1387 c 1
 -285 1387 -149 1488 -149 1634 c 1
 17 1634 l 1
 17 1395 -174 1233 -413 1233 c 0
-493 1482 m 0
 -493 1522 -515 1542 -555 1542 c 0
 -595 1542 -617 1522 -617 1482 c 0
 -617 1442 -595 1422 -555 1422 c 0
 -515 1422 -493 1442 -493 1482 c 0
EndSplineSet
EndChar
StartChar: uni0E32
Encoding: 171 3634 173
Width: 1150
Flags: W
HStem: 0 21G<736 956> 949 200<413.536 668.092>
VStem: 736 220<0 875.305>
Fore
120 846 m 1
 181 999 340 1149 522 1149 c 0
 783 1149 956 1011 956 753 c 2
 956 0 l 1
 736 0 l 1
 736 729 l 2
 736 864 665 949 533 949 c 0
 404 949 334 820 318 764 c 1
 120 846 l 1
EndSplineSet
EndChar
StartChar: uni0E34
Encoding: 173 3636 175
Width: 0
Flags: W
HStem: 1331 110<-894 -567.182> 1520 159<-853.931 -557.259>
VStem: -1181 1001<1228 1331>
AnchorPoint: "AboveMark" -307 1740 basemark 0
AnchorPoint: "AboveBase" -180 1227 mark 0
Fore
-180 1228 m 1
 -403 1277 -936 1331 -1181 1331 c 1
 -1098 1545 -918 1679 -690 1679 c 0
 -663 1679 -527 1687 -376 1575 c 0
 -273 1499 -211 1389 -180 1228 c 1
-435 1392 m 1
 -485 1481 -570 1520 -711 1520 c 0
 -789 1520 -853 1490 -894 1441 c 1
 -794 1441 -679 1432 -549 1413 c 0
 -502 1406 -464 1399 -435 1392 c 1
EndSplineSet
EndChar
StartChar: uni0E35
Encoding: 174 3637 176
Width: 0
Flags: W
HStem: 1499 143<-813.829 -497.411>
VStem: -370 182<1546 1735>
AnchorPoint: "AboveMark" -279 1740 basemark 0
AnchorPoint: "AboveBase" -180 1227 mark 0
Fore
-659 1642 m 0
 -557 1642 -454 1620 -370 1546 c 1
 -370 1735 l 1
 -188 1735 l 1
 -188 1260 l 1
 -187 1255 -184 1244 -181 1228 c 1
 -384 1272 -891 1323 -1125 1323 c 1
 -1079 1476 -907 1642 -659 1642 c 0
-429 1387 m 1
 -470 1455 -552 1499 -682 1499 c 0
 -750 1499 -808 1470 -844 1429 c 1
 -752 1429 -644 1420 -521 1403 c 0
 -492 1399 -462 1394 -429 1387 c 1
EndSplineSet
EndChar
StartChar: uni0E36
Encoding: 175 3638 177
Width: 0
Flags: W
HStem: 1321 116<-203 -135.644> 1500 140<-792.873 -506.109> 1559 122<-258.23 -138.52>
VStem: -133 118<1441.89 1555.42>
AnchorPoint: "AboveMark" -197 1740 basemark 0
AnchorPoint: "AboveBase" -90 1227 mark 0
Fore
-636 1640 m 0xd0
 -492 1640 -415 1595 -382 1562 c 1
 -357 1637 -281 1681 -206 1681 c 0xb0
 -96 1681 -15 1600 -15 1502 c 0
 -15 1390 -103 1321 -203 1321 c 1
 -198 1306 -190 1275 -181 1228 c 1
 -384 1272 -891 1323 -1125 1323 c 1
 -1083 1469 -911 1640 -636 1640 c 0xd0
-133 1498 m 0
 -133 1533 -163 1559 -198 1559 c 0
 -233 1559 -263 1533 -263 1498 c 0
 -263 1463 -233 1437 -198 1437 c 0
 -163 1437 -133 1463 -133 1498 c 0
-432 1376 m 1
 -467 1436 -540 1500 -654 1500 c 0xd0
 -738 1500 -822 1444 -839 1419 c 1
 -707 1419 -511 1395 -432 1376 c 1
EndSplineSet
EndChar
StartChar: uni0E37
Encoding: 176 3639 178
Width: 0
Flags: W
HStem: 1506 128<-813.624 -586.459>
VStem: -580 176<1625 1723> -358 170<1551 1722>
AnchorPoint: "AboveMark" -381 1740 basemark 0
AnchorPoint: "AboveBase" -180 1227 mark 0
Fore
-1106 1323 m 1
 -1052 1482 -888 1634 -648 1634 c 0
 -626 1634 -609 1632 -580 1625 c 1
 -580 1723 l 1
 -404 1723 l 1
 -404 1587 l 1
 -388 1583 -373 1571 -358 1551 c 1
 -358 1722 l 1
 -188 1722 l 1
 -188 1285 l 1
 -186 1228 l 1
 -394 1273 -901 1323 -1106 1323 c 1
-400 1370 m 1
 -455 1487 -576 1506 -617 1506 c 0
 -758 1506 -806 1482 -861 1414 c 1
 -711 1414 -435 1380 -400 1370 c 1
EndSplineSet
EndChar
StartChar: uni0E38
Encoding: 177 3640 179
Width: 0
Flags: W
HStem: -378 82<-420.554 -366.531> -176 91<-409 -352>
VStem: -525 89<-294.149 -177.536> -361 200<-534 -370> -340 179<-313 -177.278>
AnchorPoint: "BelowBase" -161 -85 mark 0
Fore
-352 -85 m 0xf0
 -191 -85 -161 -199 -161 -313 c 2xe8
 -161 -534 l 1
 -361 -534 l 1
 -361 -370 l 1
 -373 -375 -385 -378 -397 -378 c 0
 -439 -378 -525 -350 -525 -238 c 0
 -525 -170 -486 -85 -352 -85 c 0xf0
-436 -236 m 0
 -436 -278 -408 -296 -388 -296 c 0
 -368 -296 -340 -278 -340 -236 c 0
 -340 -194 -368 -176 -388 -176 c 0
 -408 -176 -436 -194 -436 -236 c 0
EndSplineSet
Substitution2: "Thai Sara U Mai Ek Reordering" uni0E48.low
Substitution2: "Thai Sara U Mai Tho Reordering" uni0E49.low
Substitution2: "Thai Sara U Mai Tri Reordering" uni0E4A.low
Substitution2: "Thai Sara U Mai Chattawa Reordering" uni0E4B.low
Substitution2: "Thai Sara U Thanthakhat Reordering" uni0E4C.low
Substitution2: "Thai Sara U Nikhahit Reordering" uni0E4D
EndChar
StartChar: uni0E39
Encoding: 178 3641 180
Width: 0
Flags: W
HStem: -504 129<-476 -360> -351 73<-749.05 -693.407> -158 83<-748.734 -685.6>
VStem: -849 85<-277.089 -158.584> -668 192<-290 -159.362> -360 200<-375 -98>
AnchorPoint: "BelowBase" -161 -85 mark 0
Fore
-764 -218 m 0
 -764 -260 -736 -278 -716 -278 c 0
 -696 -278 -668 -260 -668 -218 c 0
 -668 -176 -696 -158 -716 -158 c 0
 -736 -158 -764 -176 -764 -218 c 0
-725 -351 m 0
 -784 -351 -849 -305 -849 -227 c 0
 -849 -153 -791 -75 -705 -75 c 0
 -491 -75 -476 -186 -476 -290 c 2
 -476 -375 l 1
 -360 -375 l 1
 -360 -98 l 1
 -160 -98 l 1
 -160 -504 l 1
 -676 -504 l 1
 -676 -335 l 1
 -686 -345 -704 -351 -725 -351 c 0
EndSplineSet
Substitution2: "Thai Sara UU Mai Ek Reordering" uni0E48.low
Substitution2: "Thai Sara UU Mai Tho Reordering" uni0E49.low
Substitution2: "Thai Sara UU Mai Tri Reordering" uni0E4A.low
Substitution2: "Thai Sara UU Mai Chattawa Reordering" uni0E4B.low
Substitution2: "Thai Sara UU Thanthakhat Reordering" uni0E4C.low
Substitution2: "Thai Sara UU Nikhahit Reordering" uni0E4D
EndChar
StartChar: uni0E3A
Encoding: 179 3642 181
Width: 0
Flags: W
HStem: -330 270<-343.436 -148.824>
VStem: -380 269<-292.157 -96.4768>
AnchorPoint: "BelowBase" -158 -65 mark 0
Fore
-380 -195 m 0
 -380 -131 -329 -60 -246 -60 c 0
 -161 -60 -111 -134 -111 -195 c 0
 -111 -268 -174 -330 -246 -330 c 0
 -315 -330 -380 -270 -380 -195 c 0
EndSplineSet
Substitution2: "Thai Phinthu Maitaikhu Reordering" uni0E47
Substitution2: "Thai Phinthu Mai Ek Reordering" uni0E48.low
Substitution2: "Thai Phinthu Mai Tho Reordering" uni0E49.low
Substitution2: "Thai Phinthu Mai Tri Reordering" uni0E4A.low
Substitution2: "Thai Phinthu Mai Chattawa Reordering" uni0E4B.low
Substitution2: "Thai Phinthu Thanthakhat Reordering" uni0E4C.low
Substitution2: "Thai Phinthu Nikhahit Reordering" uni0E4D
EndChar
StartChar: uni0E3F
Encoding: 180 3647 182
Width: 1250
Flags: W
HStem: 0 194<368 541 702 849.705> 689 227<368 541 702 835.241> 1291 198<368 541 702 839.721>
VStem: 132 236<190 689 916 1291> 541 161<-133 0 194 687 916 1291 1489 1595> 885 246<963.571 1250.17> 953 247<295.709 608.082>
Fore
702 1489 m 1xfa
 1070 1489 1131 1282 1131 1144 c 0xfc
 1131 968 1080 872 962 836 c 1
 962 827 l 1
 1111 785 1200 654 1200 457 c 0
 1200 176 976 0 702 0 c 1
 702 -133 l 1
 541 -133 l 1
 541 0 l 1
 132 0 l 1
 132 1489 l 1
 541 1489 l 1
 541 1595 l 1
 702 1595 l 1
 702 1489 l 1xfa
541 916 m 1
 541 1291 l 1
 368 1291 l 1
 368 916 l 1
 541 916 l 1
702 916 m 1
 840 916 885 985 885 1124 c 0
 885 1261 804 1291 702 1291 c 1
 702 916 l 1
541 190 m 1
 541 689 l 1
 368 689 l 1
 368 190 l 1
 541 190 l 1
702 194 m 1
 862 194 953 298 953 449 c 0xfa
 953 642 836 687 702 687 c 1
 702 194 l 1
EndSplineSet
EndChar
StartChar: uni0E40
Encoding: 181 3648 183
Width: 700
Flags: W
HStem: -10 120<364.892 465.723> 280 111<395.357 463.392> 1126 20G<144 364>
VStem: 144 220<364 1146> 473 125<113.245 275.708>
Fore
364 364 m 1
 381 383 404 391 435 391 c 0
 498 391 598 343 598 206 c 0
 598 101 531 -10 387 -10 c 0
 185 -10 144 116 144 303 c 2
 144 1146 l 1
 364 1146 l 1
 364 364 l 1
413 280 m 0
 373 280 353 235 353 195 c 0
 353 155 378 110 413 110 c 0
 454 110 473 155 473 195 c 0
 473 235 453 280 413 280 c 0
EndSplineSet
EndChar
StartChar: uni0E41
Encoding: 182 3649 184
Width: 1320
Flags: W
HStem: -10 120<396.892 497.723 989.892 1090.72> 280 111<427.357 495.392 1020.36 1088.39> 1126 20G<176 396 769 989>
VStem: 176 220<364 1146> 505 125<113.245 275.708> 769 220<364 1146> 1098 125<113.245 275.708>
Fore
989 364 m 1
 1006 383 1029 391 1060 391 c 0
 1123 391 1223 343 1223 206 c 0
 1223 101 1156 -10 1012 -10 c 0
 810 -10 769 116 769 303 c 2
 769 1146 l 1
 989 1146 l 1
 989 364 l 1
1038 280 m 0
 998 280 978 235 978 195 c 0
 978 155 1003 110 1038 110 c 0
 1079 110 1098 155 1098 195 c 0
 1098 235 1078 280 1038 280 c 0
396 364 m 1
 413 383 436 391 467 391 c 0
 530 391 630 343 630 206 c 0
 630 101 563 -10 419 -10 c 0
 217 -10 176 116 176 303 c 2
 176 1146 l 1
 396 1146 l 1
 396 364 l 1
445 280 m 0
 405 280 385 235 385 195 c 0
 385 155 410 110 445 110 c 0
 486 110 505 155 505 195 c 0
 505 235 485 280 445 280 c 0
EndSplineSet
EndChar
StartChar: uni0E42
Encoding: 183 3650 185
Width: 1100
Flags: W
HStem: -10 120<761.892 862.723> 280 111<792.357 860.392> 1263 200<671.058 969.858> 1364 200<370.224 606.316>
VStem: 541 220<364 1029.16> 870 125<113.245 275.708>
Fore
761 364 m 1xdc
 778 383 801 391 832 391 c 0
 895 391 995 343 995 206 c 0
 995 101 928 -10 784 -10 c 0
 582 -10 541 116 541 303 c 2
 541 850 l 2
 541 1048 505 1117 21 1175 c 1
 82 1400 232 1564 423 1564 c 0xdc
 564 1564 740 1463 872 1463 c 0
 950 1463 1011 1483 1056 1524 c 1
 1004 1325 l 1
 948 1295 886 1263 818 1263 c 0xec
 678 1263 562 1364 445 1364 c 0
 392 1364 372 1327 358 1295 c 1
 666 1236 761 1096 761 902 c 2
 761 364 l 1xdc
810 280 m 0
 770 280 750 235 750 195 c 0
 750 155 775 110 810 110 c 0
 851 110 870 155 870 195 c 0
 870 235 850 280 810 280 c 0
EndSplineSet
EndChar
StartChar: uni0E43
Encoding: 184 3651 186
Width: 1000
Flags: W
HStem: -10 120<714.893 815.723> 280 111<745.357 813.392> 942 161<270.868 420.534> 1350 211<416.5 665.088>
VStem: 66 193<1113.22 1256.71> 433 183<1117.27 1256.15> 494 220<364 842.783> 722 206<1079.63 1291.23> 823 125<113.245 275.708>
Fore
714 364 m 1xfb
 731 383 754 391 785 391 c 0
 848 391 948 343 948 206 c 0
 948 101 881 -10 737 -10 c 0
 535 -10 495 116 494 303 c 2
 494 633 l 2xfa80
 493 820 542 881 620 962 c 0
 719 1077 722 1130 722 1165 c 0
 722 1254 684 1344 528 1350 c 1
 581 1343 616 1247 616 1173 c 0xfd
 616 1034 506 942 336 942 c 0
 156 942 66 1073 66 1217 c 0
 66 1494 332 1561 501 1561 c 0
 780 1561 928 1422 928 1166 c 0
 928 934 714 925 714 685 c 2
 714 364 l 1xfb
763 280 m 0
 723 280 703 235 703 195 c 0
 703 155 728 110 763 110 c 0
 804 110 823 155 823 195 c 0
 823 235 803 280 763 280 c 0
346 1269 m 0
 291 1269 259 1226 259 1186 c 0
 259 1146 291 1103 346 1103 c 0
 401 1103 433 1146 433 1186 c 0xfc
 433 1226 401 1269 346 1269 c 0
EndSplineSet
EndChar
StartChar: uni0E44
Encoding: 185 3652 187
Width: 1140
Flags: W
HStem: -10 120<849.892 950.723> 280 111<864.921 949.651> 1082 200<290.347 391.674>
VStem: 629 220<364 1290.98> 958 125<113.245 275.708>
Fore
898 280 m 0
 858 280 838 235 838 195 c 0
 838 155 863 110 898 110 c 0
 939 110 958 155 958 195 c 0
 958 235 938 280 898 280 c 0
849 364 m 1
 866 383 889 391 920 391 c 0
 983 391 1083 343 1083 206 c 0
 1083 101 1016 -10 872 -10 c 0
 670 -10 629 116 629 303 c 2
 629 1229 l 2
 629 1270 617 1291 594 1291 c 0
 579 1291 564 1277 551 1250 c 2
 516 1183 l 2
 476 1116 413 1082 326 1082 c 0
 221 1082 129 1152 64 1366 c 2
 23 1521 l 1
 220 1521 l 1
 253 1405 292 1282 336 1282 c 0
 359 1282 381 1302 402 1343 c 2
 455 1454 l 2
 503 1542 556 1572 624 1572 c 0
 813 1572 849 1419 849 1341 c 2
 849 364 l 1
EndSplineSet
EndChar
StartChar: uni0E45
Encoding: 186 3653 188
Width: 1000
Flags: W
HStem: 949 200<341.536 591.599>
VStem: 664 220<-380 878.461>
Fore
450 1149 m 0
 715 1149 884 996 884 773 c 2
 884 -380 l 1
 664 -380 l 1
 664 729 l 2
 664 864 593 949 461 949 c 0
 332 949 262 820 246 764 c 1
 48 846 l 1
 109 999 268 1149 450 1149 c 0
EndSplineSet
EndChar
StartChar: uni0E46
Encoding: 187 3654 189
Width: 1100
Flags: W
HStem: 457 129<285.406 390.807> 1129 20G<328 421.444 668.333 772.5>
VStem: 106 171<589.777 749.916> 399 131<591.806 749.04> 763 220<-380 896.223>
Fore
336 754 m 0
 296 754 277 710 277 670 c 0
 277 630 296 586 336 586 c 0
 376 586 399 630 399 670 c 0
 399 710 376 754 336 754 c 0
695 1149 m 1
 850 1108 983 924 983 771 c 2
 983 -380 l 1
 763 -380 l 1
 763 771 l 2
 763 822 724 903 695 929 c 1
 551 821 l 1
 392 929 l 1
 369 897 356 869 356 862 c 1
 498 862 530 742 530 674 c 0
 530 553 445 457 318 457 c 0
 148 457 106 615 106 703 c 0
 106 948 264 1096 392 1149 c 1
 551 1041 l 1
 695 1149 l 1
EndSplineSet
EndChar
StartChar: uni0E47
Encoding: 188 3655 190
Width: 0
Flags: W
HStem: 1372 167<-787.137 -669.916> 1562 74<-491.208 -414.512>
VStem: -1036 175<1491.27 1592.83> -576 84<1494.84 1553.44> -412 119<1437.93 1539.09>
AnchorPoint: "AboveBase" -310 1227 mark 0
Fore
-412 1524 m 0
 -412 1543 -428 1562 -452 1562 c 0
 -476 1562 -492 1543 -492 1524 c 0
 -492 1505 -476 1486 -452 1486 c 0
 -428 1486 -412 1505 -412 1524 c 0
-773 1539 m 0
 -691 1539 -609 1427 -551 1427 c 0
 -533 1427 -528 1434 -527 1434 c 1
 -559 1454 -576 1483 -576 1522 c 0
 -576 1574 -529 1636 -449 1636 c 0
 -302 1636 -293 1521 -293 1476 c 0
 -293 1373 -359 1284 -469 1284 c 0
 -544 1284 -608 1300 -661 1333 c 0
 -689 1348 -714 1372 -755 1372 c 0
 -800 1372 -783 1288 -796 1284 c 1
 -988 1284 -1036 1425 -1036 1510 c 0
 -1036 1614 -965 1722 -850 1751 c 0
 -671 1796 -458 1741 -408 1894 c 1
 -226 1894 l 1
 -237 1792 -354 1682 -444 1660 c 0
 -614 1619 -861 1654 -861 1522 c 0
 -861 1505 -856 1497 -850 1486 c 1
 -832 1521 -806 1539 -773 1539 c 0
EndSplineSet
Substitution2: "Thai Mark High Variant" uni0E47.high
Substitution2: "Thai Phinthu Maitaikhu Reordering" uni0E3A
EndChar
StartChar: uni0E48
Encoding: 189 3656 191
Width: 0
Flags: W
HStem: 1826 280<-378 -147>
VStem: -378 231<1826 2106>
AnchorPoint: "AboveMark" -262 1740 mark 0
Fore
-378 2106 m 1
 -147 2106 l 1
 -147 1826 l 1
 -378 1826 l 1
 -378 2106 l 1
EndSplineSet
MultipleSubs2: "Thai Tone Nikhahit Attachment" uni0E4D uni0E48
Substitution2: "Thai Tone Low Variant" uni0E48.low
Substitution2: "Thai Sara U Mai Ek Reordering" uni0E38
Substitution2: "Thai Sara UU Mai Ek Reordering" uni0E39
Substitution2: "Thai Phinthu Mai Ek Reordering" uni0E3A
EndChar
StartChar: uni0E49
Encoding: 190 3657 192
Width: 0
Flags: W
HStem: 1878 89<-582.411 -504.174> 2073 97<-581.142 -477.875>
VStem: -680 97<1969.28 2071.33> -475 125<1968.76 2071.85>
AnchorPoint: "AboveMark" -286 1740 mark 0
Fore
-364 1915 m 1
 -306 1927 -175 1982 -116 2156 c 1
 66 2156 l 1
 10 1930 -205 1761 -485 1716 c 0
 -512 1712 -547 1708 -592 1703 c 1
 -592 1810 l 1
 -571 1815 -510 1832 -500 1885 c 1
 -513 1880 -528 1878 -543 1878 c 0
 -624 1878 -680 1946 -680 2030 c 0
 -680 2104 -616 2170 -540 2170 c 0
 -432 2170 -350 2090 -350 2009 c 0
 -350 1973 -354 1941 -364 1915 c 1
-583 2020 m 0
 -583 1988 -561 1967 -529 1967 c 0
 -497 1967 -475 1988 -475 2020 c 0
 -475 2052 -497 2073 -529 2073 c 0
 -561 2073 -583 2052 -583 2020 c 0
EndSplineSet
MultipleSubs2: "Thai Tone Nikhahit Attachment" uni0E4D uni0E49
Substitution2: "Thai Tone Low Variant" uni0E49.low
Substitution2: "Thai Sara U Mai Tho Reordering" uni0E38
Substitution2: "Thai Sara UU Mai Tho Reordering" uni0E39
Substitution2: "Thai Phinthu Mai Tho Reordering" uni0E3A
EndChar
StartChar: uni0E4A
Encoding: 191 3658 193
Width: 0
Flags: W
HStem: 1668 89<-755.995 -599.995> 1837 77<-675.903 -599.49>
VStem: -599 74<1758.22 1826.27>
AnchorPoint: "AboveMark" -458 1740 mark 0
Fore
-639 1757 m 0
 -614 1757 -599 1772 -599 1797 c 0
 -599 1815 -614 1837 -639 1837 c 0
 -664 1837 -679 1822 -679 1797 c 0
 -679 1772 -664 1757 -639 1757 c 0
-365 2154 m 1
 -253 2112 -152 2029 -152 1930 c 0
 -152 1926 -153 1922 -153 1918 c 1
 -55 2169 l 1
 125 2169 l 1
 -4 1832 l 2
 -62 1683 -266 1672 -325 1672 c 1
 -300 1711 -287 1755 -287 1802 c 0
 -287 1901 -338 1959 -365 1976 c 1
 -507 1858 l 1
 -647 1976 l 1
 -676 1965 -713 1930 -713 1886 c 1
 -692 1905 -666 1914 -635 1914 c 0
 -568 1914 -525 1868 -525 1793 c 0
 -525 1717 -585 1668 -677 1668 c 0
 -833 1668 -872 1800 -872 1882 c 0
 -872 2044 -717 2129 -647 2154 c 1
 -507 2036 l 1
 -365 2154 l 1
EndSplineSet
MultipleSubs2: "Thai Tone Nikhahit Attachment" uni0E4D uni0E4A
Substitution2: "Thai Tone Low Variant" uni0E4A.low
Substitution2: "Thai Sara U Mai Tri Reordering" uni0E38
Substitution2: "Thai Sara UU Mai Tri Reordering" uni0E39
Substitution2: "Thai Phinthu Mai Tri Reordering" uni0E3A
EndChar
StartChar: uni0E4B
Encoding: 192 3659 194
Width: 0
Flags: W
HStem: 1793 174<-590 -459 -287 -164>
VStem: -459 172<1670 1793 1967 2096>
AnchorPoint: "AboveMark" -373 1640 mark 0
Fore
-164 1793 m 1
 -287 1793 l 1
 -287 1670 l 1
 -459 1670 l 1
 -459 1793 l 1
 -590 1793 l 1
 -590 1967 l 1
 -459 1967 l 1
 -459 2096 l 1
 -287 2096 l 1
 -287 1967 l 1
 -164 1967 l 1
 -164 1793 l 1
EndSplineSet
MultipleSubs2: "Thai Tone Nikhahit Attachment" uni0E4D uni0E4B
Substitution2: "Thai Tone Low Variant" uni0E4B.low
Substitution2: "Thai Sara U Mai Chattawa Reordering" uni0E38
Substitution2: "Thai Sara UU Mai Chattawa Reordering" uni0E39
Substitution2: "Thai Phinthu Mai Chattawa Reordering" uni0E3A
EndChar
StartChar: uni0E4C
Encoding: 193 3660 195
Width: 0
Flags: W
HStem: 1621 112<-478.187 -346.759>
VStem: -618 136<1738.39 1849.45> -342 132<1739.16 1851.35>
AnchorPoint: "AboveMark" -415 1740 mark 0
Fore
-618 1805 m 0
 -618 2118.08 -234.322 1976.29 -128 2169 c 1
 52 2169 l 1
 -2 2022 -192 1918 -280 1918 c 1
 -241 1898 -210 1850 -210 1789 c 0
 -210 1716 -274 1621 -390 1621 c 0
 -524 1621 -618 1698 -618 1805 c 0
-342 1795 m 0
 -342 1830 -372 1857 -412 1857 c 0
 -452 1857 -482 1830 -482 1795 c 0
 -482 1760 -452 1733 -412 1733 c 0
 -372 1733 -342 1760 -342 1795 c 0
EndSplineSet
MultipleSubs2: "Thai Tone Nikhahit Attachment" uni0E4D uni0E4C
Substitution2: "Thai Tone Low Variant" uni0E4C.low
Substitution2: "Thai Sara U Thanthakhat Reordering" uni0E38
Substitution2: "Thai Sara UU Thanthakhat Reordering" uni0E39
Substitution2: "Thai Phinthu Thanthakhat Reordering" uni0E3A
EndChar
StartChar: uni0E4D
Encoding: 194 3661 196
Width: 0
Flags: W
HStem: 1212 153<-369.717 -226.283> 1515 153<-369.717 -226.283>
VStem: -528 148<1375.69 1504.31> -216 148<1375.69 1504.31>
AnchorPoint: "AboveMark" -261 1740 basemark 0
AnchorPoint: "AboveBase" -105 1227 mark 0
Fore
-528 1440 m 0
 -528 1570 -428 1668 -298 1668 c 0
 -168 1668 -68 1570 -68 1440 c 0
 -68 1310 -168 1212 -298 1212 c 0
 -428 1212 -528 1310 -528 1440 c 0
-298 1365 m 0
 -258 1365 -216 1400 -216 1440 c 0
 -216 1480 -258 1515 -298 1515 c 0
 -338 1515 -380 1480 -380 1440 c 0
 -380 1400 -338 1365 -298 1365 c 0
EndSplineSet
Substitution2: "Thai Mark High Variant" uni0E4D.high
Substitution2: "Thai Sara U Nikhahit Reordering" uni0E38
Substitution2: "Thai Sara UU Nikhahit Reordering" uni0E39
Substitution2: "Thai Phinthu Nikhahit Reordering" uni0E3A
EndChar
StartChar: uni0E4E
Encoding: 195 3662 197
Width: 0
Flags: W
HStem: 1444 122<-282.85 -219 -219 -135> 1675 129<-343.674 -168> 1909 127<-333.158 -191.993>
VStem: -518 170<1813.84 1906.74>
AnchorPoint: "AboveBase" -135 1227 mark 0
Fore
-518 1884 m 0
 -518 1982 -410 2036 -279 2036 c 0
 -224 2036 -165 2028 -102 2013 c 1
 -102 1885 l 1
 -161 1900 -216 1909 -270 1909 c 0
 -309 1909 -348 1906 -348 1866 c 0
 -348 1824 -301 1804 -238 1804 c 2
 -168 1804 l 1
 -168 1675 l 1
 -233 1675 l 2
 -302 1675 -361 1663 -361 1617 c 0
 -361 1568 -220 1566 -213 1566 c 2
 -135 1566 l 1
 -135 1444 l 1
 -219 1444 l 2
 -378 1444 -543 1506 -543 1616 c 0
 -543 1693 -472 1734 -450 1744 c 1
 -495 1776 -518 1816 -518 1884 c 0
EndSplineSet
EndChar
StartChar: uni0E4F
Encoding: 196 3663 198
Width: 1250
Flags: W
HStem: -21 184<457.711 775.498> 258 148<537.642 696.066> 609 154<538.065 694.027> 852 188<458.559 773.625>
VStem: 97 183<338.057 671.907> 363 157<424.597 590.993> 716 154<427.042 588.843> 955 182<350.544 667.548>
Fore
617 852 m 0
 432 852 280 692 280 507 c 0
 280 322 432 163 617 163 c 0
 802 163 955 322 955 507 c 0
 955 692 802 852 617 852 c 0
520 508 m 0
 520 452 561 406 617 406 c 0
 673 406 716 452 716 508 c 0
 716 564 673 609 617 609 c 0
 561 609 520 564 520 508 c 0
1137 509 m 0
 1137 214 911 -21 616 -21 c 0
 321 -21 97 214 97 509 c 0
 97 804 321 1040 616 1040 c 0
 911 1040 1137 804 1137 509 c 0
870 511 m 0
 870 364 763 258 616 258 c 0
 469 258 363 364 363 511 c 0
 363 658 469 763 616 763 c 0
 763 763 870 658 870 511 c 0
EndSplineSet
EndChar
StartChar: uni0E50
Encoding: 197 3664 199
Width: 1250
Flags: W
HStem: -10 240<494.239 758.059> 686 238<490.529 758.576>
VStem: 150 253<318.119 597.109> 853 259<326.48 592.87>
Fore
403 458 m 0
 403 328 496 230 624 230 c 0
 758 230 853 336 853 458 c 0
 853 596 743 686 624 686 c 0
 501 686 403 591 403 458 c 0
1112 458 m 0
 1112 199 893 -10 622 -10 c 0
 347 -10 150 193 150 458 c 0
 150 747 383 924 622 924 c 0
 924 924 1112 699 1112 458 c 0
EndSplineSet
EndChar
StartChar: uni0E51
Encoding: 198 3665 200
Width: 1300
Flags: W
HStem: -9 187<388.303 750.309> 203 211<474.24 679.5> 603 84<589.393 705.235> 722 203<500.828 785.308>
VStem: 213 229<436.234 661.251> 489 96<487.582 600.892> 709 145<462 600> 885 219<316.14 619.38>
Fore
586 178 m 0
 798 178 885 338 885 463 c 0
 885 555 840 722 633 722 c 0
 469 722 442 598 442 544 c 0
 442 490 476 414 530 414 c 0
 539 414 549 417 558 422 c 1
 516 444 489 483 489 550 c 0
 489 635 554 687 653 687 c 0
 828 687 854 530 854 462 c 0
 854 371 787 203 572 203 c 0
 357 203 213 357 213 552 c 0
 213 747 363 925 627 925 c 0
 807 925 1104 833 1104 463 c 0
 1104 86 810 -9 574 -9 c 0
 340 -9 228 79 185 115 c 1
 282 292 l 1
 382 215 456 178 586 178 c 0
647 603 m 0
 612 603 585 579 585 544 c 0
 585 509 612 485 647 485 c 0
 682 485 709 509 709 544 c 0
 709 579 682 603 647 603 c 0
EndSplineSet
EndChar
StartChar: uni0E52
Encoding: 199 3666 201
Width: 1350
Flags: W
HStem: 0 200<499.88 545 545 1004> 343 118<603.247 706.624>
VStem: 456 144<467.531 681> 708 118<463.051 561.362> 1004 210<200 678.737>
Fore
654 563 m 0
 624 563 600 542 600 512 c 0
 600 482 624 461 654 461 c 0
 684 461 708 482 708 512 c 0
 708 542 684 563 654 563 c 0
659 343 m 0
 505 343 456 427 456 586 c 0
 456 776 598 874 718 924 c 1
 718 923 756 892 832 831 c 1
 936 924 l 1
 1100 860 1214 724 1214 506 c 2
 1214 0 l 1
 545 0 l 2
 292 0 240 231 232 307 c 2
 208 611 l 2
 187 802 142 976 75 1134 c 1
 309 1134 l 1
 433 812 434 458 457 334 c 0
 475 222 553 200 627 200 c 2
 1004 200 l 1
 1004 506 l 2
 1004 578 981 675 936 702 c 1
 936 701 901 678 832 632 c 1
 718 702 l 1
 712 696 707 687 703 674 c 1
 750 664 826 606 826 511 c 0
 826 446 780 343 659 343 c 0
EndSplineSet
EndChar
StartChar: uni0E53
Encoding: 200 3667 202
Width: 1400
Flags: W
HStem: -10 114<320.16 427.916> 198 135<349.636 426.861> 716 208<855.19 1026.35> 724 200<354.442 541.54>
VStem: 86 234<393.013 691.289> 428 123<106.714 196.398> 600 203<304 530.179> 1055 244<228.818 691.689>
Fore
374 198 m 0xcf
 344 198 320 179 320 151 c 24
 320 123 344 104 374 104 c 0
 404 104 428 123 428 151 c 0
 428 179 404 198 374 198 c 0xcf
392 333 m 0
 462 333 551 266 551 163 c 0
 551 48 481 -10 341 -10 c 0
 286 -10 227 33 196 96 c 0
 191 106 86 322 86 561 c 0
 86 837 238 924 403 924 c 0xdf
 591 924 663 849 705 792 c 1
 749 877 852 924 967 924 c 0
 1188 924 1299 778 1299 487 c 0
 1299 287 1241 48 1229 0 c 1
 1000 0 l 1
 1037 165 1055 347 1055 503 c 0
 1055 645 1023 716 960 716 c 0xef
 822 716 803 589 803 414 c 2
 803 304 l 1
 600 304 l 1
 600 497 614 724 436 724 c 0xdf
 360 724 321 659 321 550 c 0
 321 492 326 422 356 328 c 1
 369 331 381 333 392 333 c 0
EndSplineSet
EndChar
StartChar: uni0E54
Encoding: 201 3668 203
Width: 1550
Flags: W
HStem: -6 200<485.349 729.134> 557 135<973.093 1100.64> 724 200<475.645 1107.81>
VStem: 127 245<312.959 624.219> 813 156<428.163 550.32> 1105 135<428.852 553.523> 1278 232<1050.33 1262>
Back
127 469 m 0
 127 833 436 924 672 924 c 2
 918 924 l 2
 1130 924 1250 1037 1278 1262 c 1
 1510 1262 l 1
 1505 1083 1390 901 1310 830 c 0
 1216 746 1087 704 924 704 c 2
 664 704 l 6
 439 704 372 607 372 462 c 0
 372 348 484 231 585 231 c 0
 634 231 735 252 887 295 c 2
 909 301 l 1
 834 360 813 427 813 459 c 0
 813 624 923 692 1036 692 c 0
 1206 692 1240 565 1240 500 c 0
 1240 394 1175 313 1088 313 c 1
 1172 277 1253 308 1410 173 c 1
 1253 -2 l 1
 1178 68 1108 76 1030 76 c 0
 906 76 752 -6 580 -6 c 0
 330 -6 127 196 127 469 c 0
969 490 m 0
 969 454 1000 423 1037 423 c 0
 1070 423 1105 451 1105 490 c 0
 1105 522 1083 557 1037 557 c 0
 1001 557 969 531 969 490 c 0
EndSplineSet
Fore
1396 156 m 1
 1253 -2 l 1
 1178 68 1108 76 1030 76 c 0
 906 76 752 -6 580 -6 c 0
 330 -6 127 196 127 469 c 0
 127 833 436 924 672 924 c 2
 918 924 l 2
 1130 924 1250 1037 1278 1262 c 1
 1510 1262 l 1
 1505 1083 1390 901 1310 830 c 0
 1223 753 1087 724 924 724 c 2
 664 724 l 2
 439 724 372 617 372 462 c 0
 372 329 484 194 585 194 c 0
 634 194 735 215 887 258 c 2
 940 278 l 1
 846 324 813 427 813 459 c 0
 813 624 923 692 1036 692 c 0
 1206 692 1240 565 1240 500 c 0
 1240 394 1175 313 1088 313 c 1
 1216 243 1234 301 1396 156 c 1
969 490 m 0
 969 454 1000 423 1037 423 c 0
 1070 423 1105 451 1105 490 c 0
 1105 522 1083 557 1037 557 c 0
 1001 557 969 531 969 490 c 0
EndSplineSet
EndChar
StartChar: uni0E55
Encoding: 202 3669 204
Width: 1550
Flags: W
HStem: -6 200<485.349 729.134> 557 135<973.093 1100.64> 724 198<475.51 618> 1057 129<735.64 849.525>
VStem: 127 245<312.959 629.001> 602 128<948.383 1053.45> 813 156<428.163 550.32> 854 129<948.4 1053.84> 1105 135<428.852 553.523> 1278 232<1051.34 1262>
Back
969 490 m 0xfe80
 969 454 1000 423 1037 423 c 0
 1070 423 1105 451 1105 490 c 0
 1105 522 1083 557 1037 557 c 0
 1001 557 969 531 969 490 c 0xfe80
127 469 m 0
 127 732 324 922 618 922 c 1
 607 947 602 972 602 997 c 0
 602 1100 686 1186 793 1186 c 0
 898 1186 983 1101 983 997 c 0xfd80
 983 972 978 948 969 926 c 1
 1150 945 1253 1057 1278 1262 c 1
 1510 1262 l 1
 1505 1083 1390 901 1310 830 c 0
 1216 746 1087 704 924 704 c 2
 664 704 l 2
 439 704 372 607 372 462 c 0
 372 348 484 231 585 231 c 0
 634 231 735 252 887 295 c 2
 909 301 l 1
 834 360 813 427 813 459 c 0
 813 624 923 692 1036 692 c 0
 1206 692 1240 565 1240 500 c 0
 1240 394 1175 313 1088 313 c 1
 1172 277 1253 308 1410 173 c 1
 1253 -2 l 1
 1178 68 1108 76 1030 76 c 0
 906 76 752 -6 580 -6 c 0
 330 -6 127 196 127 469 c 0
730 995 m 0
 730 963 760 937 793 937 c 0
 820 937 854 960 854 995 c 0
 854 1034 823 1057 793 1057 c 0
 762 1057 730 1034 730 995 c 0
EndSplineSet
Fore
1253 -2 m 1xfec0
 1179 68 1108 76 1030 76 c 0
 906 76 752 -6 580 -6 c 0
 330 -6 127 196 127 469 c 0
 127 732 324 922 618 922 c 1
 607 947 602 972 602 997 c 0
 602 1100 686 1186 793 1186 c 0
 898 1186 983 1101 983 997 c 0xfdc0
 983 972 978 948 969 926 c 1
 1150 945 1253 1057 1278 1262 c 1
 1510 1262 l 1
 1505 1083 1447 956 1310 830 c 24
 1195 724 1087 724 924 724 c 2
 664 724 l 2
 439 724 372 617 372 462 c 0
 372 329 484 194 585 194 c 0
 634 194 735 215 887 258 c 2
 940 278 l 1
 846 324 813 427 813 459 c 0
 813 624 923 692 1036 692 c 0
 1206 692 1240 565 1240 500 c 0
 1240 394 1175 313 1088 313 c 1
 1216 243 1234 301 1396 156 c 1
 1253 -2 l 1xfec0
969 490 m 0xfec0
 969 454 1000 423 1037 423 c 0
 1070 423 1105 451 1105 490 c 0
 1105 522 1083 557 1037 557 c 0
 1001 557 969 531 969 490 c 0xfec0
730 995 m 0
 730 963 760 937 793 937 c 0
 820 937 854 960 854 995 c 0xfdc0
 854 1034 823 1057 793 1057 c 0
 762 1057 730 1034 730 995 c 0
EndSplineSet
EndChar
StartChar: uni0E56
Encoding: 203 3670 205
Width: 1300
Flags: W
HStem: -16 222<672.916 885.766> 465 129<492.652 612.351> 708 220<518.106 849.979>
VStem: 328 161<246 459.323> 617 124<348.65 461.226> 975 221<292.031 591.73>
Fore
732 206 m 0
 886 206 975 299 975 429 c 0
 975 623 847 708 653 708 c 0
 540 708 438 689 348 650 c 1
 203 1001 88 1186 12 1262 c 1
 315 1262 l 1
 396 1135 450 1015 477 900 c 1
 580 927 618 928 653 928 c 0
 972 928 1196 734 1196 436 c 0
 1196 159 989 -16 719 -16 c 0
 489 -16 328 154 328 338 c 0
 328 485 420 594 551 594 c 0
 657 594 741 508 741 406 c 0
 741 339 708 279 651 244 c 1
 662 209 716 206 732 206 c 0
489 404 m 0
 489 372 521 343 553 343 c 0
 585 343 617 372 617 404 c 0
 617 436 585 465 553 465 c 0
 521 465 489 436 489 404 c 0
EndSplineSet
EndChar
StartChar: uni0E57
Encoding: 204 3671 206
Width: 1540
Flags: W
HStem: -16 125<334.505 449.115> 234 132<346.398 434.212> 720 203<350.765 466.684 739.302 853.162>
VStem: 127 209<153.328 472.778 271.202 676.921> 454 130<129.461 230.973> 492 216<467 698.159> 879 219<218.475 700.565> 1185 232<237.668 1130>
Back
433 923 m 0
 519 923 569 888 602 825 c 1
 626 894 695 924 799 924 c 0
 920 924 1098 845 1098 436 c 0
 1098 282 1088 258 1077 216 c 1
 1092 216 l 2
 1150 216 1185 263 1185 338 c 2
 1185 1130 l 1
 1417 1130 l 1
 1417 334 l 2
 1417 111 1297 0 1057 0 c 2
 771 0 l 1
 807 88 879 265 879 436 c 0
 879 583 852 657 799 657 c 0
 723 657 708 599 708 467 c 1
 492 467 l 1
 477 610 490 657 406 657 c 0
 333 657 336 546 336 445 c 0
 336 409 340 380 347 358 c 1
 363 365 379 366 400 366 c 0
 492 366 584 282 584 172 c 0
 584 72 504 -16 393 -16 c 0
 287 -16 127 59 127 436 c 0
 127 832 269 923 433 923 c 0
332 173 m 0
 332 133 360 109 393 109 c 0
 442 109 454 154 454 173 c 0
 454 218 413 234 393 234 c 0
 355 234 332 204 332 173 c 0
EndSplineSet
Fore
433 923 m 0xfb
 519 923 569 888 602 825 c 1
 626 894 695 924 799 924 c 0
 920 924 1098 845 1098 436 c 0
 1098 282 1088 258 1077 216 c 1
 1092 216 l 2
 1150 216 1185 263 1185 338 c 2
 1185 1130 l 1
 1417 1130 l 1
 1417 334 l 2
 1417 111 1297 0 1057 0 c 2
 771 0 l 1
 807 88 879 265 879 499 c 0
 879 646 852 720 799 720 c 0
 723 720 708 599 708 467 c 1
 492 467 l 1xf7
 477 610 490 720 406 720 c 0
 333 720 336 609 336 508 c 0
 336 472 340 380 347 358 c 1
 363 365 379 366 400 366 c 0
 492 366 584 282 584 172 c 0
 584 72 504 -16 393 -16 c 0
 287 -16 127 59 127 436 c 0
 127 832 269 923 433 923 c 0xfb
332 173 m 0
 332 133 360 109 393 109 c 0
 442 109 454 154 454 173 c 0xfb
 454 218 413 234 393 234 c 0
 355 234 332 204 332 173 c 0
EndSplineSet
EndChar
StartChar: uni0E58
Encoding: 205 3672 207
Width: 1580
Flags: W
HStem: -12 223<1045.62 1187.56> 309 114<1134.89 1204> 575 113<1138.24 1271.39>
VStem: 127 254<341.687 641.196> 1014 114<430.762 568.03> 1278 240<1075.19 1263> 1280 178<381 564.136>
Back
575 0 m 2
 320 0 127 193 127 469 c 0
 127 649 203 887 613 917 c 0
 972 935 1278 895 1278 1263 c 1
 1518 1263 l 1
 1516 1195 l 2
 1498 984 1410 853 1353 804 c 0
 1292 750 1150 711 987 699 c 0
 805 686 626 712 462 636 c 0
 414 615 381 552 381 478 c 0
 381 381 451 318 516 306 c 1
 516 483 647 516 717 516 c 0
 823 516 899 435 967 354 c 2
 1042 267 l 2
 1076 232 1114 215 1157 215 c 0
 1205 215 1213 267 1213 280 c 0
 1213 292 1209 302 1202 309 c 1
 1092 309 1014 399 1014 500 c 0
 1014 601 1098 688 1204 688 c 0
 1356 688 1458 563 1458 381 c 0
 1458 68 1278 -12 1155 -12 c 0
 936 -12 809 283 743 283 c 0
 714 283 700 236 700 141 c 2
 700 0 l 1
 575 0 l 2
1128 499 m 0
 1128 457 1162 423 1204 423 c 0
 1246 423 1280 457 1280 499 c 0
 1280 541 1246 575 1204 575 c 0
 1162 575 1128 541 1128 499 c 0
EndSplineSet
Fore
575 0 m 2xfa
 320 0 127 193 127 469 c 0
 127 649 203 887 613 917 c 0
 972 935 1278 895 1278 1263 c 1
 1518 1263 l 1xfc
 1516 1195 l 2
 1498 984 1410 893 1353 844 c 0
 1292 790 1150 751 987 739 c 0
 805 726 626 752 462 676 c 0
 414 655 381 572 381 478 c 0
 381 364 451 285 516 273 c 1
 516 450 647 483 717 483 c 0
 823 483 899 402 967 321 c 2
 1042 234 l 2
 1060 216 1079 211 1099 211 c 0
 1158 211 1213 216 1213 280 c 0
 1213 292 1209 302 1202 309 c 1
 1092 309 1014 399 1014 500 c 0
 1014 601 1098 688 1204 688 c 0
 1356 688 1458 563 1458 381 c 0
 1458 68 1278 -12 1155 -12 c 0
 936 -12 809 283 743 283 c 0
 714 283 700 236 700 141 c 2
 700 0 l 1
 575 0 l 2xfa
1128 499 m 0
 1128 457 1162 423 1204 423 c 0
 1246 423 1280 457 1280 499 c 0xfa
 1280 541 1246 575 1204 575 c 0
 1162 575 1128 541 1128 499 c 0
EndSplineSet
EndChar
StartChar: uni0E59
Encoding: 206 3673 208
Width: 1500
Flags: W
HStem: -16 123<334.41 448.893> 236 126<346.227 450.804> 724 14<909 1108> 724 200<379.643 549.011 866.686 948.461>
VStem: 127 210<153.793 457.34 266.868 682.316> 454 130<111.434 231.793> 1202 212<902.646 1130>
Back
1202 1130 m 1xee
 1414 1130 l 1
 1414 906 1372 727 1341 633 c 0
 1298 517 1224 468 1146 468 c 0xee
 928 468 972 618 879 618 c 0
 856 618 844 620 812 552 c 1
 1029 0 l 1
 802 0 l 1
 598 477 l 2
 562 565 537 615 464 615 c 0
 387 615 337 537 337 435 c 0
 337 405 340 379 346 356 c 1
 362 366 374 362 395 362 c 0
 510 362 584 270 584 172 c 0
 584 72 504 -16 393 -16 c 0
 287 -16 127 59 127 436 c 0
 127 710 219 924 467 924 c 0
 571 924 649 875 702 776 c 1
 745 875 802 924 874 924 c 0xde
 1004 924 1024 738 1108 738 c 0
 1183 738 1187 939 1202 1130 c 1xee
331 173 m 0
 331 136 358 107 392 107 c 0
 429 107 454 139 454 173 c 0
 454 204 430 236 392 236 c 256
 355 236 331 204 331 173 c 0
EndSplineSet
Fore
1202 1130 m 1xee
 1414 1130 l 1
 1414 906 1372 836 1341 742 c 0
 1298 626 1224 538 1146 538 c 0
 958 538 959 724 909 724 c 0xee
 886 724 860 673 826 595 c 1
 1022 0 l 1
 802 0 l 1
 598 586 l 2
 562 674 537 724 464 724 c 0
 387 724 337 646 337 544 c 0
 337 514 340 379 346 356 c 1
 362 366 374 362 395 362 c 0
 510 362 584 270 584 172 c 0
 584 72 504 -16 393 -16 c 0
 287 -16 127 59 127 436 c 0
 127 710 219 924 467 924 c 0
 596 924 699 875 752 776 c 1
 795 875 832 924 904 924 c 0xde
 1058 924 1039 738 1108 738 c 0
 1183 738 1187 939 1202 1130 c 1xee
331 173 m 0
 331 136 358 107 392 107 c 0
 429 107 454 139 454 173 c 0
 454 204 430 236 392 236 c 256
 355 236 331 204 331 173 c 0
EndSplineSet
EndChar
StartChar: uni0E5A
Encoding: 207 3674 209
Width: 1400
Flags: W
HStem: 0 21G<805 1025 1065 1285> 657 200<514 682.562> 1023 124<267.363 389.555>
VStem: 127 133<892.976 1019.4> 396 152<917.125 1018.8> 805 220<0 776 987.448 1149> 1065 220<0 1149>
Fore
548 972 m 0
 548 950 543 886 514 857 c 1
 549 857 l 2
 723 857 805 1032 805 1149 c 1
 1025 1149 l 1
 1025 0 l 1
 805 0 l 1
 805 776 l 1
 734 683 583 657 487 657 c 0
 207 657 127 800 127 930 c 0
 127 1074 228 1147 347 1147 c 0
 435 1147 548 1092 548 972 c 0
328 1023 m 0
 288 1023 260 996 260 956 c 0
 260 916 288 889 328 889 c 0
 368 889 396 916 396 956 c 0
 396 996 368 1023 328 1023 c 0
1285 0 m 1
 1065 0 l 1
 1065 1149 l 1
 1285 1149 l 1
 1285 0 l 1
EndSplineSet
EndChar
StartChar: uni0E5B
Encoding: 208 3675 210
Width: 2370
Flags: W
HStem: -11 233<440.833 802.545> 198 166<1874.18 1973 1973 2358> 272 170<541.503 733.47> 300 84<1618 1776> 463 98<550.722 619.853> 643 93<536.328 609.463> 786 200<431.652 708.815>
VStem: 133 195<336.408 665.815> 381 159<448.799 471 515.357 622.526> 620 95<561.684 642.031> 777 185<483.935 718.164>
Fore
777 603 m 0xafe0
 777 713 686 786 562 786 c 0
 429 786 328 680 328 464 c 0
 328 403 374 222 610 222 c 0
 998 222 972 615 1151 615 c 0
 1291 615 1243 410 1292 410 c 0
 1370 410 1308 615 1457 615 c 0
 1570 615 1545 384 1618 384 c 0x9fe0
 1674 384 1660 507 1760 507 c 0
 1848 507 1837 364 1979 364 c 2
 2358 364 l 1
 2358 198 l 1
 1973 198 l 2x4fe0
 1844 198 1796 300 1776 300 c 0
 1726 300 1709 94 1600 94 c 0
 1507 94 1508 304 1452 304 c 0
 1407 304 1398 88 1292 88 c 0
 1148 88 1164 300 1134 300 c 0x1fe0
 1104 300 1042 -11 640 -11 c 0
 300 -11 133 244 133 483 c 0
 133 885 444 986 578 986 c 0
 895 986 962 755 962 615 c 0
 962 392 774 272 609 272 c 0
 456 272 381 386 381 503 c 0
 381 625 466 736 570 736 c 0
 630 736 715 694 715 595 c 0
 715 513 644 463 581 463 c 0
 567 463 553 465 540 471 c 1
 540 461 572 442 621 442 c 0
 751 442 777 549 777 603 c 0xafe0
536 602 m 0
 536 582 553 561 580 561 c 0
 603 561 620 579 620 601 c 0
 620 629 600 643 578 643 c 0
 554 643 536 623 536 602 c 0
EndSplineSet
EndChar
StartChar: afii301
Encoding: 211 8205 212
Width: 0
Flags: W
VStem: -36 72<-275 1114>
Fore
36 -275 m 1
 -36 -275 l 1
 -36 1114 l 1
 -170 978 l 1
 -219 1027 l 1
 -48 1196 l 1
 -219 1364 l 1
 -170 1413 l 1
 0 1242 l 1
 170 1413 l 1
 219 1364 l 1
 48 1196 l 1
 219 1027 l 1
 170 978 l 1
 36 1114 l 1
 36 -275 l 1
EndSplineSet
EndChar
StartChar: afii299
Encoding: 212 8206 213
Width: 0
Flags: W
HStem: 1163 71<35 301>
VStem: -36 71<-275 1163>
Fore
430 1198 m 1
 213 984 l 1
 164 1033 l 1
 301 1163 l 1
 35 1163 l 1
 35 -275 l 1
 -36 -275 l 1
 -36 1234 l 1
 301 1234 l 1
 164 1364 l 1
 213 1413 l 1
 430 1198 l 1
EndSplineSet
EndChar
StartChar: afii300
Encoding: 213 8207 214
Width: 0
Flags: W
HStem: 1163 71<-302 -36>
VStem: -36 71<-275 1163>
Fore
35 -275 m 1
 -36 -275 l 1
 -36 1163 l 1
 -302 1163 l 1
 -165 1033 l 1
 -214 984 l 1
 -431 1198 l 1
 -214 1413 l 1
 -165 1364 l 1
 -302 1234 l 1
 35 1234 l 1
 35 -275 l 1
EndSplineSet
EndChar
StartChar: uni2010
Encoding: 214 8208 215
Width: 973
Flags: W
HStem: 543 225<190 815>
Fore
190 768 m 1
 815 768 l 1
 815 543 l 1
 190 543 l 1
 190 768 l 1
EndSplineSet
EndChar
StartChar: endash
Encoding: 215 8211 216
Width: 1125
Flags: W
HStem: 525 234<0 1126>
Fore
1126 525 m 1
 0 525 l 1
 0 759 l 1
 1126 759 l 1
 1126 525 l 1
EndSplineSet
EndChar
StartChar: emdash
Encoding: 216 8212 217
Width: 1886
Flags: W
HStem: 525 245<0 1870>
Fore
1870 525 m 1
 0 525 l 1
 0 770 l 1
 1870 770 l 1
 1870 525 l 1
EndSplineSet
EndChar
StartChar: afii00208
Encoding: 217 8213 218
Width: 1862
Flags: W
HStem: 572 160<110 1752>
Fore
1752 572 m 1
 110 572 l 1
 110 732 l 1
 1752 732 l 1
 1752 572 l 1
EndSplineSet
EndChar
StartChar: underscoredbl
Encoding: 218 8215 219
Width: 1118
Flags: W
HStem: -423 130<-16 1134> -212 130<-16 1134>
Fore
1134 -212 m 1
 -16 -212 l 1
 -16 -82 l 1
 1134 -82 l 1
 1134 -212 l 1
1134 -423 m 1
 -16 -423 l 1
 -16 -293 l 1
 1134 -293 l 1
 1134 -423 l 1
EndSplineSet
EndChar
StartChar: quoteleft
Encoding: 219 8216 220
Width: 450
Flags: W
VStem: -64 443<997 1556>
Fore
379 997 m 1
 197 997 l 1
 -64 1556 l 1
 222 1556 l 1
 379 997 l 1
EndSplineSet
EndChar
StartChar: quoteright
Encoding: 220 8217 221
Width: 580
Flags: W
VStem: 52 444<997 1556>
Fore
496 1556 m 1
 235 997 l 1
 52 997 l 1
 209 1556 l 1
 496 1556 l 1
EndSplineSet
EndChar
StartChar: quotesinglbase
Encoding: 221 8218 222
Width: 432
Flags: W
HStem: -276 559<125 386>
VStem: -13 399<-276 283>
Fore
386 283 m 1
 125 -276 l 1
 -13 -276 l 1
 144 283 l 1
 386 283 l 1
EndSplineSet
EndChar
StartChar: quotereversed
Encoding: 222 8219 223
Width: 432
Flags: W
HStem: 997 559<178 335>
VStem: -64 399<997 1556>
Fore
335 1556 m 1
 178 997 l 1
 -64 997 l 1
 197 1556 l 1
 335 1556 l 1
EndSplineSet
EndChar
StartChar: quotedblleft
Encoding: 223 8220 224
Width: 850
Flags: W
VStem: -64 789<997 1556>
Fore
725 997 m 1
 546 997 l 1
 285 1556 l 1
 568 1556 l 1
 725 997 l 1
376 997 m 1
 197 997 l 1
 -64 1556 l 1
 219 1556 l 1
 376 997 l 1
EndSplineSet
EndChar
StartChar: quotedblright
Encoding: 224 8221 225
Width: 1000
Flags: W
VStem: 107 789<997 1556>
Fore
896 1556 m 1
 635 997 l 1
 456 997 l 1
 613 1556 l 1
 896 1556 l 1
547 1556 m 1
 286 997 l 1
 107 997 l 1
 264 1556 l 1
 547 1556 l 1
EndSplineSet
EndChar
StartChar: quotedblbase
Encoding: 225 8222 226
Width: 814
Flags: W
HStem: -276 559<520 781>
VStem: -8 789<-276 283>
Fore
781 283 m 1
 520 -276 l 1
 386 -276 l 1
 543 283 l 1
 781 283 l 1
387 283 m 1
 126 -276 l 1
 -8 -276 l 1
 149 283 l 1
 387 283 l 1
EndSplineSet
EndChar
StartChar: dagger
Encoding: 226 8224 227
Width: 1118
Flags: W
HStem: 1034 129<620 983>
VStem: 498 122<135 1039 1158 1556>
Fore
983 1034 m 1
 620 1039 l 1
 625 135 l 1
 493 135 l 1
 498 1039 l 1
 135 1034 l 1
 135 1163 l 1
 498 1158 l 1
 493 1556 l 1
 625 1556 l 1
 620 1158 l 1
 983 1163 l 1
 983 1034 l 1
EndSplineSet
EndChar
StartChar: daggerdbl
Encoding: 227 8225 228
Width: 1118
Flags: W
HStem: 507 129<620 983> 1049 119<135 498 620 983>
VStem: 498 122<124 512 631 1049 1168 1556>
Fore
983 507 m 1
 620 512 l 1
 625 124 l 1
 493 124 l 1
 498 512 l 1
 135 507 l 1
 135 636 l 1
 498 631 l 1
 498 1049 l 1
 135 1044 l 1
 135 1173 l 1
 498 1168 l 1
 493 1556 l 1
 625 1556 l 1
 620 1168 l 1
 983 1173 l 1
 983 1044 l 1
 620 1049 l 1
 620 631 l 1
 983 636 l 1
 983 507 l 1
EndSplineSet
EndChar
StartChar: bullet
Encoding: 228 8226 229
Width: 950
Flags: W
Fore
465 1013 m 0
 668 1013 817 851 817 662 c 0
 817 472 667 311 465 311 c 0
 271 311 114 465 114 662 c 0
 114 856 268 1013 465 1013 c 0
EndSplineSet
EndChar
StartChar: ellipsis
Encoding: 229 8230 230
Width: 1650
Flags: W
HStem: 0 223<177 381 735 939 1293 1497>
VStem: 177 204<0 223> 735 204<0 223> 1293 204<0 223>
CounterMasks: 1 70
Fore
1497 0 m 1
 1293 0 l 1
 1293 223 l 1
 1497 223 l 1
 1497 0 l 1
939 0 m 1
 735 0 l 1
 735 223 l 1
 939 223 l 1
 939 0 l 1
381 0 m 1
 177 0 l 1
 177 223 l 1
 381 223 l 1
 381 0 l 1
EndSplineSet
EndChar
StartChar: perthousand
Encoding: 230 8240 231
Width: 2848
Flags: W
HStem: -29 133<1430.39 1657.4 2274.39 2501.4> 634 133<340.39 567.399> 721 133<1431.96 1657.4 2275.96 2501.4> 1384 133<341.958 567.399>
VStem: 102 178<832.25 1315.45> 629 178<834.364 1317.18> 1192 178<168.833 652.445> 1719 178<171.364 654.183> 2036 178<168.833 652.445> 2563 178<171.364 654.183>
Fore
455 1517 m 0xdfc0
 666 1517 807 1396 807 1076 c 0
 807 755 666 634 455 634 c 0
 243 634 102 758 102 1075 c 0
 102 1394 243 1517 455 1517 c 0xdfc0
1473 1489 m 1
 693 0 l 1
 528 0 l 1
 1308 1489 l 1
 1473 1489 l 1
1545 854 m 0xbfc0
 1756 854 1897 733 1897 413 c 0
 1897 94 1756 -29 1545 -29 c 0
 1333 -29 1192 94 1192 412 c 0
 1192 731 1333 854 1545 854 c 0xbfc0
455 767 m 0xdfc0
 559 767 629 820 629 1076 c 0
 629 1332 559 1384 455 1384 c 0
 350 1384 280 1328 280 1075 c 0
 280 814 350 767 455 767 c 0xdfc0
1545 104 m 0
 1649 104 1719 157 1719 413 c 0
 1719 669 1649 721 1545 721 c 0xbfc0
 1440 721 1370 665 1370 412 c 0
 1370 151 1440 104 1545 104 c 0
2389 854 m 0
 2600 854 2741 733 2741 413 c 0
 2741 94 2600 -29 2389 -29 c 0
 2177 -29 2036 94 2036 412 c 0
 2036 731 2177 854 2389 854 c 0
2389 104 m 0
 2493 104 2563 157 2563 413 c 0
 2563 669 2493 721 2389 721 c 0
 2284 721 2214 665 2214 412 c 0
 2214 151 2284 104 2389 104 c 0
EndSplineSet
EndChar
StartChar: minute
Encoding: 231 8242 232
Width: 602
Flags: W
HStem: 870 619<273 571>
VStem: 137 434<870 1489>
Fore
571 1489 m 1
 273 870 l 1
 137 870 l 1
 331 1489 l 1
 571 1489 l 1
EndSplineSet
EndChar
StartChar: second
Encoding: 232 8243 233
Width: 972
Flags: W
HStem: 870 619<269 567>
VStem: 137 824<870 1489>
Fore
567 1489 m 1
 269 870 l 1
 137 870 l 1
 331 1489 l 1
 567 1489 l 1
961 1489 m 1
 663 870 l 1
 531 870 l 1
 725 1489 l 1
 961 1489 l 1
EndSplineSet
EndChar
StartChar: guilsinglleft
Encoding: 233 8249 234
Width: 784
Flags: W
HStem: 172 960<633 633>
VStem: 123 510<172 608>
Fore
633 172 m 1
 123 608 l 1
 123 697 l 1
 633 1132 l 1
 633 933 l 1
 302 652 l 1
 633 371 l 1
 633 172 l 1
EndSplineSet
EndChar
StartChar: guilsinglright
Encoding: 234 8250 235
Width: 784
Flags: W
HStem: 172 960<151 151>
VStem: 151 510<172 608>
Fore
661 608 m 1
 151 172 l 1
 151 371 l 1
 482 652 l 1
 151 933 l 1
 151 1132 l 1
 661 697 l 1
 661 608 l 1
EndSplineSet
EndChar
StartChar: uni203E
Encoding: 236 8254 237
Width: 1118
Flags: W
HStem: 1658 131<-48 1118>
Fore
1118 1658 m 1
 -48 1658 l 1
 -48 1789 l 1
 1118 1789 l 1
 1118 1658 l 1
EndSplineSet
EndChar
StartChar: fraction
Encoding: 237 8260 238
Width: 886
Flags: W
HStem: 0 21G<-29 146.477>
VStem: -29 945<0 1489>
Fore
916 1489 m 1
 136 0 l 1
 -29 0 l 1
 751 1489 l 1
 916 1489 l 1
EndSplineSet
EndChar
StartChar: uni207F
Encoding: 238 8319 239
Width: 1010
Flags: W
HStem: 1368 151<503.496 673.178>
VStem: 125 171<566 1254 1388 1488> 718 172<566 1322.99>
Fore
586 1519 m 0
 695 1519 890 1478 890 1163 c 2
 890 566 l 1
 718 566 l 1
 718 1088 l 2
 718 1274 707 1368 541 1368 c 0
 492 1368 423 1357 296 1254 c 1
 296 566 l 1
 125 566 l 1
 125 1488 l 1
 296 1488 l 1
 296 1388 l 1
 443 1514 528 1519 586 1519 c 0
EndSplineSet
EndChar
StartChar: dottedcircle
Encoding: 239 9676 240
Width: 1247
Flags: W
HStem: 7 121<553.139 669.709> 68 121<847.139 963.929> 98 121<288.139 405.099> 234 121<1013.14 1129.93> 249 121<145.139 261.709> 438 121<1088.14 1205.1> 445 121<24.1394 141.099> 679 121<39.1394 155.709 1074.14 1191.1> 868 121<145.139 261.929> 891 121<967.139 1083.71> 1011 121<334.139 451.099> 1034 121<779.139 895.929> 1079 121<560.139 677.099>
VStem: 22 121<447.213 563.929> 37 121<681.213 797.635> 143 121<251.213 367.635 870.213 987.099> 286 121<100.213 216.929> 332 121<1013.21 1129.93> 551 121<9.21281 125.635> 558 121<1081.21 1197.93> 777 121<1036.21 1153.1> 845 121<70.2128 187.099> 965 121<893.176 1009.67> 1011 121<236.213 353.099> 1072 121<681.213 797.929> 1086 121<440.213 556.929>
Fore
203 868 m 0x0181
 168 868 143 894 143 928 c 0
 143 962 167 989 203 989 c 0
 240 989 264 962 264 928 c 0
 264 893 237 868 203 868 c 0x0181
392 1011 m 0x012040
 357 1011 332 1037 332 1071 c 0
 332 1105 357 1132 392 1132 c 0
 426 1132 453 1108 453 1071 c 0
 453 1035 426 1011 392 1011 c 0x012040
618 1079 m 0x010810
 583 1079 558 1105 558 1139 c 0
 558 1173 583 1200 618 1200 c 0
 652 1200 679 1176 679 1139 c 0
 679 1103 652 1079 618 1079 c 0x010810
82 445 m 0x0304
 47 445 22 471 22 505 c 0
 22 539 47 566 82 566 c 0
 116 566 143 542 143 505 c 0
 143 469 116 445 82 445 c 0x0304
203 249 m 0x0901
 168 249 143 275 143 309 c 0
 143 343 168 370 203 370 c 0
 238 370 264 342 264 309 c 0
 264 274 237 249 203 249 c 0x0901
346 98 m 0x210080
 311 98 286 124 286 158 c 0
 286 192 310 219 346 219 c 0
 380 219 407 195 407 158 c 0
 407 122 380 98 346 98 c 0x210080
611 7 m 0x810020
 576 7 551 33 551 67 c 0
 551 101 576 128 611 128 c 0
 646 128 672 100 672 67 c 0
 672 32 645 7 611 7 c 0x810020
905 68 m 0x410004
 870 68 845 94 845 128 c 0x810004
 845 162 869 189 905 189 c 0x410004
 942 189 966 162 966 128 c 0x810004
 966 93 939 68 905 68 c 0x410004
1071 234 m 0x110001
 1036 234 1011 260 1011 294 c 0
 1011 328 1035 355 1071 355 c 0
 1108 355 1132 328 1132 294 c 0
 1132 259 1105 234 1071 234 c 0x110001
1146 438 m 0x05000040
 1111 438 1086 464 1086 498 c 0
 1086 532 1110 559 1146 559 c 0
 1180 559 1207 535 1207 498 c 0
 1207 462 1180 438 1146 438 c 0x05000040
1132 679 m 0x010001
 1097 679 1072 705 1072 739 c 0x01000080
 1072 773 1097 800 1132 800 c 0x010001
 1166 800 1193 776 1193 739 c 0x01000080
 1193 703 1166 679 1132 679 c 0x010001
1025 891 m 0x014002
 990 891 965 917 965 951 c 0
 965 985 990 1012 1025 1012 c 0
 1060 1012 1086 984 1086 951 c 0
 1086 916 1059 891 1025 891 c 0x014002
837 1034 m 0x011008
 802 1034 777 1060 777 1094 c 0
 777 1128 801 1155 837 1155 c 0
 874 1155 898 1128 898 1094 c 0
 898 1059 871 1034 837 1034 c 0x011008
97 679 m 0
 62 679 37 705 37 739 c 0
 37 773 62 800 97 800 c 0
 132 800 158 772 158 739 c 0x0102
 158 704 131 679 97 679 c 0
EndSplineSet
EndChar
StartChar: uni0E10.descless
Encoding: 240 63232 241
Width: 1100
Flags: W
HStem: -10 200<572.378 679.82> 260 113<231.431 325.789> 541 123<231.928 339.38> 864 200<709.036 913.214 908.472 917.957 917.957 935> 949 200<367.252 688.992>
VStem: 111 115<376.273 538.833> 346 220<198.702 289 374.661 535.426> 686 220<195.632 259 259 563.95>
Fore
226 457 m 0xe7
 226 401 248 373 286 373 c 0
 324 373 346 401 346 457 c 0
 346 513 324 541 286 541 c 0
 248 541 226 513 226 457 c 0xe7
333 664 m 0
 436 664 566 618 566 433 c 2
 566 263 l 2
 566 214 586 190 626 190 c 0
 666 190 686 213 686 259 c 2
 686 529 l 2
 686 562 671 587 641 603 c 2
 562 636 l 2
 453 672 278 707 37 742 c 1
 85 976 213 1149 506 1149 c 0xef
 705 1149 727 1064 899 1064 c 0
 926 1064 951 1067 974 1072 c 1
 935 872 l 1
 915 867 888 864 860 864 c 0xf7
 722 864 653 949 495 949 c 0xef
 422 949 376 929 357 892 c 1
 699 826 906 764 906 573 c 2
 906 279 l 2
 906 86 813 -10 626 -10 c 0
 439 -10 346 88 346 283 c 2
 346 289 l 1
 326 267 291 260 267 260 c 0
 202 262 111 317 111 440 c 0
 111 603 223 664 333 664 c 0
EndSplineSet
EndChar
StartChar: uni0E48.low
Encoding: 250 63242 251
Width: 0
Flags: W
HStem: 1309 280<-350 -119>
VStem: -350 231<1309 1589>
AnchorPoint: "AboveBase" -119 1227 mark 0
Fore
-350 1589 m 5
 -119 1589 l 5
 -119 1309 l 5
 -350 1309 l 5
 -350 1589 l 5
EndSplineSet
EndChar
StartChar: uni0E49.low
Encoding: 251 63243 252
Width: 0
Flags: W
HStem: 1420 88<-717.082 -639.853> 1615 97<-718.256 -615.391>
VStem: -816 97<1508.97 1612.89> -611 125<1509.24 1611.28>
AnchorPoint: "AboveBase" -240 1227 mark 0
Fore
-500 1457 m 1
 -436 1470 -308 1530 -252 1698 c 1
 -70 1698 l 1
 -125 1473 -341 1303 -621 1258 c 0
 -652 1253 -687 1249 -728 1245 c 1
 -728 1352 l 1
 -671 1366 -641 1394 -636 1427 c 1
 -650 1422 -664 1420 -679 1420 c 0
 -762 1420 -816 1488 -816 1572 c 0
 -816 1652 -755 1712 -676 1712 c 0
 -560 1712 -486 1626 -486 1551 c 0
 -486 1515 -490 1483 -500 1457 c 1
-719 1562 m 0
 -719 1528 -699 1508 -665 1508 c 0
 -631 1508 -611 1528 -611 1562 c 0
 -611 1596 -631 1615 -665 1615 c 0
 -699 1615 -719 1596 -719 1562 c 0
EndSplineSet
EndChar
StartChar: uni0E4A.low
Encoding: 252 63244 253
Width: 0
Flags: W
HStem: 1247 89<-701.995 -545.995> 1416 77<-618.816 -545.969>
VStem: -545 74<1337.22 1405.32>
AnchorPoint: "AboveBase" 0 1227 mark 0
Fore
-585 1336 m 0
 -560 1336 -545 1351 -545 1376 c 0
 -545 1394 -560 1416 -585 1416 c 0
 -610 1416 -625 1401 -625 1376 c 0
 -625 1351 -610 1336 -585 1336 c 0
-311 1733 m 1
 -199 1691 -98 1608 -98 1509 c 0
 -98 1505 -99 1501 -99 1497 c 1
 -1 1748 l 1
 179 1748 l 1
 178 1748 135 1636 50 1411 c 0
 -8 1262 -212 1251 -271 1251 c 1
 -246 1290 -233 1334 -233 1381 c 0
 -233 1480 -284 1538 -311 1555 c 1
 -453 1437 l 1
 -593 1555 l 1
 -622 1544 -656 1511 -659 1465 c 1
 -638 1484 -612 1493 -581 1493 c 0
 -514 1494 -471 1447 -471 1372 c 0
 -471 1296 -531 1247 -623 1247 c 0
 -779 1247 -818 1379 -818 1461 c 0
 -818 1623 -663 1708 -593 1733 c 1
 -453 1615 l 1
 -311 1733 l 1
EndSplineSet
EndChar
StartChar: uni0E4B.low
Encoding: 253 63245 254
Width: 0
Flags: W
HStem: 1348 174<-470 -339 -167 -44>
VStem: -339 172<1225 1348 1522 1651>
AnchorPoint: "AboveBase" -60 1227 mark 0
Fore
-44 1348 m 1
 -167 1348 l 1
 -167 1225 l 1
 -339 1225 l 1
 -339 1348 l 1
 -470 1348 l 1
 -470 1522 l 1
 -339 1522 l 1
 -339 1651 l 1
 -167 1651 l 1
 -167 1522 l 1
 -44 1522 l 1
 -44 1348 l 1
EndSplineSet
EndChar
StartChar: uni0E4C.low
Encoding: 254 63246 255
Width: 0
Flags: W
HStem: 1250 112<-568.187 -436.759>
VStem: -708 136<1367.39 1477.52> -432 132<1368.16 1480.35>
AnchorPoint: "AboveBase" -300 1227 mark 0
Fore
-38 1798 m 1
 -92 1651 -282 1550 -370 1547 c 1
 -331 1527 -300 1479 -300 1418 c 0
 -300 1345 -364 1250 -480 1250 c 0
 -614 1250 -708 1327 -708 1434 c 0
 -708 1657 -502 1655 -370 1692 c 0
 -283 1716 -234 1769 -218 1798 c 1
 -38 1798 l 1
-432 1424 m 0
 -432 1459 -462 1486 -502 1486 c 0
 -542 1486 -572 1459 -572 1424 c 0
 -572 1389 -542 1362 -502 1362 c 0
 -462 1362 -432 1389 -432 1424 c 0
EndSplineSet
EndChar
StartChar: uni0E0D.descless
Encoding: 255 63247 256
Width: 1745
Flags: W
HStem: -10 120<461.892 562.871> 0 200<1135 1360> 280 111<491.25 562.717> 949 200<516.409 823.452>
VStem: 241 220<115.657 235.992 363 557.871> 570 125<154.008 235.992> 915 220<200 849.854> 1360 220<200 1139>
Fore
369 671 m 1xbf
 323 726 256 767 171 792 c 1
 195 912 361 1149 677 1149 c 0
 961 1149 1135 976 1135 673 c 2
 1135 200 l 1
 1360 200 l 1
 1360 1139 l 1
 1580 1139 l 1
 1580 0 l 1
 915 0 l 1x7f
 915 657 l 2
 915 848 836 949 677 949 c 0
 571 949 493 906 443 831 c 1
 517 795 570 739 599 663 c 1
 494 550 461 536 461 376 c 2
 461 363 l 1
 478 382 501 391 532 391 c 0
 592 393 695 343 695 206 c 0
 698 101 628 -10 484 -10 c 0
 282 -10 241 116 241 303 c 2
 241 366 l 2
 241 523 263 560 369 671 c 1xbf
510 280 m 0
 470 280 450 235 450 195 c 0
 450 155 475 110 510 110 c 0xbf
 551 110 570 155 570 195 c 0
 570 235 550 280 510 280 c 0
EndSplineSet
EndChar
StartChar: uniF71B
Encoding: 267 63259 268
Width: 1000
Flags: W
HStem: 1065 20G<215 830>
VStem: 215 615<61 1085>
Fore
830 1085 m 1
 830 61 l 1
 215 61 l 1
 215 1085 l 1
 830 1085 l 1
EndSplineSet
EndChar
StartChar: uniF71C
Encoding: 268 63260 269
Width: 700
Flags: W
VStem: 97 434<-423 -154>
Fore
97 -423 m 1
 234 -154 l 1
 531 -154 l 1
 290 -423 l 1
 97 -423 l 1
EndSplineSet
EndChar
StartChar: uniF71D
Encoding: 269 63261 270
Width: 800
Flags: W
HStem: -236 211<182 294 508 616> -150 125<294 508>
VStem: 182 112<-236 -150> 508 108<-236 -150>
Fore
616 -236 m 1xb0
 508 -236 l 1xb0
 508 -150 l 1
 294 -150 l 1x70
 294 -236 l 1
 182 -236 l 1
 182 -25 l 1
 616 -25 l 1
 616 -236 l 1xb0
EndSplineSet
EndChar
StartChar: afii61664
Encoding: 210 8204 271
Width: 0
Flags: W
VStem: -36 72<-275 1289>
Fore
36 1289 m 1
 36 -275 l 1
 -36 -275 l 1
 -36 1289 l 1
 36 1289 l 1
EndSplineSet
EndChar
